GeoramaExtraCondensed-BlackItalic.ufo
<glyph name="exclam" format="2">
  <advance width="190"/>
  <unicode hex="0021"/>
  <outline>
    <contour>
      <point x="18" y="259" type="line"/>
      <point x="160" y="259" type="line"/>
      <point x="255" y="740" type="line"/>
      <point x="86" y="740" type="line"/>
    </contour>
    <contour>
      <point x="-24" y="67" type="curve" smooth="yes"/>
      <point x="-24" y="16"/>
      <point x="-1" y="-10"/>
      <point x="49" y="-10" type="curve" smooth="yes"/>
      <point x="134" y="-10"/>
      <point x="159" y="85"/>
      <point x="159" y="148" type="curve" smooth="yes"/>
      <point x="159" y="199"/>
      <point x="136" y="225"/>
      <point x="86" y="225" type="curve" smooth="yes"/>
      <point x="3" y="225"/>
      <point x="-24" y="132"/>
    </contour>
  </outline>
</glyph>
<glyph name="numbersign" format="2">
  <advance width="420"/>
  <unicode hex="0023"/>
  <outline>
    <contour>
      <point x="72" y="389" type="line"/>
      <point x="106" y="389" type="line"/>
      <point x="87" y="299" type="line"/>
      <point x="49" y="299" type="line"/>
      <point x="24" y="140" type="line"/>
      <point x="55" y="140" type="line"/>
      <point x="27" y="0" type="line"/>
      <point x="140" y="0" type="line"/>
      <point x="168" y="140" type="line"/>
      <point x="194" y="140" type="line"/>
      <point x="166" y="0" type="line"/>
      <point x="278" y="0" type="line"/>
      <point x="306" y="140" type="line"/>
      <point x="346" y="140" type="line"/>
      <point x="371" y="299" type="line"/>
      <point x="338" y="299" type="line"/>
      <point x="357" y="389" type="line"/>
      <point x="394" y="389" type="line"/>
      <point x="420" y="550" type="line"/>
      <point x="389" y="550" type="line"/>
      <point x="420" y="700" type="line"/>
      <point x="307" y="700" type="line"/>
      <point x="276" y="550" type="line"/>
      <point x="250" y="550" type="line"/>
      <point x="281" y="700" type="line"/>
      <point x="169" y="700" type="line"/>
      <point x="138" y="550" type="line"/>
      <point x="98" y="550" type="line"/>
    </contour>
    <contour>
      <point x="218" y="389" type="line"/>
      <point x="244" y="389" type="line"/>
      <point x="226" y="299" type="line"/>
      <point x="200" y="299" type="line"/>
    </contour>
  </outline>
</glyph>
<glyph name="parenleft" format="2">
  <advance width="239"/>
  <unicode hex="0028"/>
  <outline>
    <contour>
      <point x="1" y="40" type="curve" smooth="yes"/>
      <point x="1" y="-113"/>
      <point x="45" y="-204"/>
      <point x="147" y="-220" type="curve"/>
      <point x="174" y="-62" type="line"/>
      <point x="147" y="-43"/>
      <point x="132" y="-18"/>
      <point x="132" y="52" type="curve" smooth="yes"/>
      <point x="132" y="148"/>
      <point x="187" y="591"/>
      <point x="280" y="592" type="curve"/>
      <point x="305" y="750" type="line"/>
      <point x="66" y="750"/>
      <point x="1" y="276"/>
    </contour>
  </outline>
</glyph>
<glyph name="comma" format="2">
  <advance width="190"/>
  <unicode hex="002C"/>
  <outline>
    <contour>
      <point x="-10" y="111" type="line"/>
      <point x="-11" y="74"/>
      <point x="-15" y="42"/>
      <point x="-18" y="27" type="curve" smooth="yes"/>
      <point x="-27" y="-23"/>
      <point x="-62" y="-99"/>
      <point x="-85" y="-141" type="curve"/>
      <point x="31" y="-177" type="line"/>
      <point x="93" y="-96"/>
      <point x="140" y="-18"/>
      <point x="140" y="79" type="curve" smooth="yes"/>
      <point x="140" y="91"/>
      <point x="139" y="102"/>
      <point x="139" y="112" type="curve"/>
    </contour>
  </outline>
</glyph>
<glyph name="three" format="2">
  <advance width="420"/>
  <unicode hex="0033"/>
  <outline>
    <contour>
      <point x="-10" y="38" type="line"/>
      <point x="28" y="9"/>
      <point x="66" y="-10"/>
      <point x="134" y="-10" type="curve" smooth="yes"/>
      <point x="247" y="-10"/>
      <point x="361" y="70"/>
      <point x="361" y="223" type="curve" smooth="yes"/>
      <point x="361" y="313"/>
      <point x="323" y="347"/>
      <point x="294" y="369" type="curve"/>
      <point x="361" y="418"/>
      <point x="404" y="471"/>
      <point x="404" y="557" type="curve" smooth="yes"/>
      <point x="404" y="659"/>
      <point x="349" y="710"/>
      <point x="256" y="710" type="curve" smooth="yes"/>
      <point x="191" y="710"/>
      <point x="133" y="687"/>
      <point x="86" y="651" type="curve"/>
      <point x="112" y="510" type="line"/>
      <point x="126" y="519"/>
      <point x="149" y="528"/>
      <point x="180" y="528" type="curve" smooth="yes"/>
      <point x="210" y="528"/>
      <point x="232" y="512"/>
      <point x="232" y="478" type="curve" smooth="yes"/>
      <point x="232" y="446"/>
      <point x="202" y="420"/>
      <point x="170" y="420" type="curve" smooth="yes"/>
      <point x="133" y="420" type="line"/>
      <point x="111" y="286" type="line"/>
      <point x="155" y="286" type="line" smooth="yes"/>
      <point x="189" y="286"/>
      <point x="205" y="262"/>
      <point x="205" y="235" type="curve" smooth="yes"/>
      <point x="205" y="193"/>
      <point x="180" y="164"/>
      <point x="134" y="164" type="curve" smooth="yes"/>
      <point x="109" y="164"/>
      <point x="93" y="170"/>
      <point x="68" y="186" type="curve"/>
    </contour>
  </outline>
</glyph>
<glyph name="four" format="2">
  <advance width="420"/>
  <unicode hex="0034"/>
  <outline>
    <contour>
      <point x="-2" y="81" type="line"/>
      <point x="141" y="81" type="line"/>
      <point x="128" y="0" type="line"/>
      <point x="298" y="0" type="line"/>
      <point x="311" y="81" type="line"/>
      <point x="356" y="81" type="line"/>
      <point x="379" y="228" type="line"/>
      <point x="335" y="228" type="line"/>
      <point x="411" y="700" type="line"/>
      <point x="215" y="700" type="line"/>
      <point x="21" y="228" type="line"/>
    </contour>
    <contour>
      <point x="116" y="228" type="line"/>
      <point x="214" y="478" type="line"/>
      <point x="173" y="228" type="line"/>
    </contour>
  </outline>
</glyph>
<glyph name="seven" format="2">
  <advance width="420"/>
  <unicode hex="0037"/>
  <note>
9
</note>
  <outline>
    <contour>
      <point x="49" y="0" type="curve"/>
      <point x="222" y="0" type="line"/>
      <point x="244" y="127"/>
      <point x="269" y="204"/>
      <point x="340" y="364" type="curve" smooth="yes"/>
      <point x="433" y="572" type="line"/>
      <point x="453" y="700" type="line"/>
      <point x="113" y="700" type="line"/>
      <point x="86" y="531" type="line"/>
      <point x="254" y="531" type="line"/>
      <point x="171" y="370" type="line" smooth="yes"/>
      <point x="105" y="242"/>
      <point x="71" y="135"/>
    </contour>
  </outline>
</glyph>
<glyph name="eight" format="2">
  <advance width="420"/>
  <unicode hex="0038"/>
  <outline>
    <contour>
      <point x="184" y="-10" type="curve" smooth="yes"/>
      <point x="301" y="-10"/>
      <point x="385" y="56"/>
      <point x="385" y="209" type="curve" smooth="yes"/>
      <point x="385" y="390"/>
      <point x="226" y="426"/>
      <point x="226" y="511" type="curve" smooth="yes"/>
      <point x="226" y="539"/>
      <point x="238" y="552"/>
      <point x="253" y="552" type="curve" smooth="yes"/>
      <point x="266" y="552"/>
      <point x="276" y="540"/>
      <point x="276" y="512" type="curve" smooth="yes"/>
      <point x="276" y="476"/>
      <point x="249" y="449"/>
      <point x="239" y="432" type="curve"/>
      <point x="304" y="361" type="line"/>
      <point x="367" y="402"/>
      <point x="427" y="469"/>
      <point x="427" y="558" type="curve" smooth="yes"/>
      <point x="427" y="640"/>
      <point x="386" y="710"/>
      <point x="262" y="710" type="curve" smooth="yes"/>
      <point x="129" y="710"/>
      <point x="67" y="625"/>
      <point x="67" y="502" type="curve" smooth="yes"/>
      <point x="67" y="315"/>
      <point x="223" y="285"/>
      <point x="223" y="194" type="curve" smooth="yes"/>
      <point x="223" y="157"/>
      <point x="209" y="141"/>
      <point x="191" y="141" type="curve" smooth="yes"/>
      <point x="176" y="141"/>
      <point x="168" y="155"/>
      <point x="168" y="177" type="curve" smooth="yes"/>
      <point x="168" y="232"/>
      <point x="192" y="258"/>
      <point x="209" y="270" type="curve"/>
      <point x="140" y="357" type="line"/>
      <point x="57" y="336"/>
      <point x="4" y="245"/>
      <point x="4" y="156" type="curve" smooth="yes"/>
      <point x="4" y="62"/>
      <point x="48" y="-10"/>
    </contour>
  </outline>
</glyph>
<glyph name="nine" format="2">
  <advance width="420"/>
  <unicode hex="0039"/>
  <outline>
    <contour>
      <point x="261" y="710" type="curve" smooth="yes"/>
      <point x="126" y="710"/>
      <point x="51" y="568"/>
      <point x="51" y="372" type="curve" smooth="yes"/>
      <point x="51" y="269"/>
      <point x="97" y="235"/>
      <point x="147" y="235" type="curve" smooth="yes"/>
      <point x="187" y="235"/>
      <point x="213" y="248"/>
      <point x="245" y="277" type="curve"/>
      <point x="260" y="401" type="line"/>
      <point x="247" y="384"/>
      <point x="240" y="380"/>
      <point x="232" y="380" type="curve" smooth="yes"/>
      <point x="218" y="380"/>
      <point x="214" y="390"/>
      <point x="214" y="423" type="curve" smooth="yes"/>
      <point x="214" y="474"/>
      <point x="231" y="554"/>
      <point x="249" y="554" type="curve" smooth="yes"/>
      <point x="256" y="554"/>
      <point x="262" y="549"/>
      <point x="262" y="538" type="curve" smooth="yes"/>
      <point x="262" y="507"/>
      <point x="252" y="427"/>
      <point x="234" y="303" type="curve" smooth="yes"/>
      <point x="220" y="205"/>
      <point x="193" y="155"/>
      <point x="121" y="155" type="curve" smooth="yes"/>
      <point x="97" y="155"/>
      <point x="76" y="167"/>
      <point x="61" y="178" type="curve"/>
      <point x="-8" y="30" type="line"/>
      <point x="8" y="14"/>
      <point x="64" y="-10"/>
      <point x="127" y="-10" type="curve" smooth="yes"/>
      <point x="335" y="-10"/>
      <point x="420" y="235"/>
      <point x="420" y="509" type="curve" smooth="yes"/>
      <point x="420" y="660"/>
      <point x="365" y="710"/>
    </contour>
  </outline>
</glyph>
<glyph name="greater" format="2">
  <advance width="382"/>
  <unicode hex="003E"/>
  <outline>
    <contour>
      <point x="354" y="233" type="line"/>
      <point x="379" y="391" type="line"/>
      <point x="59" y="516" type="line"/>
      <point x="37" y="375" type="line"/>
      <point x="220" y="312" type="line"/>
      <point x="17" y="250" type="line"/>
      <point x="-5" y="108" type="line"/>
    </contour>
  </outline>
</glyph>
<glyph name="B" format="2">
  <advance width="397"/>
  <unicode hex="0042"/>
  <outline>
    <contour>
      <point x="-19" y="5" type="line"/>
      <point x="50" y="-6"/>
      <point x="83" y="-10"/>
      <point x="152" y="-10" type="curve" smooth="yes"/>
      <point x="322" y="-10"/>
      <point x="383" y="124"/>
      <point x="383" y="260" type="curve" smooth="yes"/>
      <point x="383" y="318"/>
      <point x="367" y="366"/>
      <point x="337" y="388" type="curve"/>
      <point x="392" y="429"/>
      <point x="417" y="491"/>
      <point x="417" y="557" type="curve" smooth="yes"/>
      <point x="417" y="647"/>
      <point x="367" y="710"/>
      <point x="256" y="710" type="curve" smooth="yes"/>
      <point x="228" y="710"/>
      <point x="168" y="707"/>
      <point x="89" y="695" type="curve"/>
    </contour>
    <contour>
      <point x="208" y="424" type="line"/>
      <point x="228" y="553" type="line"/>
      <point x="234" y="555"/>
      <point x="239" y="557"/>
      <point x="246" y="557" type="curve" smooth="yes"/>
      <point x="257" y="557"/>
      <point x="264" y="547"/>
      <point x="264" y="515" type="curve" smooth="yes"/>
      <point x="264" y="451"/>
      <point x="242" y="424"/>
      <point x="216" y="424" type="curve" smooth="yes"/>
    </contour>
    <contour>
      <point x="185" y="277" type="line"/>
      <point x="198" y="277" type="line" smooth="yes"/>
      <point x="214" y="277"/>
      <point x="223" y="264"/>
      <point x="223" y="237" type="curve" smooth="yes"/>
      <point x="223" y="173"/>
      <point x="203" y="143"/>
      <point x="180" y="143" type="curve" smooth="yes"/>
      <point x="177" y="143"/>
      <point x="172" y="143"/>
      <point x="164" y="146" type="curve"/>
    </contour>
  </outline>
</glyph>
<glyph name="C" format="2">
  <advance width="335"/>
  <unicode hex="0043"/>
  <anchor x="283" y="700" name="top"/>
  <anchor x="162" y="0" name="bottom"/>
  <outline>
    <contour>
      <point x="203" y="-10" type="curve" smooth="yes"/>
      <point x="237" y="-10"/>
      <point x="265" y="-7"/>
      <point x="292" y="4" type="curve"/>
      <point x="288" y="155" type="line"/>
      <point x="274" y="151"/>
      <point x="256" y="148"/>
      <point x="245" y="148" type="curve" smooth="yes"/>
      <point x="202" y="148"/>
      <point x="178" y="166"/>
      <point x="178" y="247" type="curve" smooth="yes"/>
      <point x="178" y="404"/>
      <point x="220" y="552"/>
      <point x="302" y="552" type="curve" smooth="yes"/>
      <point x="319" y="552"/>
      <point x="329" y="549"/>
      <point x="347" y="541" type="curve"/>
      <point x="399" y="683" type="line"/>
      <point x="372" y="701"/>
      <point x="331" y="710"/>
      <point x="291" y="710" type="curve" smooth="yes"/>
      <point x="119" y="710"/>
      <point x="13" y="512"/>
      <point x="13" y="215" type="curve" smooth="yes"/>
      <point x="13" y="63"/>
      <point x="84" y="-10"/>
    </contour>
  </outline>
</glyph>
<glyph name="D" format="2">
  <advance width="411"/>
  <unicode hex="0044"/>
  <anchor x="217.879" y="350" name="center"/>
  <anchor x="159" y="0" name="bottom"/>
  <anchor x="255" y="700" name="top"/>
  <outline>
    <contour>
      <point x="147" y="-10" type="curve" smooth="yes"/>
      <point x="334" y="-10"/>
      <point x="419" y="196"/>
      <point x="419" y="478" type="curve" smooth="yes"/>
      <point x="419" y="648"/>
      <point x="352" y="710"/>
      <point x="227" y="710" type="curve" smooth="yes"/>
      <point x="181" y="710"/>
      <point x="141" y="707"/>
      <point x="89" y="698" type="curve"/>
      <point x="-21" y="5" type="line"/>
      <point x="29" y="-5"/>
      <point x="88" y="-10"/>
    </contour>
    <contour>
      <point x="173" y="139" type="curve" smooth="yes"/>
      <point x="168" y="139"/>
      <point x="164" y="140"/>
      <point x="162" y="141" type="curve"/>
      <point x="227" y="549" type="line"/>
      <point x="231" y="550"/>
      <point x="234" y="551"/>
      <point x="238" y="551" type="curve" smooth="yes"/>
      <point x="255" y="551"/>
      <point x="257" y="534"/>
      <point x="257" y="480" type="curve" smooth="yes"/>
      <point x="257" y="354"/>
      <point x="212" y="139"/>
    </contour>
  </outline>
</glyph>
<glyph name="G" format="2">
  <advance width="387"/>
  <unicode hex="0047"/>
  <anchor x="290" y="700" name="top"/>
  <anchor x="199" y="0" name="bottom"/>
  <outline>
    <contour>
      <point x="201" y="-10" type="curve" smooth="yes"/>
      <point x="243" y="-10"/>
      <point x="299" y="0"/>
      <point x="335" y="30" type="curve"/>
      <point x="396" y="415" type="line"/>
      <point x="220" y="415" type="line"/>
      <point x="198" y="274" type="line"/>
      <point x="231" y="274" type="line"/>
      <point x="210" y="143" type="line"/>
      <point x="208" y="141"/>
      <point x="199" y="140"/>
      <point x="194" y="140" type="curve" smooth="yes"/>
      <point x="178" y="140"/>
      <point x="169" y="154"/>
      <point x="169" y="225" type="curve" smooth="yes"/>
      <point x="169" y="376"/>
      <point x="209" y="551"/>
      <point x="295" y="551" type="curve" smooth="yes"/>
      <point x="328" y="551"/>
      <point x="354" y="539"/>
      <point x="371" y="532" type="curve"/>
      <point x="421" y="681" type="line"/>
      <point x="382" y="702"/>
      <point x="335" y="710"/>
      <point x="290" y="710" type="curve" smooth="yes"/>
      <point x="75" y="710"/>
      <point x="12" y="411"/>
      <point x="12" y="216" type="curve" smooth="yes"/>
      <point x="12" y="67"/>
      <point x="85" y="-10"/>
    </contour>
  </outline>
</glyph>
<glyph name="H" format="2">
  <advance width="406"/>
  <unicode hex="0048"/>
  <anchor x="159.444" y="0" name="bottom"/>
  <anchor x="270.313" y="700" name="top"/>
  <anchor x="87.313" y="700" name="topleft"/>
  <anchor x="214.879" y="350" name="center"/>
  <outline>
    <contour>
      <point x="-22" y="0" type="line"/>
      <point x="140" y="0" type="line"/>
      <point x="178" y="243" type="line"/>
      <point x="216" y="243" type="line"/>
      <point x="179" y="0" type="line"/>
      <point x="340" y="0" type="line"/>
      <point x="451" y="700" type="line"/>
      <point x="289" y="700" type="line"/>
      <point x="241" y="398" type="line"/>
      <point x="203" y="398" type="line"/>
      <point x="251" y="700" type="line"/>
      <point x="89" y="700" type="line"/>
    </contour>
  </outline>
</glyph>
<glyph name="K" format="2">
  <advance width="430"/>
  <unicode hex="004B"/>
  <anchor x="282" y="700" name="top"/>
  <anchor x="191" y="0" name="bottom"/>
  <outline>
    <contour>
      <point x="-22" y="0" type="line"/>
      <point x="140" y="0" type="line"/>
      <point x="251" y="700" type="line"/>
      <point x="89" y="700" type="line"/>
    </contour>
    <contour>
      <point x="318" y="-10" type="curve" smooth="yes"/>
      <point x="339" y="-10"/>
      <point x="370" y="-1"/>
      <point x="379" y="3" type="curve"/>
      <point x="398" y="215" type="line"/>
      <point x="394" y="215"/>
      <point x="390" y="215"/>
      <point x="386" y="215" type="curve" smooth="yes"/>
      <point x="364" y="215"/>
      <point x="336" y="229"/>
      <point x="310" y="276" type="curve" smooth="yes"/>
      <point x="186" y="498" type="line"/>
      <point x="153" y="241" type="line"/>
      <point x="226" y="70" type="line" smooth="yes"/>
      <point x="248" y="19"/>
      <point x="271" y="-10"/>
    </contour>
    <contour>
      <point x="273" y="266" type="line"/>
      <point x="384" y="387"/>
      <point x="458" y="513"/>
      <point x="484" y="656" type="curve"/>
      <point x="335" y="700" type="line"/>
      <point x="308" y="588"/>
      <point x="266" y="481"/>
      <point x="208" y="417" type="curve"/>
    </contour>
  </outline>
</glyph>
<glyph name="L" format="2">
  <advance width="318"/>
  <unicode hex="004C"/>
  <anchor x="134" y="0" name="bottom"/>
  <anchor x="170" y="700" name="top"/>
  <anchor x="277" y="700" name="topright"/>
  <anchor x="170.879" y="350" name="center"/>
  <outline>
    <contour>
      <point x="-22" y="0" type="line"/>
      <point x="264" y="0" type="line"/>
      <point x="289" y="158" type="line"/>
      <point x="165" y="158" type="line"/>
      <point x="251" y="700" type="line"/>
      <point x="89" y="700" type="line"/>
    </contour>
  </outline>
</glyph>
<glyph name="O" format="2">
  <advance width="417"/>
  <unicode hex="004F"/>
  <note>
8
</note>
  <anchor x="165" y="0" name="bottom"/>
  <anchor x="239" y="3" name="ogonek"/>
  <anchor x="274" y="700" name="top"/>
  <anchor x="375" y="700" name="topright"/>
  <anchor x="88" y="700" name="topleft"/>
  <anchor x="220" y="350" name="center"/>
  <outline>
    <contour>
      <point x="184" y="-10" type="curve" smooth="yes"/>
      <point x="376" y="-10"/>
      <point x="428" y="288"/>
      <point x="428" y="507" type="curve" smooth="yes"/>
      <point x="428" y="644"/>
      <point x="386" y="710"/>
      <point x="257" y="710" type="curve" smooth="yes"/>
      <point x="65" y="710"/>
      <point x="13" y="412"/>
      <point x="13" y="193" type="curve" smooth="yes"/>
      <point x="13" y="56"/>
      <point x="55" y="-10"/>
    </contour>
    <contour>
      <point x="190" y="161" type="curve" smooth="yes"/>
      <point x="180" y="161"/>
      <point x="175" y="166"/>
      <point x="175" y="185" type="curve" smooth="yes"/>
      <point x="175" y="260"/>
      <point x="218" y="539"/>
      <point x="251" y="539" type="curve" smooth="yes"/>
      <point x="261" y="539"/>
      <point x="266" y="534"/>
      <point x="266" y="515" type="curve" smooth="yes"/>
      <point x="266" y="440"/>
      <point x="223" y="161"/>
    </contour>
  </outline>
</glyph>
<glyph name="R" format="2">
  <advance width="417"/>
  <unicode hex="0052"/>
  <anchor x="243" y="700" name="top"/>
  <anchor x="180" y="0" name="bottom"/>
  <outline>
    <contour>
      <point x="-22" y="0" type="line"/>
      <point x="140" y="0" type="line"/>
      <point x="172" y="204" type="line"/>
      <point x="176" y="204"/>
      <point x="179" y="204"/>
      <point x="183" y="204" type="curve"/>
      <point x="180" y="218" type="line"/>
      <point x="329" y="218"/>
      <point x="432" y="331"/>
      <point x="432" y="507" type="curve" smooth="yes"/>
      <point x="432" y="636"/>
      <point x="364" y="710"/>
      <point x="250" y="710" type="curve" smooth="yes"/>
      <point x="185" y="710"/>
      <point x="139" y="705"/>
      <point x="89" y="699" type="curve"/>
    </contour>
    <contour>
      <point x="307" y="-10" type="curve" smooth="yes"/>
      <point x="320" y="-10"/>
      <point x="352" y="-5"/>
      <point x="364" y="2" type="curve"/>
      <point x="383" y="182" type="line"/>
      <point x="380" y="182"/>
      <point x="377" y="182"/>
      <point x="374" y="182" type="curve" smooth="yes"/>
      <point x="337" y="182"/>
      <point x="311" y="212"/>
      <point x="302" y="280" type="curve"/>
      <point x="170" y="241" type="line"/>
      <point x="207" y="2"/>
      <point x="249" y="-10"/>
    </contour>
    <contour>
      <point x="207" y="342" type="curve" smooth="yes"/>
      <point x="203" y="342"/>
      <point x="198" y="343"/>
      <point x="194" y="344" type="curve"/>
      <point x="228" y="554" type="line"/>
      <point x="235" y="556"/>
      <point x="242" y="557"/>
      <point x="247" y="557" type="curve" smooth="yes"/>
      <point x="262" y="557"/>
      <point x="270" y="537"/>
      <point x="270" y="507" type="curve" smooth="yes"/>
      <point x="270" y="427"/>
      <point x="237" y="342"/>
    </contour>
  </outline>
</glyph>
<glyph name="S" format="2">
  <advance width="375"/>
  <unicode hex="0053"/>
  <anchor x="264" y="700" name="top"/>
  <anchor x="154" y="0" name="bottom"/>
  <outline>
    <contour>
      <point x="407" y="674" type="line"/>
      <point x="377" y="695"/>
      <point x="326" y="710"/>
      <point x="264" y="710" type="curve" smooth="yes"/>
      <point x="133" y="710"/>
      <point x="41" y="622"/>
      <point x="41" y="484" type="curve" smooth="yes"/>
      <point x="41" y="321"/>
      <point x="194" y="274"/>
      <point x="194" y="202" type="curve" smooth="yes"/>
      <point x="194" y="172"/>
      <point x="172" y="148"/>
      <point x="127" y="148" type="curve" smooth="yes"/>
      <point x="96" y="148"/>
      <point x="70" y="157"/>
      <point x="22" y="177" type="curve"/>
      <point x="-29" y="32" type="line"/>
      <point x="12" y="4"/>
      <point x="69" y="-10"/>
      <point x="137" y="-10" type="curve" smooth="yes"/>
      <point x="264" y="-10"/>
      <point x="356" y="81"/>
      <point x="356" y="206" type="curve" smooth="yes"/>
      <point x="356" y="373"/>
      <point x="209" y="423"/>
      <point x="209" y="494" type="curve" smooth="yes"/>
      <point x="209" y="536"/>
      <point x="237" y="552"/>
      <point x="280" y="552" type="curve" smooth="yes"/>
      <point x="303" y="552"/>
      <point x="333" y="547"/>
      <point x="359" y="534" type="curve"/>
    </contour>
  </outline>
</glyph>
<glyph name="underscore" format="2">
  <advance width="552"/>
  <unicode hex="005F"/>
  <outline>
    <contour>
      <point x="-77" y="-209" type="line"/>
      <point x="473" y="-209" type="line"/>
      <point x="502" y="-41" type="line"/>
      <point x="-48" y="-41" type="line"/>
    </contour>
  </outline>
</glyph>
<glyph name="b" format="2">
  <advance width="391"/>
  <unicode hex="0062"/>
  <note>
12
</note>
  <outline>
    <contour>
      <point x="255" y="740" type="line"/>
      <point x="93" y="740" type="line"/>
      <point x="-21" y="19" type="line"/>
      <point x="6" y="6"/>
      <point x="54" y="-10"/>
      <point x="127" y="-10" type="curve" smooth="yes"/>
      <point x="321" y="-10"/>
      <point x="389" y="180"/>
      <point x="387" y="381" type="curve" smooth="yes"/>
      <point x="386" y="505"/>
      <point x="350" y="560"/>
      <point x="287" y="560" type="curve" smooth="yes"/>
      <point x="266" y="560"/>
      <point x="244" y="553"/>
      <point x="223" y="535" type="curve"/>
    </contour>
    <contour>
      <point x="209" y="393" type="curve" smooth="yes"/>
      <point x="217" y="393"/>
      <point x="221" y="382"/>
      <point x="221" y="372" type="curve" smooth="yes"/>
      <point x="221" y="244"/>
      <point x="193" y="142"/>
      <point x="169" y="142" type="curve" smooth="yes"/>
      <point x="167" y="142"/>
      <point x="164" y="142"/>
      <point x="161" y="143" type="curve"/>
      <point x="200" y="390" type="line"/>
      <point x="203" y="392"/>
      <point x="207" y="393"/>
    </contour>
  </outline>
</glyph>
<glyph name="e" format="2">
  <advance width="363"/>
  <unicode hex="0065"/>
  <note>
14 points
</note>
  <anchor x="245" y="-2" name="ogonek"/>
  <anchor x="172" y="0" name="bottom"/>
  <anchor x="242" y="548" name="top"/>
  <outline>
    <contour>
      <point x="127" y="283" type="curve"/>
      <point x="94" y="179" type="line"/>
      <point x="135" y="176"/>
      <point x="174" y="182"/>
      <point x="209" y="193" type="curve" smooth="yes"/>
      <point x="309" y="226"/>
      <point x="380" y="314"/>
      <point x="380" y="426" type="curve" smooth="yes"/>
      <point x="380" y="503"/>
      <point x="336" y="558"/>
      <point x="241" y="558" type="curve" smooth="yes"/>
      <point x="83" y="558"/>
      <point x="5" y="381"/>
      <point x="5" y="189" type="curve" smooth="yes"/>
      <point x="5" y="62"/>
      <point x="66" y="-10"/>
      <point x="178" y="-10" type="curve" smooth="yes"/>
      <point x="221" y="-10"/>
      <point x="273" y="0"/>
      <point x="316" y="24" type="curve"/>
      <point x="292" y="183" type="line"/>
      <point x="258" y="167"/>
      <point x="228" y="161"/>
      <point x="203" y="161" type="curve" smooth="yes"/>
      <point x="176" y="161"/>
      <point x="159" y="161"/>
      <point x="161" y="230" type="curve" smooth="yes"/>
      <point x="165" y="344"/>
      <point x="193" y="407"/>
      <point x="219" y="406" type="curve" smooth="yes"/>
      <point x="227" y="406"/>
      <point x="230" y="401"/>
      <point x="230" y="387" type="curve" smooth="yes"/>
      <point x="229" y="353"/>
      <point x="211" y="307"/>
      <point x="179" y="290" type="curve" smooth="yes"/>
      <point x="167" y="284"/>
      <point x="137" y="280"/>
    </contour>
  </outline>
</glyph>
<glyph name="h" format="2">
  <advance width="394"/>
  <unicode hex="0068"/>
  <note>
16
</note>
  <anchor x="211" y="370" name="center"/>
  <anchor x="152" y="0" name="bottom"/>
  <anchor x="268" y="740" name="top"/>
  <outline>
    <contour>
      <point x="351" y="168" type="curve" smooth="yes"/>
      <point x="351" y="176"/>
      <point x="399" y="441"/>
      <point x="399" y="469" type="curve" smooth="yes"/>
      <point x="399" y="528"/>
      <point x="370" y="560"/>
      <point x="316" y="560" type="curve" smooth="yes"/>
      <point x="282" y="560"/>
      <point x="257" y="550"/>
      <point x="219" y="520" type="curve"/>
      <point x="255" y="740" type="line"/>
      <point x="93" y="740" type="line"/>
      <point x="-25" y="0" type="line"/>
      <point x="137" y="0" type="line"/>
      <point x="200" y="388" type="line"/>
      <point x="206" y="393"/>
      <point x="211" y="395"/>
      <point x="216" y="395" type="curve" smooth="yes"/>
      <point x="223" y="395"/>
      <point x="226" y="391"/>
      <point x="226" y="385" type="curve" smooth="yes"/>
      <point x="226" y="370"/>
      <point x="179" y="119"/>
      <point x="179" y="81" type="curve" smooth="yes"/>
      <point x="179" y="33"/>
      <point x="213" y="-10"/>
      <point x="273" y="-10" type="curve" smooth="yes"/>
      <point x="301" y="-10"/>
      <point x="329" y="0"/>
      <point x="350" y="15" type="curve"/>
      <point x="372" y="159" type="line"/>
      <point x="369" y="158"/>
      <point x="365" y="158"/>
      <point x="363" y="158" type="curve" smooth="yes"/>
      <point x="356" y="158"/>
      <point x="351" y="160"/>
    </contour>
  </outline>
</glyph>
<glyph name="i" format="2">
  <advance width="201"/>
  <unicode hex="0069"/>
  <note>
Ajuster pts sur points
8
</note>
  <anchor x="138" y="0" name="ogonek"/>
  <anchor x="57" y="0" name="bottom"/>
  <anchor x="144" y="550" name="top"/>
  <outline>
    <contour>
      <point x="-24" y="0" type="line"/>
      <point x="138" y="0" type="line"/>
      <point x="225" y="550" type="line"/>
      <point x="63" y="550" type="line"/>
    </contour>
    <contour>
      <point x="184" y="790" type="curve" smooth="yes"/>
      <point x="104" y="790"/>
      <point x="73" y="717"/>
      <point x="73" y="648" type="curve" smooth="yes"/>
      <point x="73" y="595"/>
      <point x="99" y="569"/>
      <point x="148" y="569" type="curve" smooth="yes"/>
      <point x="229" y="569"/>
      <point x="259" y="644"/>
      <point x="259" y="712" type="curve" smooth="yes"/>
      <point x="259" y="765"/>
      <point x="232" y="790"/>
    </contour>
  </outline>
</glyph>
<glyph name="l" format="2">
  <advance width="205"/>
  <unicode hex="006C"/>
  <anchor x="75" y="0" name="bottom"/>
  <anchor x="174" y="740" name="top"/>
  <anchor x="273" y="740" name="topright"/>
  <anchor x="121" y="370" name="center"/>
  <outline>
    <contour>
      <point x="93" y="740" type="line"/>
      <point x="-5" y="120" type="line" smooth="yes"/>
      <point x="-7" y="108"/>
      <point x="-8" y="94"/>
      <point x="-8" y="84" type="curve" smooth="yes"/>
      <point x="-8" y="27"/>
      <point x="22" y="-10"/>
      <point x="82" y="-10" type="curve" smooth="yes"/>
      <point x="110" y="-10"/>
      <point x="145" y="0"/>
      <point x="163" y="15" type="curve"/>
      <point x="185" y="159" type="line"/>
      <point x="182" y="158"/>
      <point x="178" y="158"/>
      <point x="176" y="158" type="curve" smooth="yes"/>
      <point x="169" y="158"/>
      <point x="166" y="163"/>
      <point x="166" y="174" type="curve" smooth="yes"/>
      <point x="166" y="179"/>
      <point x="167" y="186"/>
      <point x="168" y="193" type="curve" smooth="yes"/>
      <point x="255" y="740" type="line"/>
    </contour>
  </outline>
</glyph>
<glyph name="o" format="2">
  <advance width="390"/>
  <unicode hex="006F"/>
  <note>
8
</note>
  <anchor x="151.444" y="0" name="bottom"/>
  <anchor x="227" y="0" name="ogonek"/>
  <anchor x="227" y="550" name="top"/>
  <anchor x="314" y="540" name="topright"/>
  <anchor x="195" y="275" name="center"/>
  <outline>
    <contour>
      <point x="160" y="-9" type="curve" smooth="yes"/>
      <point x="322" y="-9"/>
      <point x="386" y="185"/>
      <point x="386" y="400" type="curve" smooth="yes"/>
      <point x="386" y="503"/>
      <point x="344" y="560"/>
      <point x="230" y="560" type="curve" smooth="yes"/>
      <point x="68" y="560"/>
      <point x="4" y="366"/>
      <point x="4" y="149" type="curve" smooth="yes"/>
      <point x="4" y="48"/>
      <point x="46" y="-9"/>
    </contour>
    <contour>
      <point x="172" y="148" type="curve" smooth="yes"/>
      <point x="167" y="148"/>
      <point x="162" y="150"/>
      <point x="162" y="162" type="curve" smooth="yes"/>
      <point x="162" y="195"/>
      <point x="193" y="403"/>
      <point x="218" y="403" type="curve" smooth="yes"/>
      <point x="223" y="403"/>
      <point x="228" y="401"/>
      <point x="228" y="389" type="curve" smooth="yes"/>
      <point x="228" y="356"/>
      <point x="197" y="148"/>
    </contour>
  </outline>
</glyph>
<glyph name="p" format="2">
  <advance width="392"/>
  <unicode hex="0070"/>
  <note>
14 point
</note>
  <outline>
    <contour>
      <point x="-57" y="-210" type="line"/>
      <point x="104" y="-210" type="line"/>
      <point x="137" y="-3" type="line"/>
      <point x="148" y="-5"/>
      <point x="163" y="-8"/>
      <point x="188" y="-8" type="curve" smooth="yes"/>
      <point x="324" y="-8"/>
      <point x="387" y="183"/>
      <point x="387" y="376" type="curve" smooth="yes"/>
      <point x="387" y="500"/>
      <point x="356" y="560"/>
      <point x="292" y="560" type="curve" smooth="yes"/>
      <point x="251" y="560"/>
      <point x="227" y="537"/>
      <point x="216" y="522" type="curve"/>
      <point x="211" y="550" type="line"/>
      <point x="63" y="550" type="line"/>
    </contour>
    <contour>
      <point x="169" y="142" type="curve" smooth="yes"/>
      <point x="167" y="142"/>
      <point x="164" y="142"/>
      <point x="161" y="143" type="curve"/>
      <point x="200" y="391" type="line"/>
      <point x="202" y="392"/>
      <point x="205" y="393"/>
      <point x="209" y="393" type="curve" smooth="yes"/>
      <point x="215" y="393"/>
      <point x="221" y="390"/>
      <point x="221" y="362" type="curve" smooth="yes"/>
      <point x="221" y="263"/>
      <point x="196" y="142"/>
    </contour>
  </outline>
</glyph>
<glyph name="q" format="2">
  <advance width="397"/>
  <unicode hex="0071"/>
  <note>
12
</note>
  <outline>
    <contour>
      <point x="418" y="531" type="line"/>
      <point x="386" y="544"/>
      <point x="323" y="560"/>
      <point x="254" y="560" type="curve" smooth="yes"/>
      <point x="97" y="560"/>
      <point x="5" y="419"/>
      <point x="5" y="159" type="curve" smooth="yes"/>
      <point x="5" y="48"/>
      <point x="42" y="-10"/>
      <point x="113" y="-10" type="curve" smooth="yes"/>
      <point x="134" y="-10"/>
      <point x="158" y="0"/>
      <point x="173" y="14" type="curve"/>
      <point x="138" y="-210" type="line"/>
      <point x="298" y="-210" type="line"/>
    </contour>
    <contour>
      <point x="235" y="404" type="curve"/>
      <point x="196" y="159" type="line"/>
      <point x="193" y="157"/>
      <point x="189" y="156"/>
      <point x="187" y="156" type="curve" smooth="yes"/>
      <point x="179" y="156"/>
      <point x="176" y="167"/>
      <point x="176" y="176" type="curve" smooth="yes"/>
      <point x="176" y="267"/>
      <point x="196" y="405"/>
      <point x="228" y="405" type="curve" smooth="yes"/>
      <point x="230" y="405"/>
      <point x="232" y="405"/>
    </contour>
  </outline>
</glyph>
<glyph name="u" format="2">
  <advance width="392"/>
  <unicode hex="0075"/>
  <note>
15
</note>
  <anchor x="349" y="15" name="ogonek"/>
  <anchor x="239.556" y="550" name="top"/>
  <anchor x="382" y="550" name="topright"/>
  <anchor x="157" y="0" name="bottom"/>
  <outline>
    <contour>
      <point x="84" y="-10" type="curve" smooth="yes"/>
      <point x="124" y="-10"/>
      <point x="150" y="7"/>
      <point x="186" y="46" type="curve"/>
      <point x="197" y="15"/>
      <point x="229" y="-10"/>
      <point x="271" y="-10" type="curve" smooth="yes"/>
      <point x="299" y="-10"/>
      <point x="331" y="0"/>
      <point x="349" y="15" type="curve"/>
      <point x="371" y="158" type="line"/>
      <point x="368" y="157"/>
      <point x="364" y="157"/>
      <point x="362" y="157" type="curve" smooth="yes"/>
      <point x="355" y="157"/>
      <point x="352" y="162"/>
      <point x="352" y="173" type="curve" smooth="yes"/>
      <point x="352" y="178"/>
      <point x="353" y="186"/>
      <point x="412" y="550" type="curve"/>
      <point x="253" y="550" type="line"/>
      <point x="189" y="160" type="line"/>
      <point x="183" y="155"/>
      <point x="180" y="153"/>
      <point x="173" y="153" type="curve" smooth="yes"/>
      <point x="165" y="153"/>
      <point x="161" y="160"/>
      <point x="163" y="170" type="curve" smooth="yes"/>
      <point x="181" y="286"/>
      <point x="204" y="430"/>
      <point x="223" y="550" type="curve"/>
      <point x="63" y="550" type="line"/>
      <point x="18" y="272"/>
      <point x="-8" y="148"/>
      <point x="-8" y="84" type="curve" smooth="yes"/>
      <point x="-8" y="31"/>
      <point x="22" y="-10"/>
    </contour>
  </outline>
</glyph>
<glyph name="z" format="2">
  <advance width="351"/>
  <unicode hex="007A"/>
  <anchor x="174" y="275" name="center"/>
  <anchor x="140" y="0" name="bottom"/>
  <anchor x="218" y="550" name="top"/>
  <outline>
    <contour>
      <point x="-26" y="0" type="line"/>
      <point x="294" y="0" type="line"/>
      <point x="318" y="156" type="line"/>
      <point x="171" y="156" type="line"/>
      <point x="343" y="398" type="line"/>
      <point x="374" y="550" type="line"/>
      <point x="59" y="550" type="line"/>
      <point x="34" y="392" type="line"/>
      <point x="174" y="392" type="line"/>
      <point x="-4" y="140" type="line"/>
    </contour>
  </outline>
</glyph>
<glyph name="braceleft" format="2">
  <advance width="239"/>
  <unicode hex="007B"/>
  <outline>
    <contour>
      <point x="-17" y="-87" type="curve" smooth="yes"/>
      <point x="-17" y="-176"/>
      <point x="26" y="-210"/>
      <point x="79" y="-210" type="curve" smooth="yes"/>
      <point x="148" y="-210" type="line"/>
      <point x="174" y="-62" type="line"/>
      <point x="152" y="-62" type="line" smooth="yes"/>
      <point x="136" y="-62"/>
      <point x="129" y="-51"/>
      <point x="129" y="-30" type="curve" smooth="yes"/>
      <point x="129" y="39"/>
      <point x="178" y="95"/>
      <point x="178" y="162" type="curve" smooth="yes"/>
      <point x="178" y="201"/>
      <point x="167" y="237"/>
      <point x="141" y="265" type="curve"/>
      <point x="196" y="310"/>
      <point x="223" y="373"/>
      <point x="223" y="439" type="curve" smooth="yes"/>
      <point x="223" y="464"/>
      <point x="220" y="488"/>
      <point x="220" y="513" type="curve" smooth="yes"/>
      <point x="220" y="543"/>
      <point x="226" y="592"/>
      <point x="261" y="592" type="curve" smooth="yes"/>
      <point x="281" y="592" type="line"/>
      <point x="305" y="740" type="line"/>
      <point x="236" y="740" type="line" smooth="yes"/>
      <point x="117" y="740"/>
      <point x="80" y="617"/>
      <point x="80" y="503" type="curve" smooth="yes"/>
      <point x="80" y="470"/>
      <point x="86" y="446"/>
      <point x="86" y="413" type="curve" smooth="yes"/>
      <point x="86" y="381"/>
      <point x="82" y="343"/>
      <point x="51" y="343" type="curve" smooth="yes"/>
      <point x="37" y="343" type="line"/>
      <point x="12" y="186" type="line"/>
      <point x="26" y="186" type="line" smooth="yes"/>
      <point x="41" y="186"/>
      <point x="46" y="178"/>
      <point x="46" y="161" type="curve" smooth="yes"/>
      <point x="46" y="103"/>
      <point x="-17" y="12"/>
    </contour>
  </outline>
</glyph>
<glyph name="bar" format="2">
  <advance width="162"/>
  <unicode hex="007C"/>
  <outline>
    <contour>
      <point x="233" y="791" type="line"/>
      <point x="92" y="791" type="line"/>
      <point x="-67" y="-210" type="line"/>
      <point x="75" y="-210" type="line"/>
    </contour>
  </outline>
</glyph>
<glyph name="asciitilde" format="2">
  <advance width="389"/>
  <unicode hex="007E"/>
  <outline>
    <contour>
      <point x="331" y="237" type="curve"/>
      <point x="355" y="393" type="line"/>
      <point x="328" y="369"/>
      <point x="304" y="361"/>
      <point x="279" y="361" type="curve" smooth="yes"/>
      <point x="220" y="361"/>
      <point x="214" y="425"/>
      <point x="153" y="425" type="curve" smooth="yes"/>
      <point x="116" y="425"/>
      <point x="76" y="400"/>
      <point x="71" y="393" type="curve"/>
      <point x="47" y="237" type="line"/>
      <point x="52" y="244"/>
      <point x="92" y="269"/>
      <point x="129" y="269" type="curve" smooth="yes"/>
      <point x="190" y="269"/>
      <point x="196" y="205"/>
      <point x="255" y="205" type="curve" smooth="yes"/>
      <point x="280" y="205"/>
      <point x="304" y="213"/>
    </contour>
  </outline>
</glyph>
<glyph name="cent" format="2">
  <advance width="420"/>
  <unicode hex="00A2"/>
  <outline>
    <contour>
      <point x="102" y="-106" type="line"/>
      <point x="247" y="-106" type="line"/>
      <point x="263" y="-2" type="line"/>
      <point x="286" y="2"/>
      <point x="307" y="8"/>
      <point x="319" y="16" type="curve"/>
      <point x="319" y="192" type="line"/>
      <point x="302" y="188"/>
      <point x="283" y="182"/>
      <point x="267" y="182" type="curve" smooth="yes"/>
      <point x="241" y="182"/>
      <point x="235" y="208"/>
      <point x="235" y="236" type="curve" smooth="yes"/>
      <point x="235" y="283"/>
      <point x="242" y="367"/>
      <point x="298" y="367" type="curve" smooth="yes"/>
      <point x="313" y="367"/>
      <point x="328" y="365"/>
      <point x="340" y="360" type="curve"/>
      <point x="396" y="543" type="line"/>
      <point x="385" y="548"/>
      <point x="369" y="552"/>
      <point x="351" y="555" type="curve"/>
      <point x="367" y="654" type="line"/>
      <point x="222" y="654" type="line"/>
      <point x="204" y="541" type="line"/>
      <point x="91" y="471"/>
      <point x="60" y="275"/>
      <point x="60" y="160" type="curve" smooth="yes"/>
      <point x="60" y="78"/>
      <point x="82" y="30"/>
      <point x="119" y="7" type="curve"/>
    </contour>
  </outline>
</glyph>
<glyph name="yen" format="2">
  <advance width="420"/>
  <unicode hex="00A5"/>
  <outline>
    <contour>
      <point x="49" y="285" type="line"/>
      <point x="130" y="285" type="line"/>
      <point x="127" y="262" type="line"/>
      <point x="46" y="262" type="line"/>
      <point x="32" y="171" type="line"/>
      <point x="113" y="171" type="line"/>
      <point x="85" y="0" type="line"/>
      <point x="247" y="0" type="line"/>
      <point x="276" y="171" type="line"/>
      <point x="356" y="171" type="line"/>
      <point x="370" y="262" type="line"/>
      <point x="289" y="262" type="line"/>
      <point x="292" y="285" type="line"/>
      <point x="374" y="285" type="line"/>
      <point x="388" y="376" type="line"/>
      <point x="307" y="376" type="line"/>
      <point x="476" y="701" type="line"/>
      <point x="300" y="700" type="line"/>
      <point x="244" y="492" type="line"/>
      <point x="255" y="700" type="line"/>
      <point x="79" y="700" type="line"/>
      <point x="145" y="376" type="line"/>
      <point x="63" y="376" type="line"/>
    </contour>
  </outline>
</glyph>
<glyph name="registered" format="2">
  <advance width="614"/>
  <unicode hex="00AE"/>
  <outline>
    <contour>
      <point x="315" y="208" type="curve" smooth="yes"/>
      <point x="502" y="208"/>
      <point x="629" y="367"/>
      <point x="629" y="610" type="curve" smooth="yes"/>
      <point x="629" y="789"/>
      <point x="546" y="893"/>
      <point x="386" y="893" type="curve" smooth="yes"/>
      <point x="199" y="893"/>
      <point x="72" y="734"/>
      <point x="72" y="491" type="curve" smooth="yes"/>
      <point x="72" y="312"/>
      <point x="155" y="208"/>
    </contour>
    <contour>
      <point x="319" y="257" type="curve" smooth="yes"/>
      <point x="191" y="257"/>
      <point x="122" y="344"/>
      <point x="122" y="488" type="curve" smooth="yes"/>
      <point x="122" y="705"/>
      <point x="223" y="844"/>
      <point x="382" y="844" type="curve" smooth="yes"/>
      <point x="510" y="844"/>
      <point x="579" y="757"/>
      <point x="579" y="613" type="curve" smooth="yes"/>
      <point x="579" y="396"/>
      <point x="478" y="257"/>
    </contour>
    <contour>
      <point x="208" y="340" type="line"/>
      <point x="309" y="340" type="line"/>
      <point x="329" y="467" type="line"/>
      <point x="331" y="467"/>
      <point x="333" y="467"/>
      <point x="336" y="467" type="curve"/>
      <point x="334" y="475" type="line"/>
      <point x="426" y="475"/>
      <point x="490" y="545"/>
      <point x="490" y="655" type="curve" smooth="yes"/>
      <point x="490" y="735"/>
      <point x="448" y="781"/>
      <point x="377" y="781" type="curve" smooth="yes"/>
      <point x="337" y="781"/>
      <point x="308" y="778"/>
      <point x="277" y="774" type="curve"/>
    </contour>
    <contour>
      <point x="350" y="552" type="curve" smooth="yes"/>
      <point x="348" y="552"/>
      <point x="345" y="553"/>
      <point x="342" y="554" type="curve"/>
      <point x="364" y="684" type="line"/>
      <point x="368" y="685"/>
      <point x="372" y="686"/>
      <point x="375" y="686" type="curve" smooth="yes"/>
      <point x="385" y="686"/>
      <point x="390" y="673"/>
      <point x="390" y="655" type="curve" smooth="yes"/>
      <point x="390" y="605"/>
      <point x="369" y="552"/>
    </contour>
    <contour>
      <point x="413" y="334" type="curve" smooth="yes"/>
      <point x="421" y="334"/>
      <point x="440" y="337"/>
      <point x="448" y="341" type="curve"/>
      <point x="460" y="453" type="line"/>
      <point x="458" y="453"/>
      <point x="456" y="453"/>
      <point x="454" y="453" type="curve" smooth="yes"/>
      <point x="431" y="453"/>
      <point x="415" y="472"/>
      <point x="409" y="514" type="curve"/>
      <point x="328" y="490" type="line"/>
      <point x="350" y="341"/>
      <point x="377" y="334"/>
    </contour>
  </outline>
</glyph>
<glyph name="degree" format="2">
  <advance width="292"/>
  <unicode hex="00B0"/>
  <outline>
    <contour>
      <point x="162" y="372" type="curve" smooth="yes"/>
      <point x="276" y="372"/>
      <point x="318" y="501"/>
      <point x="318" y="589" type="curve" smooth="yes"/>
      <point x="318" y="657"/>
      <point x="291" y="710"/>
      <point x="215" y="710" type="curve" smooth="yes"/>
      <point x="102" y="710"/>
      <point x="58" y="583"/>
      <point x="58" y="495" type="curve" smooth="yes"/>
      <point x="58" y="423"/>
      <point x="90" y="372"/>
    </contour>
    <contour>
      <point x="181" y="498" type="curve" smooth="yes"/>
      <point x="170" y="498"/>
      <point x="164" y="508"/>
      <point x="164" y="525" type="curve" smooth="yes"/>
      <point x="164" y="548"/>
      <point x="172" y="580"/>
      <point x="194" y="580" type="curve" smooth="yes"/>
      <point x="206" y="580"/>
      <point x="212" y="570"/>
      <point x="212" y="554" type="curve" smooth="yes"/>
      <point x="212" y="532"/>
      <point x="203" y="498"/>
    </contour>
  </outline>
</glyph>
<glyph name="plusminus" format="2">
  <advance width="387"/>
  <unicode hex="00B1"/>
  <outline>
    <contour>
      <point x="301" y="0" type="line"/>
      <point x="326" y="160" type="line"/>
      <point x="247" y="160" type="line"/>
      <point x="260" y="241" type="line"/>
      <point x="339" y="241" type="line"/>
      <point x="364" y="401" type="line"/>
      <point x="285" y="401" type="line"/>
      <point x="299" y="489" type="line"/>
      <point x="155" y="489" type="line"/>
      <point x="141" y="401" type="line"/>
      <point x="62" y="401" type="line"/>
      <point x="37" y="241" type="line"/>
      <point x="116" y="241" type="line"/>
      <point x="103" y="160" type="line"/>
      <point x="24" y="160" type="line"/>
      <point x="-1" y="0" type="line"/>
    </contour>
  </outline>
</glyph>
<glyph name="periodcentered" format="2">
  <advance width="190"/>
  <unicode hex="00B7"/>
  <outline>
    <contour>
      <point x="12" y="288" type="curve" smooth="yes"/>
      <point x="12" y="236"/>
      <point x="34" y="211"/>
      <point x="85" y="211" type="curve" smooth="yes"/>
      <point x="170" y="211"/>
      <point x="194" y="306"/>
      <point x="194" y="371" type="curve" smooth="yes"/>
      <point x="194" y="421"/>
      <point x="172" y="446"/>
      <point x="122" y="446" type="curve" smooth="yes"/>
      <point x="38" y="446"/>
      <point x="12" y="353"/>
    </contour>
  </outline>
</glyph>
<glyph name="ordmasculine" format="2">
  <advance width="247"/>
  <unicode hex="00BA"/>
  <outline>
    <contour>
      <point x="18" y="241" type="line"/>
      <point x="223" y="241" type="line"/>
      <point x="236" y="327" type="line"/>
      <point x="31" y="327" type="line"/>
    </contour>
    <component base="o.superior" xOffset="8"/>
  </outline>
</glyph>
<glyph name="AE" format="2">
  <advance width="540"/>
  <unicode hex="00C6"/>
  <anchor x="339" y="700" name="top"/>
  <anchor x="227.444" y="0" name="bottom"/>
  <outline>
    <contour>
      <point x="186" y="0" type="line"/>
      <point x="486" y="0" type="line"/>
      <point x="511" y="158" type="line"/>
      <point x="373" y="158" type="line"/>
      <point x="391" y="274" type="line"/>
      <point x="498" y="274" type="line"/>
      <point x="523" y="422" type="line"/>
      <point x="415" y="422" type="line"/>
      <point x="433" y="537" type="line"/>
      <point x="562" y="537" type="line"/>
      <point x="589" y="700" type="line"/>
      <point x="176" y="700" type="line"/>
      <point x="-44" y="0" type="line"/>
      <point x="120" y="0" type="line"/>
      <point x="146" y="96" type="line"/>
      <point x="201" y="96" type="line"/>
    </contour>
    <contour>
      <point x="189" y="256" type="line"/>
      <point x="276" y="572" type="line"/>
      <point x="226" y="256" type="line"/>
    </contour>
  </outline>
</glyph>
<glyph name="Oslash" format="2">
  <advance width="417"/>
  <unicode hex="00D8"/>
  <anchor x="273" y="700" name="top"/>
  <outline>
    <contour>
      <point x="458" y="710" type="line"/>
      <point x="399" y="710" type="line"/>
      <point x="333" y="599" type="line"/>
      <point x="327" y="601" type="line"/>
      <point x="89" y="175" type="line"/>
      <point x="85" y="177" type="line"/>
      <point x="-20" y="0" type="line"/>
      <point x="38" y="0" type="line"/>
      <point x="107" y="116" type="line"/>
      <point x="113" y="114" type="line"/>
      <point x="346" y="529" type="line"/>
      <point x="350" y="527" type="line"/>
    </contour>
    <contour>
      <point x="179" y="-10" type="curve" smooth="yes"/>
      <point x="376" y="-10"/>
      <point x="426" y="288"/>
      <point x="426" y="507" type="curve" smooth="yes"/>
      <point x="426" y="644"/>
      <point x="380" y="710"/>
      <point x="258" y="710" type="curve" smooth="yes"/>
      <point x="68" y="710"/>
      <point x="11" y="412"/>
      <point x="11" y="193" type="curve" smooth="yes"/>
      <point x="11" y="56"/>
      <point x="57" y="-10"/>
    </contour>
    <contour>
      <point x="191" y="152" type="curve" smooth="yes"/>
      <point x="173" y="152"/>
      <point x="166" y="163"/>
      <point x="166" y="187" type="curve" smooth="yes"/>
      <point x="166" y="267"/>
      <point x="208" y="548"/>
      <point x="251" y="548" type="curve" smooth="yes"/>
      <point x="267" y="548"/>
      <point x="273" y="537"/>
      <point x="273" y="516" type="curve" smooth="yes"/>
      <point x="273" y="444"/>
      <point x="228" y="152"/>
    </contour>
  </outline>
</glyph>
<glyph name="Thorn" format="2">
  <advance width="407"/>
  <unicode hex="00DE"/>
  <outline>
    <contour>
      <point x="-22" y="0" type="line"/>
      <point x="140" y="0" type="line"/>
      <point x="152" y="77" type="line"/>
      <point x="178" y="73"/>
      <point x="181" y="73"/>
      <point x="201" y="73" type="curve" smooth="yes"/>
      <point x="323" y="73"/>
      <point x="417" y="235"/>
      <point x="417" y="436" type="curve" smooth="yes"/>
      <point x="417" y="559"/>
      <point x="371" y="630"/>
      <point x="254" y="630" type="curve" smooth="yes"/>
      <point x="250" y="630"/>
      <point x="245" y="630"/>
      <point x="241" y="630" type="curve"/>
      <point x="252" y="700" type="line"/>
      <point x="90" y="700" type="line"/>
    </contour>
    <contour>
      <point x="194" y="228" type="curve" smooth="yes"/>
      <point x="190" y="228"/>
      <point x="186" y="228"/>
      <point x="180" y="230" type="curve"/>
      <point x="215" y="472" type="line"/>
      <point x="221" y="474"/>
      <point x="227" y="475"/>
      <point x="232" y="475" type="curve" smooth="yes"/>
      <point x="248" y="475"/>
      <point x="259" y="464"/>
      <point x="259" y="428" type="curve" smooth="yes"/>
      <point x="259" y="318"/>
      <point x="230" y="228"/>
    </contour>
  </outline>
</glyph>
<glyph name="germandbls" format="2">
  <advance width="559"/>
  <unicode hex="00DF"/>
  <outline>
    <contour>
      <point x="0" y="2" type="line" smooth="yes"/>
      <point x="-7" y="-40"/>
      <point x="-22" y="-52"/>
      <point x="-41" y="-52" type="curve" smooth="yes"/>
      <point x="-49" y="-52"/>
      <point x="-57" y="-52"/>
      <point x="-72" y="-47" type="curve"/>
      <point x="-119" y="-202" type="line"/>
      <point x="-88" y="-214"/>
      <point x="-59" y="-220"/>
      <point x="-31" y="-220" type="curve" smooth="yes"/>
      <point x="83" y="-220"/>
      <point x="137" y="-151"/>
      <point x="161" y="0" type="curve" smooth="yes"/>
      <point x="239" y="501" type="line" smooth="yes"/>
      <point x="247" y="552"/>
      <point x="279" y="586"/>
      <point x="333" y="586" type="curve" smooth="yes"/>
      <point x="372" y="586"/>
      <point x="388" y="575"/>
      <point x="388" y="559" type="curve" smooth="yes"/>
      <point x="388" y="541"/>
      <point x="380" y="531"/>
      <point x="332" y="508" type="curve" smooth="yes"/>
      <point x="277" y="481"/>
      <point x="238" y="433"/>
      <point x="238" y="348" type="curve" smooth="yes"/>
      <point x="238" y="267"/>
      <point x="280" y="234"/>
      <point x="329" y="212" type="curve" smooth="yes"/>
      <point x="368" y="194"/>
      <point x="374" y="188"/>
      <point x="374" y="176" type="curve" smooth="yes"/>
      <point x="374" y="162"/>
      <point x="355" y="151"/>
      <point x="320" y="151" type="curve" smooth="yes"/>
      <point x="288" y="151"/>
      <point x="255" y="157"/>
      <point x="226" y="166" type="curve"/>
      <point x="188" y="18" type="line"/>
      <point x="218" y="3"/>
      <point x="261" y="-10"/>
      <point x="324" y="-10" type="curve" smooth="yes"/>
      <point x="468" y="-10"/>
      <point x="543" y="64"/>
      <point x="543" y="193" type="curve" smooth="yes"/>
      <point x="543" y="274"/>
      <point x="505" y="311"/>
      <point x="455" y="332" type="curve" smooth="yes"/>
      <point x="406" y="353"/>
      <point x="397" y="358"/>
      <point x="397" y="373" type="curve" smooth="yes"/>
      <point x="397" y="386"/>
      <point x="405" y="396"/>
      <point x="460" y="415" type="curve" smooth="yes"/>
      <point x="519" y="436"/>
      <point x="565" y="480"/>
      <point x="565" y="576" type="curve" smooth="yes"/>
      <point x="565" y="684"/>
      <point x="484" y="750"/>
      <point x="347" y="750" type="curve" smooth="yes"/>
      <point x="184" y="750"/>
      <point x="104" y="666"/>
      <point x="83" y="529" type="curve"/>
      <point x="83" y="529" type="line"/>
      <point x="44" y="522" type="line"/>
      <point x="20" y="379" type="line"/>
      <point x="59" y="379" type="line"/>
    </contour>
  </outline>
</glyph>
<glyph name="eth" format="2">
  <advance width="390"/>
  <unicode hex="00F0"/>
  <outline>
    <contour>
      <point x="248" y="394" type="curve"/>
      <point x="277" y="519" type="line"/>
      <point x="255" y="531"/>
      <point x="224" y="538"/>
      <point x="199" y="538" type="curve" smooth="yes"/>
      <point x="59" y="538"/>
      <point x="2" y="342"/>
      <point x="2" y="175" type="curve" smooth="yes"/>
      <point x="2" y="51"/>
      <point x="64" y="-9"/>
      <point x="161" y="-9" type="curve" smooth="yes"/>
      <point x="308" y="-9"/>
      <point x="346" y="70"/>
      <point x="388" y="334" type="curve" smooth="yes"/>
      <point x="396" y="384"/>
      <point x="400" y="430"/>
      <point x="400" y="471" type="curve" smooth="yes"/>
      <point x="400" y="643"/>
      <point x="334" y="753"/>
      <point x="192" y="753" type="curve" smooth="yes"/>
      <point x="132" y="753"/>
      <point x="93" y="742"/>
      <point x="64" y="731" type="curve"/>
      <point x="73" y="617" type="line"/>
      <point x="91" y="621"/>
      <point x="114" y="626"/>
      <point x="137" y="626" type="curve" smooth="yes"/>
      <point x="212" y="626"/>
      <point x="240" y="592"/>
      <point x="240" y="512" type="curve" smooth="yes"/>
      <point x="240" y="478"/>
      <point x="235" y="434"/>
      <point x="226" y="378" type="curve" smooth="yes"/>
      <point x="190" y="143"/>
      <point x="180" y="119"/>
      <point x="167" y="119" type="curve" smooth="yes"/>
      <point x="161" y="119"/>
      <point x="159" y="123"/>
      <point x="159" y="137" type="curve" smooth="yes"/>
      <point x="159" y="194"/>
      <point x="185" y="402"/>
      <point x="222" y="402" type="curve" smooth="yes"/>
      <point x="228" y="402"/>
      <point x="237" y="399"/>
    </contour>
    <contour>
      <point x="169" y="553" type="line"/>
      <point x="281" y="625" type="line"/>
      <point x="276" y="628" type="line"/>
      <point x="464" y="749" type="line"/>
      <point x="345" y="750" type="line"/>
      <point x="245" y="686" type="line"/>
      <point x="246" y="680" type="line"/>
      <point x="50" y="554" type="line"/>
    </contour>
  </outline>
</glyph>
<glyph name="divide" format="2">
  <advance width="387"/>
  <unicode hex="00F7"/>
  <outline>
    <contour>
      <point x="87" y="104" type="curve" smooth="yes"/>
      <point x="87" y="62"/>
      <point x="109" y="40"/>
      <point x="157" y="40" type="curve" smooth="yes"/>
      <point x="217" y="40"/>
      <point x="253" y="79"/>
      <point x="253" y="154" type="curve" smooth="yes"/>
      <point x="253" y="196"/>
      <point x="231" y="217"/>
      <point x="185" y="217" type="curve" smooth="yes"/>
      <point x="118" y="217"/>
      <point x="87" y="162"/>
    </contour>
    <contour>
      <point x="151" y="506" type="curve" smooth="yes"/>
      <point x="151" y="464"/>
      <point x="172" y="443"/>
      <point x="220" y="443" type="curve" smooth="yes"/>
      <point x="280" y="443"/>
      <point x="317" y="482"/>
      <point x="317" y="556" type="curve" smooth="yes"/>
      <point x="317" y="599"/>
      <point x="294" y="620"/>
      <point x="248" y="620" type="curve" smooth="yes"/>
      <point x="178" y="620"/>
      <point x="151" y="560"/>
    </contour>
    <contour>
      <point x="39" y="251" type="line"/>
      <point x="341" y="251" type="line"/>
      <point x="366" y="411" type="line"/>
      <point x="64" y="411" type="line"/>
    </contour>
  </outline>
</glyph>
<glyph name="oslash" format="2">
  <advance width="390"/>
  <unicode hex="00F8"/>
  <anchor x="225" y="550" name="top"/>
  <outline>
    <contour>
      <point x="370" y="561" type="line"/>
      <point x="300" y="464" type="line"/>
      <point x="295" y="466" type="line"/>
      <point x="90" y="177" type="line"/>
      <point x="86" y="179" type="line"/>
      <point x="-51" y="-10" type="line"/>
      <point x="15" y="-10" type="line"/>
      <point x="85" y="88" type="line"/>
      <point x="90" y="86" type="line"/>
      <point x="303" y="384" type="line"/>
      <point x="307" y="382" type="line"/>
      <point x="437" y="561" type="line"/>
    </contour>
    <contour>
      <point x="167" y="-10" type="curve" smooth="yes"/>
      <point x="327" y="-10"/>
      <point x="381" y="179"/>
      <point x="381" y="390" type="curve" smooth="yes"/>
      <point x="381" y="502"/>
      <point x="339" y="561"/>
      <point x="219" y="561" type="curve" smooth="yes"/>
      <point x="59" y="561"/>
      <point x="5" y="372"/>
      <point x="5" y="161" type="curve" smooth="yes"/>
      <point x="5" y="49"/>
      <point x="47" y="-10"/>
    </contour>
    <contour>
      <point x="171" y="141" type="curve" smooth="yes"/>
      <point x="160" y="141"/>
      <point x="153" y="149"/>
      <point x="153" y="163" type="curve" smooth="yes"/>
      <point x="153" y="197"/>
      <point x="180" y="410"/>
      <point x="215" y="410" type="curve" smooth="yes"/>
      <point x="226" y="410"/>
      <point x="233" y="402"/>
      <point x="233" y="388" type="curve" smooth="yes"/>
      <point x="233" y="354"/>
      <point x="206" y="141"/>
    </contour>
  </outline>
</glyph>
<glyph name="hbar" format="2">
  <advance width="402"/>
  <unicode hex="0127"/>
  <outline>
    <contour>
      <point x="55" y="614" type="line"/>
      <point x="302" y="614" type="line"/>
      <point x="317" y="710" type="line"/>
      <point x="70" y="710" type="line"/>
    </contour>
    <component base="h" xOffset="8"/>
  </outline>
</glyph>
<glyph name="Ldot" format="2">
  <advance width="318"/>
  <unicode hex="013F"/>
  <outline>
    <contour>
      <point x="220.998" y="368.962" type="curve" smooth="yes"/>
      <point x="220.998" y="334.302"/>
      <point x="235.662" y="317.639"/>
      <point x="269.655" y="317.639" type="curve" smooth="yes"/>
      <point x="326.311" y="317.639"/>
      <point x="342.308" y="380.959"/>
      <point x="342.308" y="424.284" type="curve" smooth="yes"/>
      <point x="342.308" y="457.611"/>
      <point x="327.644" y="474.274"/>
      <point x="294.317" y="474.274" type="curve" smooth="yes"/>
      <point x="238.328" y="474.274"/>
      <point x="220.998" y="412.287"/>
    </contour>
    <component base="L"/>
  </outline>
</glyph>
<glyph name="Lslash" format="2">
  <advance width="344"/>
  <unicode hex="0141"/>
  <outline>
    <contour>
      <point x="4" y="0" type="line"/>
      <point x="290" y="0" type="line"/>
      <point x="315" y="158" type="line"/>
      <point x="190" y="158" type="line"/>
      <point x="217" y="330" type="line"/>
      <point x="302" y="370" type="line"/>
      <point x="331" y="540" type="line"/>
      <point x="244" y="499" type="line"/>
      <point x="277" y="700" type="line"/>
      <point x="116" y="700" type="line"/>
      <point x="70" y="417" type="line"/>
      <point x="25" y="395" type="line"/>
      <point x="-1" y="225" type="line"/>
      <point x="43" y="247" type="line"/>
    </contour>
  </outline>
</glyph>
<glyph name="Eng" format="2">
  <advance width="423"/>
  <unicode hex="014A"/>
  <outline>
    <contour>
      <point x="-22" y="0" type="line"/>
      <point x="123" y="0" type="line"/>
      <point x="170" y="287" type="line"/>
      <point x="193" y="-9" type="line"/>
      <point x="189" y="-29"/>
      <point x="183" y="-35"/>
      <point x="176" y="-35" type="curve" smooth="yes"/>
      <point x="171" y="-35"/>
      <point x="167" y="-35"/>
      <point x="165" y="-35" type="curve"/>
      <point x="137" y="-217" type="line"/>
      <point x="146" y="-219"/>
      <point x="159" y="-219"/>
      <point x="175" y="-219" type="curve" smooth="yes"/>
      <point x="264" y="-213"/>
      <point x="334" y="-151"/>
      <point x="355" y="-16" type="curve" smooth="yes"/>
      <point x="468" y="700" type="line"/>
      <point x="323" y="700" type="line"/>
      <point x="269" y="378" type="line"/>
      <point x="252" y="700" type="line"/>
      <point x="89" y="700" type="line"/>
    </contour>
  </outline>
</glyph>
<glyph name="tbar" format="2">
  <advance width="251"/>
  <unicode hex="0167"/>
  <outline>
    <contour>
      <point x="-5" y="238" type="line"/>
      <point x="234" y="238" type="line"/>
      <point x="256" y="363" type="line"/>
      <point x="16" y="363" type="line"/>
    </contour>
    <contour>
      <point x="222" y="157" type="line"/>
      <point x="214" y="155"/>
      <point x="209" y="154"/>
      <point x="204" y="154" type="curve" smooth="yes"/>
      <point x="185" y="154"/>
      <point x="180" y="167"/>
      <point x="180" y="183" type="curve" smooth="yes"/>
      <point x="180" y="190"/>
      <point x="181" y="198"/>
      <point x="182" y="207" type="curve" smooth="yes"/>
      <point x="214" y="400" type="line"/>
      <point x="263" y="400" type="line"/>
      <point x="289" y="550" type="line"/>
      <point x="240" y="550" type="line"/>
      <point x="256" y="654" type="line"/>
      <point x="116" y="654" type="line"/>
      <point x="79" y="550" type="line"/>
      <point x="45" y="544" type="line"/>
      <point x="20" y="401" type="line"/>
      <point x="53" y="401" type="line"/>
      <point x="18" y="186" type="line" smooth="yes"/>
      <point x="13" y="155"/>
      <point x="8" y="111"/>
      <point x="8" y="88" type="curve" smooth="yes"/>
      <point x="8" y="6"/>
      <point x="63" y="-10"/>
      <point x="103" y="-10" type="curve" smooth="yes"/>
      <point x="142" y="-10"/>
      <point x="176" y="-2"/>
      <point x="202" y="15" type="curve"/>
    </contour>
  </outline>
</glyph>
<glyph name="uni0237" format="2">
  <advance width="202"/>
  <unicode hex="0237"/>
  <anchor x="144" y="550" name="top"/>
  <anchor x="-26" y="-210" name="bottom"/>
  <outline>
    <contour>
      <point x="227" y="550" type="line"/>
      <point x="64" y="550" type="line"/>
      <point x="-19" y="31" type="line" smooth="yes"/>
      <point x="-26" y="-11"/>
      <point x="-40" y="-29"/>
      <point x="-59" y="-29" type="curve" smooth="yes"/>
      <point x="-67" y="-29"/>
      <point x="-74" y="-29"/>
      <point x="-87" y="-24" type="curve"/>
      <point x="-136" y="-204" type="line"/>
      <point x="-105" y="-216"/>
      <point x="-69" y="-220"/>
      <point x="-46" y="-220" type="curve" smooth="yes"/>
      <point x="68" y="-220"/>
      <point x="114" y="-152"/>
      <point x="139" y="5" type="curve" smooth="yes"/>
    </contour>
  </outline>
</glyph>
<glyph name="gravecomb" format="2">
  <unicode hex="0300"/>
  <anchor x="-151" y="789" name="top"/>
  <anchor x="-163" y="550" name="_top"/>
  <outline>
    <contour>
      <point x="-201" y="595" type="line"/>
      <point x="-78" y="595" type="line"/>
      <point x="-93" y="789" type="line"/>
      <point x="-254" y="789" type="line"/>
    </contour>
  </outline>
</glyph>
<glyph name="tildecomb" format="2">
  <unicode hex="0303"/>
  <anchor x="-127" y="771" name="top"/>
  <anchor x="-163" y="550" name="_top"/>
  <outline>
    <contour>
      <point x="-301" y="595" type="curve"/>
      <point x="-212" y="595" type="line"/>
      <point x="-211" y="600" type="line" smooth="yes"/>
      <point x="-209" y="614"/>
      <point x="-200" y="633"/>
      <point x="-187" y="633" type="curve" smooth="yes"/>
      <point x="-159" y="633"/>
      <point x="-141" y="602"/>
      <point x="-100" y="602" type="curve" smooth="yes"/>
      <point x="-42" y="602"/>
      <point x="-4" y="637"/>
      <point x="12" y="731" type="curve" smooth="yes"/>
      <point x="14" y="746"/>
      <point x="16" y="763"/>
      <point x="18" y="781" type="curve"/>
      <point x="-71" y="781" type="line"/>
      <point x="-72" y="776" type="line" smooth="yes"/>
      <point x="-74" y="762"/>
      <point x="-83" y="743"/>
      <point x="-96" y="743" type="curve" smooth="yes"/>
      <point x="-124" y="743"/>
      <point x="-142" y="774"/>
      <point x="-183" y="774" type="curve" smooth="yes"/>
      <point x="-241" y="774"/>
      <point x="-279" y="739"/>
      <point x="-295" y="645" type="curve" smooth="yes"/>
      <point x="-297" y="630"/>
      <point x="-299" y="613"/>
    </contour>
  </outline>
</glyph>
<glyph name="uni0304" format="2">
  <unicode hex="0304"/>
  <anchor x="-131" y="754" name="top"/>
  <anchor x="-163" y="550" name="_top"/>
  <outline>
    <contour>
      <point x="-273" y="600" type="line"/>
      <point x="-38" y="600" type="line"/>
      <point x="-18" y="734" type="line"/>
      <point x="-252" y="734" type="line"/>
    </contour>
  </outline>
</glyph>
<glyph name="uni0307" format="2">
  <unicode hex="0307"/>
  <anchor x="-127" y="749" name="top"/>
  <anchor x="-163" y="550" name="_top"/>
  <outline>
    <contour>
      <point x="-157" y="589" type="curve" smooth="yes"/>
      <point x="-92" y="589"/>
      <point x="-73" y="655"/>
      <point x="-73" y="707" type="curve" smooth="yes"/>
      <point x="-73" y="751"/>
      <point x="-97" y="763"/>
      <point x="-130" y="763" type="curve" smooth="yes"/>
      <point x="-194" y="763"/>
      <point x="-214" y="695"/>
      <point x="-214" y="644" type="curve" smooth="yes"/>
      <point x="-214" y="600"/>
      <point x="-190" y="589"/>
    </contour>
  </outline>
</glyph>
<glyph name="uni0308" format="2">
  <unicode hex="0308"/>
  <anchor x="-133" y="749" name="top"/>
  <anchor x="-163" y="550" name="_top"/>
  <outline>
    <contour>
      <point x="-77" y="595" type="curve" smooth="yes"/>
      <point x="-37" y="595"/>
      <point x="-7" y="611"/>
      <point x="4" y="681" type="curve" smooth="yes"/>
      <point x="16" y="752"/>
      <point x="-8" y="769"/>
      <point x="-48" y="769" type="curve" smooth="yes"/>
      <point x="-87" y="769"/>
      <point x="-118" y="752"/>
      <point x="-130" y="681" type="curve" smooth="yes"/>
      <point x="-141" y="611"/>
      <point x="-114" y="595"/>
    </contour>
    <contour>
      <point x="-236" y="595" type="curve" smooth="yes"/>
      <point x="-196" y="595"/>
      <point x="-165" y="611"/>
      <point x="-154" y="681" type="curve" smooth="yes"/>
      <point x="-142" y="752"/>
      <point x="-169" y="769"/>
      <point x="-207" y="769" type="curve" smooth="yes"/>
      <point x="-246" y="769"/>
      <point x="-276" y="752"/>
      <point x="-288" y="681" type="curve" smooth="yes"/>
      <point x="-299" y="611"/>
      <point x="-275" y="595"/>
    </contour>
  </outline>
</glyph>
<glyph name="uni031B" format="2">
  <unicode hex="031B"/>
  <anchor x="-96" y="550" name="_topright"/>
  <anchor x="81" y="655" name="topright"/>
  <outline>
    <contour>
      <point x="-145" y="428" type="line"/>
      <point x="-125" y="428" type="line"/>
      <point x="-15" y="428"/>
      <point x="53" y="495"/>
      <point x="61" y="655" type="curve"/>
      <point x="-74" y="655" type="line"/>
      <point x="-84" y="569"/>
      <point x="-96" y="550"/>
      <point x="-133" y="550" type="curve"/>
      <point x="-146" y="550" type="line"/>
    </contour>
  </outline>
</glyph>
<glyph name="uni0326" format="2">
  <unicode hex="0326"/>
  <anchor x="-239" y="0" name="_bottom"/>
  <anchor x="-280" y="-186" name="bottom"/>
  <outline>
    <contour>
      <point x="-316" y="-39" type="line"/>
      <point x="-316" y="-49"/>
      <point x="-317" y="-60"/>
      <point x="-319" y="-71" type="curve" smooth="yes"/>
      <point x="-327" y="-115"/>
      <point x="-338" y="-159"/>
      <point x="-364" y="-206" type="curve"/>
      <point x="-251" y="-206" type="line"/>
      <point x="-212" y="-166"/>
      <point x="-190" y="-112"/>
      <point x="-175" y="-51" type="curve" smooth="yes"/>
      <point x="-174" y="-47"/>
      <point x="-173" y="-43"/>
      <point x="-173" y="-39" type="curve"/>
    </contour>
  </outline>
</glyph>
<glyph name="dagger" format="2">
  <advance width="372"/>
  <unicode hex="2020"/>
  <outline>
    <contour>
      <point x="23" y="-210" type="line"/>
      <point x="190" y="-210" type="line"/>
      <point x="284" y="372" type="line"/>
      <point x="363" y="372" type="line"/>
      <point x="391" y="550" type="line"/>
      <point x="313" y="550" type="line"/>
      <point x="343" y="740" type="line"/>
      <point x="176" y="740" type="line"/>
      <point x="145" y="550" type="line"/>
      <point x="68" y="550" type="line"/>
      <point x="39" y="372" type="line"/>
      <point x="117" y="372" type="line"/>
    </contour>
  </outline>
</glyph>
<glyph name="daggerdbl" format="2">
  <advance width="372"/>
  <unicode hex="2021"/>
  <outline>
    <contour>
      <point x="302" y="-10" type="line"/>
      <point x="331" y="168" type="line"/>
      <point x="252" y="168" type="line"/>
      <point x="286" y="372" type="line"/>
      <point x="365" y="372" type="line"/>
      <point x="393" y="550" type="line"/>
      <point x="315" y="550" type="line"/>
      <point x="345" y="740" type="line"/>
      <point x="178" y="740" type="line"/>
      <point x="147" y="550" type="line"/>
      <point x="70" y="550" type="line"/>
      <point x="41" y="372" type="line"/>
      <point x="119" y="372" type="line"/>
      <point x="85" y="168" type="line"/>
      <point x="8" y="168" type="line"/>
      <point x="-21" y="-10" type="line"/>
      <point x="57" y="-10" type="line"/>
      <point x="25" y="-210" type="line"/>
      <point x="192" y="-210" type="line"/>
      <point x="224" y="-10" type="line"/>
    </contour>
  </outline>
</glyph>
<glyph name="bullet" format="2">
  <advance width="400"/>
  <unicode hex="2022"/>
  <outline>
    <contour>
      <point x="176" y="134" type="curve" smooth="yes"/>
      <point x="277" y="134"/>
      <point x="355" y="230"/>
      <point x="355" y="320" type="curve" smooth="yes"/>
      <point x="355" y="396"/>
      <point x="304" y="454"/>
      <point x="231" y="454" type="curve" smooth="yes"/>
      <point x="131" y="454"/>
      <point x="51" y="357"/>
      <point x="51" y="268" type="curve" smooth="yes"/>
      <point x="51" y="193"/>
      <point x="103" y="134"/>
    </contour>
  </outline>
</glyph>
<glyph name="guilsinglleft" format="2">
  <advance width="227"/>
  <unicode hex="2039"/>
  <outline>
    <contour>
      <point x="169" y="-11" type="line"/>
      <point x="209" y="225" type="line"/>
      <point x="108" y="273" type="line"/>
      <point x="222" y="312" type="line"/>
      <point x="262" y="548" type="line"/>
      <point x="34" y="420" type="line"/>
      <point x="-17" y="116" type="line"/>
    </contour>
  </outline>
</glyph>
<glyph name="fraction" format="2">
  <advance width="74"/>
  <unicode hex="2044"/>
  <outline>
    <contour>
      <point x="-96" y="0" type="line"/>
      <point x="288" y="700" type="line"/>
      <point x="191" y="700" type="line"/>
      <point x="-191" y="0" type="line"/>
    </contour>
  </outline>
</glyph>
<glyph name="uni2052" format="2">
  <advance width="420"/>
  <unicode hex="2052"/>
  <outline>
    <contour>
      <point x="-43" y="0" type="line"/>
      <point x="104" y="0" type="line"/>
      <point x="486" y="700" type="line"/>
      <point x="339" y="700" type="line"/>
    </contour>
    <component base="period" xOffset="73" yOffset="478"/>
    <component base="period" xOffset="231"/>
  </outline>
</glyph>
<glyph name="uni2070" format="2">
  <advance width="274"/>
  <unicode hex="2070"/>
  <outline>
    <contour>
      <point x="55" y="470" type="curve" smooth="yes"/>
      <point x="55" y="401"/>
      <point x="90" y="366"/>
      <point x="145" y="366" type="curve" smooth="yes"/>
      <point x="250" y="366"/>
      <point x="313" y="504"/>
      <point x="313" y="673" type="curve" smooth="yes"/>
      <point x="313" y="742"/>
      <point x="278" y="777"/>
      <point x="223" y="777" type="curve" smooth="yes"/>
      <point x="117" y="777"/>
      <point x="55" y="639"/>
    </contour>
    <contour>
      <point x="206" y="679" type="curve" smooth="yes"/>
      <point x="211" y="679"/>
      <point x="212" y="676"/>
      <point x="212" y="662" type="curve" smooth="yes"/>
      <point x="212" y="610"/>
      <point x="178" y="464"/>
      <point x="162" y="464" type="curve" smooth="yes"/>
      <point x="157" y="464"/>
      <point x="156" y="467"/>
      <point x="156" y="481" type="curve" smooth="yes"/>
      <point x="156" y="533"/>
      <point x="190" y="679"/>
    </contour>
  </outline>
</glyph>
<glyph name="uni2075" format="2">
  <advance width="255"/>
  <unicode hex="2075"/>
  <outline>
    <contour>
      <point x="33" y="388" type="line"/>
      <point x="57" y="373"/>
      <point x="82" y="366"/>
      <point x="125" y="366" type="curve" smooth="yes"/>
      <point x="228" y="366"/>
      <point x="271" y="446"/>
      <point x="271" y="529" type="curve" smooth="yes"/>
      <point x="271" y="580"/>
      <point x="247" y="615"/>
      <point x="206" y="618" type="curve" smooth="yes"/>
      <point x="193" y="619" type="line"/>
      <point x="208" y="678" type="line"/>
      <point x="292" y="678" type="line"/>
      <point x="308" y="776" type="line"/>
      <point x="143" y="776" type="line"/>
      <point x="80" y="542" type="line"/>
      <point x="83" y="535" type="line"/>
      <point x="130" y="535" type="line" smooth="yes"/>
      <point x="154" y="535"/>
      <point x="165" y="528"/>
      <point x="165" y="504" type="curve" smooth="yes"/>
      <point x="165" y="487"/>
      <point x="153" y="470"/>
      <point x="118" y="470" type="curve" smooth="yes"/>
      <point x="96" y="470"/>
      <point x="81" y="474"/>
      <point x="69" y="480" type="curve"/>
    </contour>
  </outline>
</glyph>
<glyph name="uni2078" format="2">
  <advance width="291"/>
  <unicode hex="2078"/>
  <outline>
    <contour>
      <point x="166" y="366" type="curve" smooth="yes"/>
      <point x="244" y="366"/>
      <point x="294" y="423"/>
      <point x="294" y="495" type="curve" smooth="yes"/>
      <point x="294" y="595"/>
      <point x="197" y="608"/>
      <point x="197" y="662" type="curve" smooth="yes"/>
      <point x="197" y="675"/>
      <point x="204" y="685"/>
      <point x="212" y="685" type="curve" smooth="yes"/>
      <point x="221" y="685"/>
      <point x="225" y="679"/>
      <point x="225" y="664" type="curve" smooth="yes"/>
      <point x="225" y="644"/>
      <point x="217" y="631"/>
      <point x="202" y="619" type="curve"/>
      <point x="247" y="579" type="line"/>
      <point x="287" y="598"/>
      <point x="322" y="635"/>
      <point x="322" y="689" type="curve" smooth="yes"/>
      <point x="322" y="733"/>
      <point x="290" y="776"/>
      <point x="224" y="776" type="curve" smooth="yes"/>
      <point x="146" y="776"/>
      <point x="97" y="723"/>
      <point x="97" y="651" type="curve" smooth="yes"/>
      <point x="97" y="548"/>
      <point x="192" y="530"/>
      <point x="192" y="482" type="curve" smooth="yes"/>
      <point x="192" y="460"/>
      <point x="183" y="454"/>
      <point x="173" y="454" type="curve" smooth="yes"/>
      <point x="161" y="454"/>
      <point x="157" y="466"/>
      <point x="157" y="479" type="curve" smooth="yes"/>
      <point x="157" y="505"/>
      <point x="172" y="517"/>
      <point x="186" y="524" type="curve"/>
      <point x="139" y="579" type="line"/>
      <point x="84" y="552"/>
      <point x="56" y="512"/>
      <point x="56" y="464" type="curve" smooth="yes"/>
      <point x="56" y="406"/>
      <point x="100" y="366"/>
    </contour>
  </outline>
</glyph>
<glyph name="uni207A" format="2">
  <advance width="243"/>
  <unicode hex="207A"/>
  <outline>
    <contour>
      <point x="109" y="458" type="line"/>
      <point x="191" y="458" type="line"/>
      <point x="199" y="508" type="line"/>
      <point x="244" y="508" type="line"/>
      <point x="259" y="600" type="line"/>
      <point x="214" y="600" type="line"/>
      <point x="222" y="650" type="line"/>
      <point x="140" y="650" type="line"/>
      <point x="132" y="600" type="line"/>
      <point x="87" y="600" type="line"/>
      <point x="72" y="508" type="line"/>
      <point x="117" y="508" type="line"/>
    </contour>
  </outline>
</glyph>
<glyph name="uni207B" format="2">
  <advance width="243"/>
  <unicode hex="207B"/>
  <outline>
    <contour>
      <point x="72" y="508" type="line"/>
      <point x="244" y="508" type="line"/>
      <point x="259" y="600" type="line"/>
      <point x="87" y="600" type="line"/>
    </contour>
  </outline>
</glyph>
<glyph name="uni207D" format="2">
  <advance width="157"/>
  <unicode hex="207D"/>
  <outline>
    <contour>
      <point x="59" y="430" type="curve" smooth="yes"/>
      <point x="59" y="343"/>
      <point x="83" y="290"/>
      <point x="141" y="281" type="curve"/>
      <point x="156" y="371" type="line"/>
      <point x="141" y="382"/>
      <point x="132" y="396"/>
      <point x="132" y="436" type="curve" smooth="yes"/>
      <point x="132" y="509"/>
      <point x="153" y="704"/>
      <point x="217" y="743" type="curve"/>
      <point x="231" y="833" type="line"/>
      <point x="90" y="799"/>
      <point x="59" y="542"/>
    </contour>
  </outline>
</glyph>
<glyph name="uni207E" format="2">
  <advance width="157"/>
  <unicode hex="207E"/>
  <outline>
    <contour>
      <point x="188" y="691" type="curve" smooth="yes"/>
      <point x="188" y="779"/>
      <point x="164" y="832"/>
      <point x="106" y="841" type="curve"/>
      <point x="90" y="751" type="line"/>
      <point x="105" y="740"/>
      <point x="114" y="726"/>
      <point x="114" y="686" type="curve" smooth="yes"/>
      <point x="114" y="610"/>
      <point x="95" y="420"/>
      <point x="30" y="379" type="curve"/>
      <point x="16" y="289" type="line"/>
      <point x="158" y="311"/>
      <point x="188" y="578"/>
    </contour>
  </outline>
</glyph>
<glyph name="n.superior" format="2">
  <advance width="267"/>
  <unicode hex="207F"/>
  <outline>
    <contour>
      <point x="219" y="364" type="curve" smooth="yes"/>
      <point x="235" y="364"/>
      <point x="258" y="367"/>
      <point x="274" y="378" type="curve"/>
      <point x="287" y="460" type="line"/>
      <point x="285" y="460"/>
      <point x="284" y="460"/>
      <point x="282" y="460" type="curve" smooth="yes"/>
      <point x="278" y="460"/>
      <point x="275" y="461"/>
      <point x="275" y="465" type="curve" smooth="yes"/>
      <point x="275" y="470"/>
      <point x="303" y="621"/>
      <point x="303" y="637" type="curve" smooth="yes"/>
      <point x="303" y="671"/>
      <point x="289" y="690"/>
      <point x="254" y="690" type="curve" smooth="yes"/>
      <point x="234" y="690"/>
      <point x="201" y="683"/>
      <point x="174" y="660" type="curve"/>
      <point x="178" y="683" type="line"/>
      <point x="81" y="683" type="line"/>
      <point x="31" y="370" type="line"/>
      <point x="138" y="370" type="line"/>
      <point x="171" y="578" type="line"/>
      <point x="175" y="580"/>
      <point x="177" y="582"/>
      <point x="180" y="582" type="curve" smooth="yes"/>
      <point x="184" y="582"/>
      <point x="186" y="579"/>
      <point x="186" y="576" type="curve" smooth="yes"/>
      <point x="186" y="561"/>
      <point x="162" y="444"/>
      <point x="162" y="414" type="curve" smooth="yes"/>
      <point x="162" y="387"/>
      <point x="185" y="364"/>
    </contour>
  </outline>
</glyph>
<glyph name="colonmonetary" format="2">
  <advance width="420"/>
  <unicode hex="20A1"/>
  <outline>
    <contour>
      <point x="264" y="-10" type="curve" smooth="yes"/>
      <point x="302" y="-10"/>
      <point x="333" y="-7"/>
      <point x="363" y="4" type="curve"/>
      <point x="359" y="153" type="line"/>
      <point x="342" y="149"/>
      <point x="320" y="146"/>
      <point x="306" y="146" type="curve" smooth="yes"/>
      <point x="244" y="146"/>
      <point x="207" y="173"/>
      <point x="207" y="287" type="curve" smooth="yes"/>
      <point x="207" y="423"/>
      <point x="261" y="554"/>
      <point x="363" y="554" type="curve" smooth="yes"/>
      <point x="384" y="554"/>
      <point x="400" y="550"/>
      <point x="417" y="543" type="curve"/>
      <point x="469" y="682" type="line"/>
      <point x="440" y="698"/>
      <point x="396" y="710"/>
      <point x="352" y="710" type="curve" smooth="yes"/>
      <point x="153" y="710"/>
      <point x="44" y="530"/>
      <point x="44" y="258" type="curve" smooth="yes"/>
      <point x="44" y="78"/>
      <point x="126" y="-10"/>
    </contour>
    <contour>
      <point x="242" y="613" type="line"/>
      <point x="325" y="629" type="line"/>
      <point x="371" y="803" type="line"/>
      <point x="292" y="803" type="line"/>
    </contour>
    <contour>
      <point x="352" y="613" type="line"/>
      <point x="435" y="629" type="line"/>
      <point x="481" y="803" type="line"/>
      <point x="402" y="803" type="line"/>
    </contour>
    <contour>
      <point x="74" y="-105" type="line"/>
      <point x="153" y="-105" type="line"/>
      <point x="188" y="24" type="line"/>
      <point x="120" y="72" type="line"/>
    </contour>
    <contour>
      <point x="184" y="-105" type="line"/>
      <point x="263" y="-105" type="line"/>
      <point x="298" y="24" type="line"/>
      <point x="230" y="72" type="line"/>
    </contour>
  </outline>
</glyph>
<glyph name="franc" format="2">
  <advance width="420"/>
  <unicode hex="20A3"/>
  <outline>
    <contour>
      <point x="37" y="0" type="line"/>
      <point x="202" y="0" type="line"/>
      <point x="284" y="517" type="line"/>
      <point x="435" y="517" type="line"/>
      <point x="464" y="700" type="line"/>
      <point x="148" y="700" type="line"/>
    </contour>
    <contour>
      <point x="15" y="222" type="line"/>
      <point x="371" y="222" type="line"/>
      <point x="385" y="313" type="line"/>
      <point x="29" y="313" type="line"/>
    </contour>
    <contour>
      <point x="33" y="335" type="line"/>
      <point x="389" y="335" type="line"/>
      <point x="403" y="426" type="line"/>
      <point x="47" y="426" type="line"/>
    </contour>
  </outline>
</glyph>
<glyph name="lira" format="2">
  <advance width="420"/>
  <unicode hex="20A4"/>
  <outline>
    <contour>
      <point x="11" y="0" type="line"/>
      <point x="300" y="0" type="line"/>
      <point x="325" y="160" type="line"/>
      <point x="206" y="160" type="line"/>
      <point x="236" y="187"/>
      <point x="282" y="226"/>
      <point x="282" y="303" type="curve" smooth="yes"/>
      <point x="282" y="345"/>
      <point x="272" y="400"/>
      <point x="272" y="439" type="curve" smooth="yes"/>
      <point x="272" y="491"/>
      <point x="293" y="531"/>
      <point x="321" y="531" type="curve" smooth="yes"/>
      <point x="338" y="531"/>
      <point x="348" y="528"/>
      <point x="361" y="521" type="curve"/>
      <point x="410" y="677" type="line"/>
      <point x="384" y="699"/>
      <point x="335" y="710"/>
      <point x="301" y="710" type="curve" smooth="yes"/>
      <point x="166" y="710"/>
      <point x="114" y="568"/>
      <point x="114" y="461" type="curve" smooth="yes"/>
      <point x="114" y="409"/>
      <point x="133" y="342"/>
      <point x="133" y="283" type="curve" smooth="yes"/>
      <point x="133" y="214"/>
      <point x="80" y="153"/>
      <point x="29" y="118" type="curve"/>
    </contour>
    <contour>
      <point x="46" y="250" type="line"/>
      <point x="333" y="250" type="line"/>
      <point x="347" y="336" type="line"/>
      <point x="60" y="336" type="line"/>
    </contour>
    <contour>
      <point x="64" y="359" type="line"/>
      <point x="351" y="359" type="line"/>
      <point x="365" y="445" type="line"/>
      <point x="78" y="445" type="line"/>
    </contour>
  </outline>
</glyph>
<glyph name="peseta" format="2">
  <advance width="420"/>
  <unicode hex="20A7"/>
  <outline>
    <contour>
      <point x="-14" y="0" type="line"/>
      <point x="143" y="0" type="line"/>
      <point x="170" y="167" type="line"/>
      <point x="194" y="163"/>
      <point x="198" y="163"/>
      <point x="219" y="163" type="curve" smooth="yes"/>
      <point x="330" y="163"/>
      <point x="421" y="312"/>
      <point x="421" y="520" type="curve" smooth="yes"/>
      <point x="421" y="648"/>
      <point x="372" y="710"/>
      <point x="270" y="710" type="curve" smooth="yes"/>
      <point x="225" y="710"/>
      <point x="156" y="707"/>
      <point x="97" y="702" type="curve"/>
    </contour>
    <contour>
      <point x="233" y="562" type="line"/>
      <point x="238" y="564"/>
      <point x="242" y="565"/>
      <point x="246" y="565" type="curve" smooth="yes"/>
      <point x="260" y="565"/>
      <point x="267" y="550"/>
      <point x="267" y="507" type="curve" smooth="yes"/>
      <point x="267" y="442"/>
      <point x="239" y="308"/>
      <point x="203" y="308" type="curve" smooth="yes"/>
      <point x="198" y="308"/>
      <point x="195" y="309"/>
      <point x="192" y="310" type="curve"/>
    </contour>
    <contour>
      <point x="21" y="397" type="line"/>
      <point x="120" y="397" type="line"/>
      <point x="135" y="488" type="line"/>
      <point x="36" y="488" type="line"/>
    </contour>
    <contour>
      <point x="349" y="397" type="line"/>
      <point x="437" y="397" type="line"/>
      <point x="452" y="488" type="line"/>
      <point x="364" y="488" type="line"/>
    </contour>
  </outline>
</glyph>
<glyph name="uni20A9" format="2">
  <advance width="420"/>
  <unicode hex="20A9"/>
  <outline>
    <contour>
      <point x="6" y="0" type="line"/>
      <point x="147" y="0" type="line"/>
      <point x="238" y="454" type="line"/>
      <point x="181" y="0" type="line"/>
      <point x="326" y="0" type="line"/>
      <point x="471" y="700" type="line"/>
      <point x="364" y="700" type="line"/>
      <point x="269" y="176" type="line"/>
      <point x="327" y="644" type="line"/>
      <point x="213" y="644" type="line"/>
      <point x="122" y="176" type="line"/>
      <point x="194" y="700" type="line"/>
      <point x="83" y="700" type="line"/>
    </contour>
    <contour>
      <point x="6" y="305" type="line"/>
      <point x="88" y="305" type="line"/>
      <point x="103" y="396" type="line"/>
      <point x="21" y="396" type="line"/>
    </contour>
    <contour>
      <point x="340" y="305" type="line"/>
      <point x="422" y="305" type="line"/>
      <point x="437" y="396" type="line"/>
      <point x="355" y="396" type="line"/>
    </contour>
  </outline>
</glyph>
<glyph name="uni20B2" format="2">
  <advance width="420"/>
  <unicode hex="20B2"/>
  <outline>
    <contour>
      <point x="219" y="-10" type="curve" smooth="yes"/>
      <point x="261" y="-10"/>
      <point x="317" y="0"/>
      <point x="353" y="30" type="curve"/>
      <point x="414" y="415" type="line"/>
      <point x="238" y="415" type="line"/>
      <point x="216" y="274" type="line"/>
      <point x="250" y="274" type="line"/>
      <point x="229" y="139" type="line"/>
      <point x="227" y="137"/>
      <point x="217" y="136"/>
      <point x="212" y="136" type="curve" smooth="yes"/>
      <point x="190" y="136"/>
      <point x="177" y="150"/>
      <point x="177" y="225" type="curve" smooth="yes"/>
      <point x="177" y="376"/>
      <point x="220" y="557"/>
      <point x="313" y="557" type="curve" smooth="yes"/>
      <point x="346" y="557"/>
      <point x="372" y="545"/>
      <point x="389" y="538" type="curve"/>
      <point x="439" y="681" type="line"/>
      <point x="400" y="702"/>
      <point x="353" y="710"/>
      <point x="308" y="710" type="curve" smooth="yes"/>
      <point x="93" y="710"/>
      <point x="30" y="411"/>
      <point x="30" y="216" type="curve" smooth="yes"/>
      <point x="30" y="67"/>
      <point x="103" y="-10"/>
    </contour>
    <contour>
      <point x="237" y="656" type="line"/>
      <point x="383" y="653" type="line"/>
      <point x="406" y="803" type="line"/>
      <point x="261" y="803" type="line"/>
    </contour>
    <contour>
      <point x="286" y="54" type="line"/>
      <point x="139" y="37" type="line"/>
      <point x="118" y="-105" type="line"/>
      <point x="263" y="-105" type="line"/>
    </contour>
  </outline>
</glyph>
<glyph name="uni20B9" format="2">
  <advance width="420"/>
  <unicode hex="20B9"/>
  <outline>
    <contour>
      <point x="148" y="0" type="line"/>
      <point x="353" y="0" type="line"/>
      <point x="151" y="312" type="line"/>
      <point x="129" y="230" type="line"/>
      <point x="129" y="230" type="line"/>
      <point x="295" y="230"/>
      <point x="378" y="340"/>
      <point x="378" y="467" type="curve" smooth="yes"/>
      <point x="378" y="509"/>
      <point x="365" y="557"/>
      <point x="335" y="585" type="curve"/>
      <point x="446" y="585" type="line"/>
      <point x="464" y="700" type="line"/>
      <point x="90" y="700" type="line"/>
      <point x="72" y="585" type="line"/>
      <point x="118" y="585" type="line" smooth="yes"/>
      <point x="180" y="585"/>
      <point x="216" y="554"/>
      <point x="216" y="473" type="curve" smooth="yes"/>
      <point x="216" y="404"/>
      <point x="192" y="344"/>
      <point x="110" y="344" type="curve" smooth="yes"/>
      <point x="34" y="344" type="line"/>
      <point x="16" y="229" type="line"/>
    </contour>
    <contour>
      <point x="44" y="407" type="line"/>
      <point x="418" y="407" type="line"/>
      <point x="436" y="523" type="line"/>
      <point x="62" y="523" type="line"/>
    </contour>
  </outline>
</glyph>
<glyph name="uni20BA" format="2">
  <advance width="420"/>
  <unicode hex="20BA"/>
  <outline>
    <contour>
      <point x="10" y="0" type="line"/>
      <point x="99" y="0" type="line" smooth="yes"/>
      <point x="271" y="0"/>
      <point x="386" y="72"/>
      <point x="423" y="307" type="curve"/>
      <point x="293" y="307" type="line"/>
      <point x="277" y="216"/>
      <point x="242" y="153"/>
      <point x="179" y="153" type="curve" smooth="yes"/>
      <point x="175" y="153" type="line"/>
      <point x="261" y="700" type="line"/>
      <point x="120" y="700" type="line"/>
    </contour>
    <contour>
      <point x="10" y="313" type="line"/>
      <point x="347" y="503" type="line"/>
      <point x="362" y="597" type="line"/>
      <point x="25" y="407" type="line"/>
    </contour>
    <contour>
      <point x="-11" y="181" type="line"/>
      <point x="326" y="371" type="line"/>
      <point x="341" y="465" type="line"/>
      <point x="4" y="275" type="line"/>
    </contour>
  </outline>
</glyph>
<glyph name="trademark" format="2">
  <advance width="518"/>
  <unicode hex="2122"/>
  <outline>
    <contour>
      <point x="264" y="604" type="line"/>
      <point x="280" y="700" type="line"/>
      <point x="73" y="700" type="line"/>
      <point x="57" y="604" type="line"/>
      <point x="109" y="604" type="line"/>
      <point x="73" y="370" type="line"/>
      <point x="176" y="370" type="line"/>
      <point x="212" y="604" type="line"/>
    </contour>
    <contour>
      <point x="252" y="370" type="line"/>
      <point x="354" y="370" type="line"/>
      <point x="378" y="528" type="line"/>
      <point x="378" y="432" type="line"/>
      <point x="408" y="432" type="line"/>
      <point x="438" y="528" type="line"/>
      <point x="414" y="370" type="line"/>
      <point x="517" y="370" type="line"/>
      <point x="569" y="700" type="line"/>
      <point x="463" y="700" type="line"/>
      <point x="420" y="601" type="line"/>
      <point x="410" y="700" type="line"/>
      <point x="304" y="700" type="line"/>
    </contour>
  </outline>
</glyph>
<glyph name="uni2198" format="2">
  <advance width="418"/>
  <unicode hex="2198"/>
  <outline>
    <contour>
      <point x="130" y="557" type="line"/>
      <point x="20" y="447" type="line"/>
      <point x="137" y="330" type="line"/>
      <point x="28" y="338" type="line"/>
      <point x="28" y="178" type="line"/>
      <point x="398" y="178" type="line"/>
      <point x="398" y="550" type="line"/>
      <point x="240" y="550" type="line"/>
      <point x="248" y="440" type="line"/>
    </contour>
  </outline>
</glyph>
<glyph name="partialdiff" format="2">
  <advance width="397"/>
  <unicode hex="2202"/>
  <outline>
    <contour>
      <point x="143" y="-10" type="curve" smooth="yes"/>
      <point x="295" y="-10"/>
      <point x="405" y="203"/>
      <point x="405" y="498" type="curve" smooth="yes"/>
      <point x="405" y="671"/>
      <point x="355" y="750"/>
      <point x="245" y="750" type="curve" smooth="yes"/>
      <point x="193" y="750"/>
      <point x="141" y="732"/>
      <point x="95" y="699" type="curve"/>
      <point x="108" y="536" type="line"/>
      <point x="142" y="561"/>
      <point x="184" y="577"/>
      <point x="213" y="577" type="curve" smooth="yes"/>
      <point x="240" y="577"/>
      <point x="255" y="545"/>
      <point x="255" y="487" type="curve" smooth="yes"/>
      <point x="255" y="404"/>
      <point x="219" y="164"/>
      <point x="172" y="164" type="curve" smooth="yes"/>
      <point x="159" y="164"/>
      <point x="153" y="175"/>
      <point x="153" y="196" type="curve" smooth="yes"/>
      <point x="153" y="258"/>
      <point x="175" y="301"/>
      <point x="207" y="301" type="curve" smooth="yes"/>
      <point x="224" y="301"/>
      <point x="240" y="292"/>
      <point x="245" y="279" type="curve"/>
      <point x="267" y="425" type="line"/>
      <point x="249" y="440"/>
      <point x="219" y="449"/>
      <point x="186" y="449" type="curve" smooth="yes"/>
      <point x="79" y="449"/>
      <point x="4" y="312"/>
      <point x="4" y="154" type="curve" smooth="yes"/>
      <point x="4" y="49"/>
      <point x="54" y="-10"/>
    </contour>
  </outline>
</glyph>
<glyph name="product" format="2">
  <advance width="390"/>
  <unicode hex="220F"/>
  <outline>
    <contour>
      <point x="-57" y="-210" type="line"/>
      <point x="100" y="-210" type="line"/>
      <point x="214" y="514" type="line"/>
      <point x="250" y="514" type="line"/>
      <point x="136" y="-210" type="line"/>
      <point x="293" y="-210" type="line"/>
      <point x="437" y="700" type="line"/>
      <point x="87" y="700" type="line"/>
    </contour>
  </outline>
</glyph>
<glyph name="summation" format="2">
  <advance width="347"/>
  <unicode hex="2211"/>
  <outline>
    <contour>
      <point x="-55" y="-210" type="line"/>
      <point x="249" y="-210" type="line"/>
      <point x="277" y="-32" type="line"/>
      <point x="149" y="-32" type="line"/>
      <point x="285" y="177" type="line"/>
      <point x="308" y="325" type="line"/>
      <point x="239" y="517" type="line"/>
      <point x="354" y="517" type="line"/>
      <point x="383" y="700" type="line"/>
      <point x="89" y="700" type="line"/>
      <point x="60" y="521" type="line"/>
      <point x="159" y="260" type="line"/>
      <point x="-27" y="-32" type="line"/>
    </contour>
  </outline>
</glyph>
<glyph name="minus" format="2">
  <advance width="360"/>
  <unicode hex="2212"/>
  <outline>
    <contour>
      <point x="42" y="251" type="line"/>
      <point x="314" y="251" type="line"/>
      <point x="336" y="411" type="line"/>
      <point x="64" y="411" type="line"/>
    </contour>
  </outline>
</glyph>
<glyph name="radical" format="2">
  <advance width="431"/>
  <unicode hex="221A"/>
  <outline>
    <contour>
      <point x="28" y="392" type="line"/>
      <point x="69" y="392" type="line"/>
      <point x="76" y="0" type="line"/>
      <point x="276" y="0" type="line"/>
      <point x="496" y="740" type="line"/>
      <point x="329" y="740" type="line"/>
      <point x="195" y="184" type="line"/>
      <point x="219" y="550" type="line"/>
      <point x="53" y="550" type="line"/>
    </contour>
  </outline>
</glyph>
<glyph name="integral" format="2">
  <advance width="355"/>
  <unicode hex="222B"/>
  <outline>
    <contour>
      <point x="26" y="-220" type="curve" smooth="yes"/>
      <point x="122" y="-220"/>
      <point x="173" y="-155"/>
      <point x="203" y="34" type="curve" smooth="yes"/>
      <point x="280" y="523" type="line" smooth="yes"/>
      <point x="286" y="561"/>
      <point x="302" y="573"/>
      <point x="321" y="573" type="curve" smooth="yes"/>
      <point x="339" y="573"/>
      <point x="356" y="566"/>
      <point x="371" y="556" type="curve"/>
      <point x="433" y="714" type="line"/>
      <point x="402" y="737"/>
      <point x="355" y="750"/>
      <point x="318" y="750" type="curve" smooth="yes"/>
      <point x="233" y="750"/>
      <point x="154" y="721"/>
      <point x="121" y="516" type="curve" smooth="yes"/>
      <point x="43" y="23" type="line" smooth="yes"/>
      <point x="38" y="-7"/>
      <point x="22" y="-27"/>
      <point x="6" y="-27" type="curve" smooth="yes"/>
      <point x="-2" y="-27"/>
      <point x="-7" y="-26"/>
      <point x="-20" y="-18" type="curve"/>
      <point x="-81" y="-185" type="line"/>
      <point x="-54" y="-203"/>
      <point x="-18" y="-220"/>
    </contour>
  </outline>
</glyph>
<glyph name="notequal" format="2">
  <advance width="387"/>
  <unicode hex="2260"/>
  <outline>
    <contour>
      <point x="126" y="58" type="line"/>
      <point x="156" y="121" type="line"/>
      <point x="302" y="121" type="line"/>
      <point x="328" y="281" type="line"/>
      <point x="235" y="281" type="line"/>
      <point x="265" y="344" type="line"/>
      <point x="338" y="344" type="line"/>
      <point x="363" y="504" type="line"/>
      <point x="344" y="504" type="line"/>
      <point x="371" y="560" type="line"/>
      <point x="255" y="560" type="line"/>
      <point x="227" y="504" type="line"/>
      <point x="79" y="504" type="line"/>
      <point x="54" y="344" type="line"/>
      <point x="149" y="344" type="line"/>
      <point x="118" y="281" type="line"/>
      <point x="44" y="281" type="line"/>
      <point x="18" y="121" type="line"/>
      <point x="39" y="121" type="line"/>
      <point x="9" y="58" type="line"/>
    </contour>
  </outline>
</glyph>
<glyph name="greaterequal" format="2">
  <advance width="383"/>
  <unicode hex="2265"/>
  <outline>
    <contour>
      <point x="370" y="330" type="line"/>
      <point x="395" y="488" type="line"/>
      <point x="75" y="613" type="line"/>
      <point x="52" y="472" type="line"/>
      <point x="235" y="409" type="line"/>
      <point x="32" y="347" type="line"/>
      <point x="9" y="205" type="line"/>
    </contour>
    <contour>
      <point x="344" y="160" type="line"/>
      <point x="2" y="160" type="line"/>
      <point x="-23" y="0" type="line"/>
      <point x="319" y="0" type="line"/>
    </contour>
  </outline>
</glyph>
<glyph name="uni25B6" format="2">
  <advance width="500"/>
  <unicode hex="25B6"/>
  <outline>
    <contour>
      <point x="31" y="80" type="line"/>
      <point x="468" y="279" type="line"/>
      <point x="31" y="479" type="line"/>
    </contour>
  </outline>
</glyph>
<glyph name="uni25C0" format="2">
  <advance width="500"/>
  <unicode hex="25C0"/>
  <outline>
    <contour>
      <point x="31" y="279" type="line"/>
      <point x="468" y="80" type="line"/>
      <point x="468" y="479" type="line"/>
    </contour>
  </outline>
</glyph>
<glyph name="lozenge" format="2">
  <advance width="400"/>
  <unicode hex="25CA"/>
  <outline>
    <contour>
      <point x="200" y="518" type="line"/>
      <point x="245" y="351" type="line"/>
      <point x="199" y="182" type="line"/>
      <point x="154" y="351" type="line"/>
    </contour>
    <contour>
      <point x="261" y="700" type="line"/>
      <point x="138" y="700" type="line"/>
      <point x="18" y="351" type="line"/>
      <point x="138" y="0" type="line"/>
      <point x="261" y="0" type="line"/>
      <point x="381" y="351" type="line"/>
    </contour>
  </outline>
</glyph>
<glyph name="uni25CF" format="2">
  <advance width="500"/>
  <unicode hex="25CF"/>
  <outline>
    <contour>
      <point x="46" y="272" type="curve" smooth="yes"/>
      <point x="46" y="160"/>
      <point x="137" y="69"/>
      <point x="250" y="69" type="curve" smooth="yes"/>
      <point x="362" y="69"/>
      <point x="454" y="160"/>
      <point x="454" y="272" type="curve" smooth="yes"/>
      <point x="454" y="384"/>
      <point x="362" y="476"/>
      <point x="250" y="476" type="curve" smooth="yes"/>
      <point x="137" y="476"/>
      <point x="46" y="384"/>
    </contour>
  </outline>
</glyph>
<glyph name="uni2787" format="2">
  <advance width="740"/>
  <unicode hex="2787"/>
  <outline>
    <contour>
      <point x="387" y="150" type="curve" smooth="yes"/>
      <point x="467" y="150"/>
      <point x="511" y="191"/>
      <point x="511" y="264" type="curve" smooth="yes"/>
      <point x="511" y="391"/>
      <point x="375" y="393"/>
      <point x="375" y="450" type="curve" smooth="yes"/>
      <point x="375" y="462"/>
      <point x="380" y="469"/>
      <point x="390" y="469" type="curve" smooth="yes"/>
      <point x="400" y="469"/>
      <point x="404" y="461"/>
      <point x="404" y="444" type="curve" smooth="yes"/>
      <point x="404" y="418"/>
      <point x="400" y="409"/>
      <point x="384" y="399" type="curve"/>
      <point x="436" y="356" type="line"/>
      <point x="480" y="388"/>
      <point x="502" y="423"/>
      <point x="502" y="462" type="curve" smooth="yes"/>
      <point x="502" y="523"/>
      <point x="460" y="561"/>
      <point x="393" y="561" type="curve" smooth="yes"/>
      <point x="315" y="561"/>
      <point x="272" y="521"/>
      <point x="272" y="449" type="curve" smooth="yes"/>
      <point x="272" y="327"/>
      <point x="406" y="321"/>
      <point x="406" y="262" type="curve" smooth="yes"/>
      <point x="406" y="247"/>
      <point x="401" y="239"/>
      <point x="392" y="239" type="curve" smooth="yes"/>
      <point x="381" y="239"/>
      <point x="375" y="249"/>
      <point x="375" y="268" type="curve" smooth="yes"/>
      <point x="375" y="293"/>
      <point x="379" y="303"/>
      <point x="397" y="319" type="curve"/>
      <point x="332" y="363" type="line"/>
      <point x="289" y="338"/>
      <point x="267" y="303"/>
      <point x="267" y="260" type="curve" smooth="yes"/>
      <point x="267" y="190"/>
      <point x="311" y="150"/>
    </contour>
    <contour>
      <point x="382" y="-10" type="curve" smooth="yes"/>
      <point x="601" y="-10"/>
      <point x="716" y="152"/>
      <point x="716" y="351" type="curve" smooth="yes"/>
      <point x="716" y="551"/>
      <point x="601" y="710"/>
      <point x="382" y="710" type="curve" smooth="yes"/>
      <point x="163" y="710"/>
      <point x="48" y="551"/>
      <point x="48" y="351" type="curve" smooth="yes"/>
      <point x="48" y="152"/>
      <point x="163" y="-10"/>
    </contour>
    <contour>
      <point x="382" y="663" type="curve" smooth="yes"/>
      <point x="575" y="663"/>
      <point x="665" y="534"/>
      <point x="665" y="351" type="curve" smooth="yes"/>
      <point x="665" y="168"/>
      <point x="575" y="39"/>
      <point x="382" y="39" type="curve" smooth="yes"/>
      <point x="192" y="39"/>
      <point x="98" y="168"/>
      <point x="98" y="351" type="curve" smooth="yes"/>
      <point x="98" y="534"/>
      <point x="192" y="663"/>
    </contour>
  </outline>
</glyph>
<glyph name="uni2788" format="2">
  <advance width="740"/>
  <unicode hex="2788"/>
  <outline>
    <contour>
      <point x="396" y="302" type="curve"/>
      <point x="393" y="261"/>
      <point x="377" y="249"/>
      <point x="342" y="249" type="curve" smooth="yes"/>
      <point x="317" y="249"/>
      <point x="301" y="261"/>
      <point x="301" y="261" type="curve"/>
      <point x="267" y="173" type="line"/>
      <point x="280" y="164"/>
      <point x="318" y="150"/>
      <point x="362" y="150" type="curve" smooth="yes"/>
      <point x="447" y="150"/>
      <point x="512" y="209"/>
      <point x="512" y="370" type="curve" smooth="yes"/>
      <point x="512" y="516"/>
      <point x="464" y="561"/>
      <point x="389" y="561" type="curve" smooth="yes"/>
      <point x="299" y="561"/>
      <point x="266" y="505"/>
      <point x="266" y="413" type="curve" smooth="yes"/>
      <point x="266" y="318"/>
      <point x="309" y="290"/>
      <point x="349" y="290" type="curve" smooth="yes"/>
      <point x="372" y="290"/>
      <point x="385" y="295"/>
    </contour>
    <contour>
      <point x="389" y="372" type="curve" smooth="yes"/>
      <point x="382" y="372"/>
      <point x="377" y="383"/>
      <point x="377" y="416" type="curve" smooth="yes"/>
      <point x="377" y="464"/>
      <point x="381" y="469"/>
      <point x="388" y="469" type="curve" smooth="yes"/>
      <point x="395" y="469"/>
      <point x="396" y="465"/>
      <point x="396" y="374" type="curve"/>
      <point x="394" y="373"/>
      <point x="392" y="372"/>
    </contour>
    <contour>
      <point x="382" y="-10" type="curve" smooth="yes"/>
      <point x="601" y="-10"/>
      <point x="716" y="152"/>
      <point x="716" y="351" type="curve" smooth="yes"/>
      <point x="716" y="551"/>
      <point x="601" y="710"/>
      <point x="382" y="710" type="curve" smooth="yes"/>
      <point x="163" y="710"/>
      <point x="48" y="551"/>
      <point x="48" y="351" type="curve" smooth="yes"/>
      <point x="48" y="152"/>
      <point x="163" y="-10"/>
    </contour>
    <contour>
      <point x="382" y="663" type="curve" smooth="yes"/>
      <point x="575" y="663"/>
      <point x="665" y="534"/>
      <point x="665" y="351" type="curve" smooth="yes"/>
      <point x="665" y="168"/>
      <point x="575" y="39"/>
      <point x="382" y="39" type="curve" smooth="yes"/>
      <point x="192" y="39"/>
      <point x="98" y="168"/>
      <point x="98" y="351" type="curve" smooth="yes"/>
      <point x="98" y="534"/>
      <point x="192" y="663"/>
    </contour>
  </outline>
</glyph>
<glyph name="uni278A" format="2">
  <advance width="740"/>
  <unicode hex="278A"/>
  <outline>
    <contour>
      <point x="382" y="-10" type="curve" smooth="yes"/>
      <point x="601" y="-10"/>
      <point x="716" y="152"/>
      <point x="716" y="351" type="curve" smooth="yes"/>
      <point x="716" y="551"/>
      <point x="601" y="710"/>
      <point x="382" y="710" type="curve" smooth="yes"/>
      <point x="163" y="710"/>
      <point x="48" y="551"/>
      <point x="48" y="351" type="curve" smooth="yes"/>
      <point x="48" y="152"/>
      <point x="163" y="-10"/>
    </contour>
    <contour>
      <point x="280" y="159" type="line"/>
      <point x="280" y="250" type="line"/>
      <point x="331" y="250" type="line"/>
      <point x="331" y="433" type="line"/>
      <point x="286" y="424" type="line"/>
      <point x="269" y="529" type="line"/>
      <point x="386" y="558" type="line"/>
      <point x="441" y="558" type="line"/>
      <point x="441" y="250" type="line"/>
      <point x="485" y="250" type="line"/>
      <point x="485" y="159" type="line"/>
    </contour>
  </outline>
</glyph>
<glyph name="uni278C" format="2">
  <advance width="740"/>
  <unicode hex="278C"/>
  <outline>
    <contour>
      <point x="382" y="-10" type="curve" smooth="yes"/>
      <point x="601" y="-10"/>
      <point x="716" y="152"/>
      <point x="716" y="351" type="curve" smooth="yes"/>
      <point x="716" y="551"/>
      <point x="601" y="710"/>
      <point x="382" y="710" type="curve" smooth="yes"/>
      <point x="163" y="710"/>
      <point x="48" y="551"/>
      <point x="48" y="351" type="curve" smooth="yes"/>
      <point x="48" y="152"/>
      <point x="163" y="-10"/>
    </contour>
    <contour>
      <point x="376" y="151" type="curve" smooth="yes"/>
      <point x="337" y="151"/>
      <point x="312" y="158"/>
      <point x="273" y="179" type="curve"/>
      <point x="312" y="269" type="line"/>
      <point x="330" y="259"/>
      <point x="342" y="256"/>
      <point x="358" y="256" type="curve" smooth="yes"/>
      <point x="380" y="256"/>
      <point x="394" y="267"/>
      <point x="394" y="284" type="curve" smooth="yes"/>
      <point x="394" y="303"/>
      <point x="381" y="314"/>
      <point x="358" y="314" type="curve" smooth="yes"/>
      <point x="329" y="314" type="line"/>
      <point x="329" y="400" type="line"/>
      <point x="354" y="400" type="line" smooth="yes"/>
      <point x="375" y="400"/>
      <point x="389" y="410"/>
      <point x="389" y="424" type="curve" smooth="yes"/>
      <point x="389" y="441"/>
      <point x="376" y="450"/>
      <point x="352" y="450" type="curve" smooth="yes"/>
      <point x="335" y="450"/>
      <point x="316" y="446"/>
      <point x="306" y="440" type="curve"/>
      <point x="270" y="528" type="line"/>
      <point x="300" y="551"/>
      <point x="337" y="562"/>
      <point x="380" y="562" type="curve" smooth="yes"/>
      <point x="453" y="562"/>
      <point x="498" y="524"/>
      <point x="498" y="463" type="curve" smooth="yes"/>
      <point x="498" y="429"/>
      <point x="479" y="394"/>
      <point x="448" y="371" type="curve"/>
      <point x="483" y="351"/>
      <point x="504" y="316"/>
      <point x="504" y="274" type="curve" smooth="yes"/>
      <point x="504" y="197"/>
      <point x="456" y="151"/>
    </contour>
  </outline>
</glyph>
<glyph name="uni278D" format="2">
  <advance width="740"/>
  <unicode hex="278D"/>
  <outline>
    <contour>
      <point x="382" y="-10" type="curve" smooth="yes"/>
      <point x="601" y="-10"/>
      <point x="716" y="152"/>
      <point x="716" y="351" type="curve" smooth="yes"/>
      <point x="716" y="551"/>
      <point x="601" y="710"/>
      <point x="382" y="710" type="curve" smooth="yes"/>
      <point x="163" y="710"/>
      <point x="48" y="551"/>
      <point x="48" y="351" type="curve" smooth="yes"/>
      <point x="48" y="152"/>
      <point x="163" y="-10"/>
    </contour>
    <contour>
      <point x="304" y="280" type="line"/>
      <point x="346" y="280" type="line"/>
      <point x="346" y="431" type="line"/>
    </contour>
    <contour>
      <point x="340" y="159" type="line"/>
      <point x="340" y="192" type="line"/>
      <point x="243" y="192" type="line"/>
      <point x="243" y="287" type="line"/>
      <point x="322" y="556" type="line"/>
      <point x="466" y="556" type="line"/>
      <point x="466" y="280" type="line"/>
      <point x="497" y="280" type="line"/>
      <point x="497" y="192" type="line"/>
      <point x="466" y="192" type="line"/>
      <point x="466" y="159" type="line"/>
    </contour>
  </outline>
</glyph>
<glyph name="uni2791" format="2">
  <advance width="740"/>
  <unicode hex="2791"/>
  <outline>
    <contour>
      <point x="382" y="-10" type="curve" smooth="yes"/>
      <point x="601" y="-10"/>
      <point x="716" y="152"/>
      <point x="716" y="351" type="curve" smooth="yes"/>
      <point x="716" y="551"/>
      <point x="601" y="710"/>
      <point x="382" y="710" type="curve" smooth="yes"/>
      <point x="163" y="710"/>
      <point x="48" y="551"/>
      <point x="48" y="351" type="curve" smooth="yes"/>
      <point x="48" y="152"/>
      <point x="163" y="-10"/>
    </contour>
    <contour>
      <point x="392" y="239" type="curve" smooth="yes"/>
      <point x="401" y="239"/>
      <point x="406" y="247"/>
      <point x="406" y="262" type="curve" smooth="yes"/>
      <point x="406" y="278"/>
      <point x="396" y="290"/>
      <point x="382" y="302" type="curve"/>
      <point x="376" y="293"/>
      <point x="375" y="283"/>
      <point x="375" y="268" type="curve" smooth="yes"/>
      <point x="375" y="249"/>
      <point x="381" y="239"/>
    </contour>
    <contour>
      <point x="387" y="150" type="curve" smooth="yes"/>
      <point x="311" y="150"/>
      <point x="267" y="190"/>
      <point x="267" y="260" type="curve" smooth="yes"/>
      <point x="267" y="297"/>
      <point x="283" y="328"/>
      <point x="315" y="352" type="curve"/>
      <point x="291" y="374"/>
      <point x="272" y="403"/>
      <point x="272" y="449" type="curve" smooth="yes"/>
      <point x="272" y="521"/>
      <point x="315" y="561"/>
      <point x="393" y="561" type="curve" smooth="yes"/>
      <point x="460" y="561"/>
      <point x="502" y="523"/>
      <point x="502" y="462" type="curve" smooth="yes"/>
      <point x="502" y="430"/>
      <point x="487" y="400"/>
      <point x="457" y="373" type="curve"/>
      <point x="486" y="350"/>
      <point x="511" y="319"/>
      <point x="511" y="264" type="curve" smooth="yes"/>
      <point x="511" y="191"/>
      <point x="467" y="150"/>
    </contour>
    <contour>
      <point x="399" y="413" type="curve"/>
      <point x="403" y="420"/>
      <point x="404" y="429"/>
      <point x="404" y="444" type="curve" smooth="yes"/>
      <point x="404" y="461"/>
      <point x="400" y="469"/>
      <point x="390" y="469" type="curve" smooth="yes"/>
      <point x="380" y="469"/>
      <point x="375" y="462"/>
      <point x="375" y="450" type="curve" smooth="yes"/>
      <point x="375" y="435"/>
      <point x="385" y="424"/>
    </contour>
  </outline>
</glyph>
<glyph name="uni27E8" format="2">
  <advance width="235"/>
  <unicode hex="27E8"/>
  <outline>
    <contour>
      <point x="-4" y="198" type="line"/>
      <point x="182" y="-12" type="line"/>
      <point x="218" y="218" type="line"/>
      <point x="108" y="346" type="line"/>
      <point x="258" y="464" type="line"/>
      <point x="296" y="710" type="line"/>
      <point x="44" y="502" type="line"/>
    </contour>
  </outline>
</glyph>
<glyph name="fi" format="2">
  <advance width="445"/>
  <unicode hex="FB01"/>
  <outline>
    <contour>
      <point x="-31" y="-220" type="curve" smooth="yes"/>
      <point x="83" y="-220"/>
      <point x="137" y="-151"/>
      <point x="161" y="0" type="curve" smooth="yes"/>
      <point x="221" y="379" type="line"/>
      <point x="280" y="379" type="line"/>
      <point x="219" y="0" type="line"/>
      <point x="381" y="0" type="line"/>
      <point x="465" y="529" type="line"/>
      <point x="245" y="529" type="line"/>
      <point x="251" y="567"/>
      <point x="280" y="590"/>
      <point x="331" y="590" type="curve" smooth="yes"/>
      <point x="374" y="590"/>
      <point x="451" y="565"/>
      <point x="451" y="565" type="curve"/>
      <point x="516" y="710" type="line"/>
      <point x="444" y="743"/>
      <point x="367" y="750"/>
      <point x="332" y="750" type="curve" smooth="yes"/>
      <point x="199" y="750"/>
      <point x="106" y="676"/>
      <point x="83" y="529" type="curve"/>
      <point x="44" y="522" type="line"/>
      <point x="20" y="379" type="line"/>
      <point x="59" y="379" type="line"/>
      <point x="0" y="2" type="line" smooth="yes"/>
      <point x="-7" y="-40"/>
      <point x="-22" y="-52"/>
      <point x="-41" y="-52" type="curve" smooth="yes"/>
      <point x="-48" y="-52"/>
      <point x="-58" y="-52"/>
      <point x="-72" y="-47" type="curve"/>
      <point x="-119" y="-202" type="line"/>
      <point x="-88" y="-214"/>
      <point x="-59" y="-220"/>
    </contour>
  </outline>
</glyph>
<glyph name="fl" format="2">
  <advance width="464"/>
  <unicode hex="FB02"/>
  <outline>
    <contour>
      <point x="-31" y="-220" type="curve" smooth="yes"/>
      <point x="83" y="-220"/>
      <point x="137" y="-151"/>
      <point x="161" y="0" type="curve" smooth="yes"/>
      <point x="221" y="380" type="line"/>
      <point x="263" y="380" type="line"/>
      <point x="287" y="530" type="line"/>
      <point x="245" y="530" type="line"/>
      <point x="257" y="603"/>
      <point x="279" y="610"/>
      <point x="299" y="610" type="curve" smooth="yes"/>
      <point x="313" y="610"/>
      <point x="321" y="607"/>
      <point x="330" y="602" type="curve"/>
      <point x="254" y="120" type="line" smooth="yes"/>
      <point x="252" y="108"/>
      <point x="251" y="94"/>
      <point x="251" y="84" type="curve" smooth="yes"/>
      <point x="251" y="27"/>
      <point x="281" y="-10"/>
      <point x="341" y="-10" type="curve" smooth="yes"/>
      <point x="369" y="-10"/>
      <point x="404" y="0"/>
      <point x="422" y="15" type="curve"/>
      <point x="444" y="159" type="line"/>
      <point x="441" y="158"/>
      <point x="437" y="158"/>
      <point x="435" y="158" type="curve" smooth="yes"/>
      <point x="428" y="158"/>
      <point x="425" y="163"/>
      <point x="425" y="174" type="curve" smooth="yes"/>
      <point x="425" y="179"/>
      <point x="426" y="186"/>
      <point x="427" y="193" type="curve" smooth="yes"/>
      <point x="508" y="716" type="line"/>
      <point x="440" y="735"/>
      <point x="367" y="750"/>
      <point x="305" y="750" type="curve" smooth="yes"/>
      <point x="176" y="750"/>
      <point x="106" y="677"/>
      <point x="83" y="530" type="curve"/>
      <point x="44" y="523" type="line"/>
      <point x="20" y="380" type="line"/>
      <point x="59" y="380" type="line"/>
      <point x="0" y="2" type="line" smooth="yes"/>
      <point x="-7" y="-40"/>
      <point x="-22" y="-52"/>
      <point x="-41" y="-52" type="curve" smooth="yes"/>
      <point x="-48" y="-52"/>
      <point x="-58" y="-52"/>
      <point x="-72" y="-47" type="curve"/>
      <point x="-119" y="-202" type="line"/>
      <point x="-88" y="-214"/>
      <point x="-59" y="-220"/>
    </contour>
  </outline>
</glyph>
<glyph name="Euro.tosf" format="2">
  <advance width="420"/>
  <outline>
    <contour>
      <point x="58" y="170" type="curve" smooth="yes"/>
      <point x="58" y="52"/>
      <point x="112" y="-10"/>
      <point x="215" y="-10" type="curve" smooth="yes"/>
      <point x="271" y="-10"/>
      <point x="326" y="3"/>
      <point x="365" y="26" type="curve"/>
      <point x="342" y="143" type="line"/>
      <point x="317" y="132"/>
      <point x="296" y="127"/>
      <point x="272" y="127" type="curve" smooth="yes"/>
      <point x="242" y="127"/>
      <point x="225" y="156"/>
      <point x="225" y="199" type="curve" smooth="yes"/>
      <point x="225" y="301"/>
      <point x="254" y="417"/>
      <point x="318" y="417" type="curve" smooth="yes"/>
      <point x="333" y="417"/>
      <point x="356" y="411"/>
      <point x="368" y="405" type="curve"/>
      <point x="429" y="532" type="line"/>
      <point x="402" y="548"/>
      <point x="350" y="560"/>
      <point x="308" y="560" type="curve" smooth="yes"/>
      <point x="155" y="560"/>
      <point x="58" y="409"/>
    </contour>
    <contour>
      <point x="359" y="290" type="line"/>
      <point x="372" y="371" type="line"/>
      <point x="55" y="371" type="line"/>
      <point x="42" y="290" type="line"/>
    </contour>
    <contour>
      <point x="341" y="177" type="line"/>
      <point x="354" y="258" type="line"/>
      <point x="37" y="258" type="line"/>
      <point x="24" y="177" type="line"/>
    </contour>
  </outline>
</glyph>
<glyph name="T_h.liga" format="2">
  <advance width="692"/>
  <outline>
    <contour>
      <point x="520" y="362" type="curve" smooth="yes"/>
      <point x="520" y="347"/>
      <point x="477" y="119"/>
      <point x="477" y="81" type="curve" smooth="yes"/>
      <point x="477" y="33"/>
      <point x="511" y="-10"/>
      <point x="571" y="-10" type="curve" smooth="yes"/>
      <point x="599" y="-10"/>
      <point x="627" y="0"/>
      <point x="648" y="15" type="curve"/>
      <point x="670" y="159" type="line"/>
      <point x="667" y="158"/>
      <point x="663" y="158"/>
      <point x="661" y="158" type="curve" smooth="yes"/>
      <point x="654" y="158"/>
      <point x="649" y="160"/>
      <point x="649" y="168" type="curve" smooth="yes"/>
      <point x="649" y="176"/>
      <point x="697" y="441"/>
      <point x="697" y="469" type="curve" smooth="yes"/>
      <point x="697" y="528"/>
      <point x="668" y="559"/>
      <point x="614" y="559" type="curve" smooth="yes"/>
      <point x="580" y="559"/>
      <point x="555" y="549"/>
      <point x="517" y="519" type="curve"/>
      <point x="546" y="700" type="line"/>
      <point x="75" y="700" type="line"/>
      <point x="50" y="547" type="line"/>
      <point x="142" y="547" type="line"/>
      <point x="55" y="0" type="line"/>
      <point x="217" y="0" type="line"/>
      <point x="304" y="547" type="line"/>
      <point x="360" y="547" type="line"/>
      <point x="273" y="0" type="line"/>
      <point x="435" y="0" type="line"/>
      <point x="494" y="365" type="line"/>
      <point x="500" y="370"/>
      <point x="505" y="372"/>
      <point x="510" y="372" type="curve" smooth="yes"/>
      <point x="517" y="372"/>
      <point x="520" y="368"/>
    </contour>
  </outline>
</glyph>
<glyph name="acutecomb.case" format="2">
  <anchor x="-76" y="939" name="top"/>
  <anchor x="-142" y="700" name="_top"/>
  <outline>
    <contour>
      <point x="-207" y="745" type="line"/>
      <point x="-84" y="745" type="line"/>
      <point x="24" y="939" type="line"/>
      <point x="-140" y="939" type="line"/>
    </contour>
  </outline>
</glyph>
<glyph name="at.sc" format="2">
  <advance width="578"/>
  <outline>
    <contour>
      <point x="257" y="-10" type="curve" smooth="yes"/>
      <point x="295" y="-10"/>
      <point x="359" y="3"/>
      <point x="387" y="17" type="curve"/>
      <point x="373" y="71" type="line"/>
      <point x="325" y="57"/>
      <point x="289" y="50"/>
      <point x="259" y="50" type="curve" smooth="yes"/>
      <point x="139" y="50"/>
      <point x="75" y="118"/>
      <point x="75" y="245" type="curve" smooth="yes"/>
      <point x="75" y="420"/>
      <point x="194" y="565"/>
      <point x="339" y="565" type="curve" smooth="yes"/>
      <point x="462" y="565"/>
      <point x="517" y="504"/>
      <point x="517" y="376" type="curve" smooth="yes"/>
      <point x="517" y="279"/>
      <point x="487" y="208"/>
      <point x="432" y="208" type="curve" smooth="yes"/>
      <point x="403" y="208"/>
      <point x="393" y="233"/>
      <point x="408" y="285" type="curve" smooth="yes"/>
      <point x="468" y="489" type="line"/>
      <point x="424" y="511"/>
      <point x="380" y="521"/>
      <point x="329" y="521" type="curve" smooth="yes"/>
      <point x="216" y="521"/>
      <point x="121" y="384"/>
      <point x="121" y="220" type="curve" smooth="yes"/>
      <point x="121" y="156"/>
      <point x="149" y="122"/>
      <point x="201" y="122" type="curve" smooth="yes"/>
      <point x="232" y="122"/>
      <point x="279" y="143"/>
      <point x="301" y="176" type="curve"/>
      <point x="317" y="140"/>
      <point x="351" y="119"/>
      <point x="402" y="119" type="curve" smooth="yes"/>
      <point x="513" y="119"/>
      <point x="583" y="219"/>
      <point x="583" y="387" type="curve" smooth="yes"/>
      <point x="583" y="531"/>
      <point x="496" y="625"/>
      <point x="353" y="625" type="curve" smooth="yes"/>
      <point x="153" y="625"/>
      <point x="8" y="458"/>
      <point x="8" y="230" type="curve" smooth="yes"/>
      <point x="8" y="78"/>
      <point x="100" y="-10"/>
    </contour>
    <contour>
      <point x="265" y="254" type="curve" smooth="yes"/>
      <point x="259" y="254"/>
      <point x="256" y="258"/>
      <point x="256" y="264" type="curve" smooth="yes"/>
      <point x="256" y="313"/>
      <point x="298" y="430"/>
      <point x="316" y="430" type="curve" smooth="yes"/>
      <point x="319" y="430"/>
      <point x="323" y="427"/>
      <point x="327" y="425" type="curve"/>
      <point x="282" y="261" type="line"/>
      <point x="275" y="256"/>
      <point x="269" y="254"/>
    </contour>
  </outline>
</glyph>
<glyph name="b.sc" format="2">
  <advance width="402"/>
  <outline>
    <contour>
      <point x="-20" y="4" type="line"/>
      <point x="50" y="-6"/>
      <point x="83" y="-10"/>
      <point x="152" y="-10" type="curve" smooth="yes"/>
      <point x="322" y="-10"/>
      <point x="383" y="110"/>
      <point x="383" y="220" type="curve" smooth="yes"/>
      <point x="383" y="283"/>
      <point x="352" y="325"/>
      <point x="322" y="344" type="curve"/>
      <point x="380" y="371"/>
      <point x="411" y="437"/>
      <point x="411" y="496" type="curve" smooth="yes"/>
      <point x="411" y="576"/>
      <point x="365" y="632"/>
      <point x="254" y="632" type="curve" smooth="yes"/>
      <point x="226" y="632"/>
      <point x="156" y="626"/>
      <point x="77" y="616" type="curve"/>
    </contour>
    <contour>
      <point x="200" y="377" type="line"/>
      <point x="219" y="492" type="line"/>
      <point x="225" y="494"/>
      <point x="231" y="496"/>
      <point x="238" y="496" type="curve" smooth="yes"/>
      <point x="249" y="496"/>
      <point x="260" y="487"/>
      <point x="260" y="458" type="curve" smooth="yes"/>
      <point x="260" y="401"/>
      <point x="234" y="377"/>
      <point x="208" y="377" type="curve" smooth="yes"/>
    </contour>
    <contour>
      <point x="181" y="245" type="line"/>
      <point x="194" y="245" type="line" smooth="yes"/>
      <point x="210" y="245"/>
      <point x="220" y="233"/>
      <point x="220" y="209" type="curve" smooth="yes"/>
      <point x="220" y="152"/>
      <point x="200" y="127"/>
      <point x="177" y="127" type="curve" smooth="yes"/>
      <point x="174" y="127"/>
      <point x="169" y="127"/>
      <point x="161" y="130" type="curve"/>
    </contour>
  </outline>
</glyph>
<glyph name="b.superior" format="2">
  <advance width="253"/>
  <outline>
    <contour>
      <point x="34" y="379" type="line"/>
      <point x="52" y="372"/>
      <point x="89" y="364"/>
      <point x="119" y="364" type="curve" smooth="yes"/>
      <point x="258" y="364"/>
      <point x="292" y="485"/>
      <point x="292" y="606" type="curve" smooth="yes"/>
      <point x="292" y="661"/>
      <point x="272" y="689"/>
      <point x="231" y="689" type="curve" smooth="yes"/>
      <point x="219" y="689"/>
      <point x="202" y="685"/>
      <point x="188" y="675" type="curve"/>
      <point x="207" y="791" type="line"/>
      <point x="99" y="791" type="line"/>
    </contour>
    <contour>
      <point x="175" y="592" type="line"/>
      <point x="177" y="593"/>
      <point x="179" y="594"/>
      <point x="180" y="594" type="curve" smooth="yes"/>
      <point x="187" y="594"/>
      <point x="187" y="587"/>
      <point x="187" y="582" type="curve" smooth="yes"/>
      <point x="187" y="574"/>
      <point x="171" y="451"/>
      <point x="158" y="451" type="curve" smooth="yes"/>
      <point x="157" y="451"/>
      <point x="154" y="452"/>
      <point x="152" y="454" type="curve"/>
    </contour>
  </outline>
</glyph>
<glyph name="braceleft.sc" format="2">
  <advance width="228"/>
  <outline>
    <contour>
      <point x="-19" y="6" type="curve" smooth="yes"/>
      <point x="-19" y="-73"/>
      <point x="21" y="-103"/>
      <point x="93" y="-103" type="curve" smooth="yes"/>
      <point x="151" y="-103" type="line"/>
      <point x="173" y="33" type="line"/>
      <point x="162" y="33" type="line" smooth="yes"/>
      <point x="146" y="33"/>
      <point x="141" y="42"/>
      <point x="141" y="60" type="curve" smooth="yes"/>
      <point x="141" y="125"/>
      <point x="187" y="174"/>
      <point x="187" y="245" type="curve" smooth="yes"/>
      <point x="187" y="280"/>
      <point x="171" y="312"/>
      <point x="149" y="322" type="curve"/>
      <point x="197" y="344"/>
      <point x="226" y="412"/>
      <point x="226" y="471" type="curve" smooth="yes"/>
      <point x="226" y="492"/>
      <point x="224" y="509"/>
      <point x="224" y="528" type="curve" smooth="yes"/>
      <point x="224" y="555"/>
      <point x="228" y="602"/>
      <point x="260" y="602" type="curve" smooth="yes"/>
      <point x="272" y="602" type="line"/>
      <point x="292" y="740" type="line"/>
      <point x="208" y="740" type="line" smooth="yes"/>
      <point x="106" y="740"/>
      <point x="71" y="645"/>
      <point x="71" y="566" type="curve" smooth="yes"/>
      <point x="71" y="506"/>
      <point x="75" y="477"/>
      <point x="75" y="446" type="curve" smooth="yes"/>
      <point x="75" y="420"/>
      <point x="68" y="388"/>
      <point x="42" y="388" type="curve" smooth="yes"/>
      <point x="30" y="388" type="line"/>
      <point x="7" y="249" type="line"/>
      <point x="19" y="249" type="line" smooth="yes"/>
      <point x="32" y="249"/>
      <point x="37" y="242"/>
      <point x="37" y="227" type="curve" smooth="yes"/>
      <point x="37" y="160"/>
      <point x="-19" y="104"/>
    </contour>
  </outline>
</glyph>
<glyph name="braceright.sc" format="2">
  <advance width="228"/>
  <outline>
    <contour>
      <point x="264" y="636" type="curve" smooth="yes"/>
      <point x="264" y="716"/>
      <point x="218" y="740"/>
      <point x="171" y="740" type="curve" smooth="yes"/>
      <point x="88" y="740" type="line"/>
      <point x="66" y="601" type="line"/>
      <point x="77" y="601" type="line" smooth="yes"/>
      <point x="92" y="601"/>
      <point x="99" y="590"/>
      <point x="99" y="573" type="curve" smooth="yes"/>
      <point x="99" y="509"/>
      <point x="55" y="483"/>
      <point x="55" y="405" type="curve" smooth="yes"/>
      <point x="55" y="373"/>
      <point x="63" y="342"/>
      <point x="87" y="317" type="curve"/>
      <point x="36" y="278"/>
      <point x="15" y="235"/>
      <point x="15" y="166" type="curve" smooth="yes"/>
      <point x="15" y="147"/>
      <point x="17" y="129"/>
      <point x="17" y="111" type="curve" smooth="yes"/>
      <point x="17" y="83"/>
      <point x="14" y="33"/>
      <point x="-18" y="33" type="curve" smooth="yes"/>
      <point x="-30" y="33" type="line"/>
      <point x="-50" y="-103" type="line"/>
      <point x="32" y="-103" type="line" smooth="yes"/>
      <point x="138" y="-103"/>
      <point x="176" y="28"/>
      <point x="176" y="109" type="curve" smooth="yes"/>
      <point x="176" y="143"/>
      <point x="171" y="169"/>
      <point x="171" y="191" type="curve" smooth="yes"/>
      <point x="171" y="218"/>
      <point x="176" y="249"/>
      <point x="202" y="249" type="curve" smooth="yes"/>
      <point x="214" y="249" type="line"/>
      <point x="237" y="388" type="line"/>
      <point x="225" y="388" type="line" smooth="yes"/>
      <point x="212" y="388"/>
      <point x="207" y="395"/>
      <point x="207" y="410" type="curve" smooth="yes"/>
      <point x="207" y="460"/>
      <point x="264" y="534"/>
    </contour>
  </outline>
</glyph>
<glyph name="bracketleft.sc" format="2">
  <advance width="228"/>
  <outline>
    <contour>
      <point x="-49" y="-125" type="line"/>
      <point x="153" y="-125" type="line"/>
      <point x="177" y="23" type="line"/>
      <point x="100" y="23" type="line"/>
      <point x="193" y="602" type="line"/>
      <point x="272" y="602" type="line"/>
      <point x="296" y="750" type="line"/>
      <point x="93" y="750" type="line"/>
    </contour>
  </outline>
</glyph>
<glyph name="bracketright.sc" format="2">
  <advance width="228"/>
  <outline>
    <contour>
      <point x="-32" y="23" type="line"/>
      <point x="-56" y="-125" type="line"/>
      <point x="146" y="-125" type="line"/>
      <point x="289" y="750" type="line"/>
      <point x="86" y="750" type="line"/>
      <point x="62" y="602" type="line"/>
      <point x="139" y="602" type="line"/>
      <point x="46" y="23" type="line"/>
    </contour>
  </outline>
</glyph>
<glyph name="centsuperior" format="2">
  <advance width="179"/>
  <outline>
    <contour>
      <point x="70" y="309" type="line"/>
      <point x="152" y="309" type="line"/>
      <point x="162" y="368" type="line"/>
      <point x="174" y="370"/>
      <point x="187" y="374"/>
      <point x="194" y="378" type="curve"/>
      <point x="194" y="478" type="line"/>
      <point x="184" y="476"/>
      <point x="173" y="473"/>
      <point x="164" y="473" type="curve" smooth="yes"/>
      <point x="152" y="473"/>
      <point x="146" y="483"/>
      <point x="146" y="504" type="curve" smooth="yes"/>
      <point x="146" y="550"/>
      <point x="160" y="578"/>
      <point x="182" y="578" type="curve" smooth="yes"/>
      <point x="193" y="578"/>
      <point x="200" y="577"/>
      <point x="205" y="574" type="curve"/>
      <point x="237" y="679" type="line"/>
      <point x="231" y="681"/>
      <point x="222" y="684"/>
      <point x="212" y="685" type="curve"/>
      <point x="221" y="742" type="line"/>
      <point x="138" y="742" type="line"/>
      <point x="128" y="677" type="line"/>
      <point x="80" y="647"/>
      <point x="46" y="558"/>
      <point x="46" y="460" type="curve" smooth="yes"/>
      <point x="46" y="415"/>
      <point x="57" y="387"/>
      <point x="80" y="373" type="curve"/>
    </contour>
  </outline>
</glyph>
<glyph name="commasuperior" format="2">
  <advance width="128"/>
  <outline>
    <contour>
      <point x="48" y="433" type="line"/>
      <point x="48" y="412"/>
      <point x="45" y="394"/>
      <point x="44" y="385" type="curve" smooth="yes"/>
      <point x="39" y="357"/>
      <point x="18" y="314"/>
      <point x="5" y="290" type="curve"/>
      <point x="76" y="269" type="line"/>
      <point x="112" y="315"/>
      <point x="139" y="360"/>
      <point x="139" y="415" type="curve" smooth="yes"/>
      <point x="139" y="422"/>
      <point x="138" y="428"/>
      <point x="138" y="434" type="curve"/>
    </contour>
  </outline>
</glyph>
<glyph name="d.sc" format="2">
  <advance width="411"/>
  <anchor x="205" y="275" name="center"/>
  <anchor x="159" y="0" name="bottom"/>
  <anchor x="231" y="625" name="top"/>
  <outline>
    <contour>
      <point x="-19" y="9" type="line"/>
      <point x="38" y="-3"/>
      <point x="88" y="-10"/>
      <point x="159" y="-10" type="curve" smooth="yes"/>
      <point x="385" y="-10"/>
      <point x="410" y="337"/>
      <point x="410" y="441" type="curve" smooth="yes"/>
      <point x="410" y="558"/>
      <point x="362" y="632"/>
      <point x="232" y="632" type="curve" smooth="yes"/>
      <point x="193" y="632"/>
      <point x="151" y="631"/>
      <point x="81" y="621" type="curve"/>
    </contour>
    <contour>
      <point x="219" y="488" type="line"/>
      <point x="224" y="489"/>
      <point x="231" y="490"/>
      <point x="236" y="490" type="curve" smooth="yes"/>
      <point x="248" y="490"/>
      <point x="253" y="476"/>
      <point x="253" y="456" type="curve" smooth="yes"/>
      <point x="253" y="399"/>
      <point x="218" y="123"/>
      <point x="173" y="123" type="curve" smooth="yes"/>
      <point x="170" y="123"/>
      <point x="164" y="123"/>
      <point x="161" y="124" type="curve"/>
    </contour>
  </outline>
</glyph>
<glyph name="dollar.tosf" format="2">
  <advance width="420"/>
  <outline>
    <contour>
      <point x="319" y="555" type="curve"/>
      <point x="335" y="656" type="line"/>
      <point x="196" y="656" type="line"/>
      <point x="179" y="548" type="line"/>
      <point x="93" y="518"/>
      <point x="55" y="435"/>
      <point x="55" y="348" type="curve" smooth="yes"/>
      <point x="55" y="166"/>
      <point x="211" y="209"/>
      <point x="211" y="172" type="curve" smooth="yes"/>
      <point x="211" y="160"/>
      <point x="200" y="154"/>
      <point x="174" y="154" type="curve" smooth="yes"/>
      <point x="140" y="154"/>
      <point x="94" y="169"/>
      <point x="66" y="179" type="curve"/>
      <point x="17" y="20" type="line"/>
      <point x="40" y="7"/>
      <point x="65" y="0"/>
      <point x="96" y="-5" type="curve"/>
      <point x="80" y="-105" type="line"/>
      <point x="218" y="-105" type="line"/>
      <point x="234" y="-2" type="line"/>
      <point x="314" y="18"/>
      <point x="367" y="83"/>
      <point x="367" y="201" type="curve" smooth="yes"/>
      <point x="367" y="373"/>
      <point x="205" y="336"/>
      <point x="204" y="379" type="curve" smooth="yes"/>
      <point x="204" y="391"/>
      <point x="216" y="396"/>
      <point x="247" y="396" type="curve" smooth="yes"/>
      <point x="275" y="396"/>
      <point x="313" y="388"/>
      <point x="345" y="375" type="curve"/>
      <point x="389" y="533" type="line"/>
      <point x="372" y="542"/>
      <point x="348" y="550"/>
    </contour>
  </outline>
</glyph>
<glyph name="dollarsuperior" format="2">
  <advance width="232"/>
  <outline>
    <contour>
      <point x="76" y="310" type="line"/>
      <point x="159" y="310" type="line"/>
      <point x="167" y="369" type="line"/>
      <point x="219" y="384"/>
      <point x="253" y="431"/>
      <point x="253" y="487" type="curve" smooth="yes"/>
      <point x="253" y="592"/>
      <point x="169" y="609"/>
      <point x="169" y="649" type="curve" smooth="yes"/>
      <point x="169" y="666"/>
      <point x="181" y="676"/>
      <point x="204" y="676" type="curve" smooth="yes"/>
      <point x="215" y="676"/>
      <point x="234" y="671"/>
      <point x="250" y="664" type="curve"/>
      <point x="282" y="754" type="line"/>
      <point x="272" y="761"/>
      <point x="253" y="768"/>
      <point x="232" y="772" type="curve"/>
      <point x="240" y="828" type="line"/>
      <point x="158" y="828" type="line"/>
      <point x="147" y="765" type="line"/>
      <point x="100" y="747"/>
      <point x="72" y="704"/>
      <point x="72" y="652" type="curve" smooth="yes"/>
      <point x="72" y="547"/>
      <point x="161" y="525"/>
      <point x="161" y="486" type="curve" smooth="yes"/>
      <point x="161" y="467"/>
      <point x="150" y="458"/>
      <point x="129" y="458" type="curve" smooth="yes"/>
      <point x="110" y="458"/>
      <point x="93" y="462"/>
      <point x="63" y="475" type="curve"/>
      <point x="33" y="388" type="line"/>
      <point x="46" y="379"/>
      <point x="63" y="373"/>
      <point x="85" y="368" type="curve"/>
    </contour>
  </outline>
</glyph>
<glyph name="eurosuperior" format="2">
  <advance width="216"/>
  <outline>
    <contour>
      <point x="189" y="464" type="curve" smooth="yes"/>
      <point x="170" y="464"/>
      <point x="163" y="476"/>
      <point x="163" y="499" type="curve" smooth="yes"/>
      <point x="163" y="646"/>
      <point x="205" y="676"/>
      <point x="227" y="676" type="curve" smooth="yes"/>
      <point x="236" y="676"/>
      <point x="250" y="672"/>
      <point x="259" y="667" type="curve"/>
      <point x="291" y="760" type="line"/>
      <point x="274" y="771"/>
      <point x="243" y="777"/>
      <point x="220" y="777" type="curve" smooth="yes"/>
      <point x="156" y="777"/>
      <point x="75" y="692"/>
      <point x="75" y="469" type="curve" smooth="yes"/>
      <point x="75" y="400"/>
      <point x="100" y="366"/>
      <point x="158" y="366" type="curve" smooth="yes"/>
      <point x="178" y="366"/>
      <point x="197" y="367"/>
      <point x="226" y="382" type="curve"/>
      <point x="226" y="475" type="line"/>
      <point x="209" y="466"/>
      <point x="199" y="464"/>
    </contour>
    <contour>
      <point x="244" y="577" type="line"/>
      <point x="253" y="625" type="line"/>
      <point x="63" y="625" type="line"/>
      <point x="55" y="577" type="line"/>
    </contour>
    <contour>
      <point x="234" y="508" type="line"/>
      <point x="242" y="556" type="line"/>
      <point x="53" y="556" type="line"/>
      <point x="45" y="508" type="line"/>
    </contour>
  </outline>
</glyph>
<glyph name="exclamdown.case" format="2">
  <advance width="190"/>
  <outline>
    <contour>
      <point x="193" y="441" type="line"/>
      <point x="51" y="441" type="line"/>
      <point x="-36" y="0" type="line"/>
      <point x="133" y="0" type="line"/>
    </contour>
    <contour>
      <point x="235" y="633" type="curve" smooth="yes"/>
      <point x="235" y="684"/>
      <point x="212" y="710"/>
      <point x="162" y="710" type="curve" smooth="yes"/>
      <point x="77" y="710"/>
      <point x="52" y="615"/>
      <point x="52" y="552" type="curve" smooth="yes"/>
      <point x="52" y="501"/>
      <point x="75" y="475"/>
      <point x="125" y="475" type="curve" smooth="yes"/>
      <point x="208" y="475"/>
      <point x="235" y="568"/>
    </contour>
  </outline>
</glyph>
<glyph name="f.superior" format="2">
  <advance width="159"/>
  <outline>
    <contour>
      <point x="180" y="586" type="line"/>
      <point x="204" y="586" type="line"/>
      <point x="218" y="671" type="line"/>
      <point x="194" y="671" type="line"/>
      <point x="198" y="698"/>
      <point x="203" y="702"/>
      <point x="215" y="702" type="curve" smooth="yes"/>
      <point x="221" y="702"/>
      <point x="227" y="700"/>
      <point x="235" y="697" type="curve"/>
      <point x="262" y="781" type="line"/>
      <point x="246" y="790"/>
      <point x="221" y="797"/>
      <point x="192" y="797" type="curve" smooth="yes"/>
      <point x="143" y="797"/>
      <point x="98" y="755"/>
      <point x="86" y="671" type="curve"/>
      <point x="63" y="667" type="line"/>
      <point x="50" y="586" type="line"/>
      <point x="72" y="586" type="line"/>
      <point x="40" y="385" type="line" smooth="yes"/>
      <point x="36" y="361"/>
      <point x="28" y="354"/>
      <point x="17" y="354" type="curve" smooth="yes"/>
      <point x="13" y="354"/>
      <point x="9" y="354"/>
      <point x="1" y="357" type="curve"/>
      <point x="-30" y="254" type="line"/>
      <point x="-12" y="248"/>
      <point x="9" y="244"/>
      <point x="24" y="244" type="curve" smooth="yes"/>
      <point x="89" y="244"/>
      <point x="132" y="283"/>
      <point x="146" y="370" type="curve" smooth="yes"/>
    </contour>
  </outline>
</glyph>
<glyph name="f_b.liga" format="2">
  <advance width="655"/>
  <outline>
    <contour>
      <point x="-31" y="-220" type="curve" smooth="yes"/>
      <point x="83" y="-220"/>
      <point x="137" y="-151"/>
      <point x="161" y="0" type="curve" smooth="yes"/>
      <point x="221" y="379" type="line"/>
      <point x="263" y="379" type="line"/>
      <point x="287" y="529" type="line"/>
      <point x="245" y="529" type="line"/>
      <point x="256" y="599"/>
      <point x="271" y="610"/>
      <point x="302" y="610" type="curve" smooth="yes"/>
      <point x="312" y="610"/>
      <point x="325" y="608"/>
      <point x="335" y="603" type="curve"/>
      <point x="243" y="19" type="line"/>
      <point x="270" y="6"/>
      <point x="318" y="-10"/>
      <point x="391" y="-10" type="curve" smooth="yes"/>
      <point x="585" y="-10"/>
      <point x="653" y="180"/>
      <point x="651" y="381" type="curve" smooth="yes"/>
      <point x="650" y="505"/>
      <point x="614" y="560"/>
      <point x="551" y="560" type="curve" smooth="yes"/>
      <point x="530" y="560"/>
      <point x="508" y="553"/>
      <point x="485" y="535" type="curve"/>
      <point x="516" y="715" type="line"/>
      <point x="448" y="734"/>
      <point x="367" y="750"/>
      <point x="305" y="750" type="curve" smooth="yes"/>
      <point x="176" y="750"/>
      <point x="107" y="676"/>
      <point x="83" y="529" type="curve"/>
      <point x="44" y="522" type="line"/>
      <point x="20" y="379" type="line"/>
      <point x="59" y="379" type="line"/>
      <point x="0" y="2" type="line" smooth="yes"/>
      <point x="-7" y="-40"/>
      <point x="-22" y="-52"/>
      <point x="-41" y="-52" type="curve" smooth="yes"/>
      <point x="-48" y="-52"/>
      <point x="-58" y="-52"/>
      <point x="-72" y="-47" type="curve"/>
      <point x="-119" y="-202" type="line"/>
      <point x="-88" y="-214"/>
      <point x="-59" y="-220"/>
    </contour>
    <contour>
      <point x="433" y="142" type="curve" smooth="yes"/>
      <point x="431" y="142"/>
      <point x="428" y="142"/>
      <point x="425" y="143" type="curve"/>
      <point x="464" y="390" type="line"/>
      <point x="467" y="392"/>
      <point x="471" y="393"/>
      <point x="473" y="393" type="curve" smooth="yes"/>
      <point x="481" y="393"/>
      <point x="484" y="382"/>
      <point x="484" y="373" type="curve" smooth="yes"/>
      <point x="484" y="244"/>
      <point x="456" y="142"/>
    </contour>
  </outline>
</glyph>
<glyph name="f_f_b.liga" format="2">
  <advance width="870"/>
  <outline>
    <contour>
      <point x="-31" y="-220" type="curve" smooth="yes"/>
      <point x="83" y="-220"/>
      <point x="137" y="-151"/>
      <point x="161" y="0" type="curve" smooth="yes"/>
      <point x="221" y="379" type="line"/>
      <point x="279" y="379" type="line"/>
      <point x="220" y="2" type="line" smooth="yes"/>
      <point x="213" y="-40"/>
      <point x="198" y="-52"/>
      <point x="179" y="-52" type="curve" smooth="yes"/>
      <point x="176" y="-52"/>
      <point x="171" y="-52"/>
      <point x="168" y="-52" type="curve"/>
      <point x="133" y="-216" type="line"/>
      <point x="147" y="-219"/>
      <point x="160" y="-220"/>
      <point x="172" y="-220" type="curve" smooth="yes"/>
      <point x="303" y="-220"/>
      <point x="357" y="-151"/>
      <point x="381" y="0" type="curve" smooth="yes"/>
      <point x="441" y="379" type="line"/>
      <point x="483" y="379" type="line"/>
      <point x="507" y="529" type="line"/>
      <point x="465" y="529" type="line"/>
      <point x="478" y="598"/>
      <point x="493" y="610"/>
      <point x="519" y="610" type="curve" smooth="yes"/>
      <point x="532" y="610"/>
      <point x="540" y="607"/>
      <point x="550" y="603" type="curve"/>
      <point x="458" y="19" type="line"/>
      <point x="485" y="6"/>
      <point x="533" y="-10"/>
      <point x="606" y="-10" type="curve" smooth="yes"/>
      <point x="800" y="-10"/>
      <point x="868" y="180"/>
      <point x="866" y="381" type="curve" smooth="yes"/>
      <point x="865" y="505"/>
      <point x="829" y="560"/>
      <point x="766" y="560" type="curve" smooth="yes"/>
      <point x="745" y="560"/>
      <point x="723" y="553"/>
      <point x="700" y="535" type="curve"/>
      <point x="731" y="715" type="line"/>
      <point x="663" y="734"/>
      <point x="587" y="750"/>
      <point x="525" y="750" type="curve" smooth="yes"/>
      <point x="477" y="750"/>
      <point x="438" y="740"/>
      <point x="406" y="720" type="curve"/>
      <point x="366" y="741"/>
      <point x="318" y="750"/>
      <point x="274" y="750" type="curve" smooth="yes"/>
      <point x="170" y="750"/>
      <point x="107" y="676"/>
      <point x="83" y="529" type="curve"/>
      <point x="44" y="522" type="line"/>
      <point x="20" y="379" type="line"/>
      <point x="59" y="379" type="line"/>
      <point x="0" y="2" type="line" smooth="yes"/>
      <point x="-7" y="-40"/>
      <point x="-22" y="-52"/>
      <point x="-41" y="-52" type="curve" smooth="yes"/>
      <point x="-48" y="-52"/>
      <point x="-58" y="-52"/>
      <point x="-72" y="-47" type="curve"/>
      <point x="-119" y="-202" type="line"/>
      <point x="-88" y="-214"/>
      <point x="-59" y="-220"/>
    </contour>
    <contour>
      <point x="245" y="529" type="line"/>
      <point x="253" y="590"/>
      <point x="269" y="607"/>
      <point x="292" y="607" type="curve" smooth="yes"/>
      <point x="303" y="607"/>
      <point x="313" y="605"/>
      <point x="322" y="600" type="curve"/>
      <point x="315" y="576"/>
      <point x="308" y="556"/>
      <point x="305" y="529" type="curve"/>
    </contour>
    <contour>
      <point x="648" y="142" type="curve" smooth="yes"/>
      <point x="646" y="142"/>
      <point x="643" y="142"/>
      <point x="640" y="143" type="curve"/>
      <point x="679" y="390" type="line"/>
      <point x="682" y="392"/>
      <point x="686" y="393"/>
      <point x="688" y="393" type="curve" smooth="yes"/>
      <point x="696" y="393"/>
      <point x="699" y="382"/>
      <point x="699" y="373" type="curve" smooth="yes"/>
      <point x="699" y="244"/>
      <point x="671" y="142"/>
    </contour>
  </outline>
</glyph>
<glyph name="f_f_h.liga" format="2">
  <advance width="873"/>
  <outline>
    <contour>
      <point x="-31" y="-220" type="curve" smooth="yes"/>
      <point x="83" y="-220"/>
      <point x="137" y="-151"/>
      <point x="161" y="0" type="curve" smooth="yes"/>
      <point x="221" y="379" type="line"/>
      <point x="279" y="379" type="line"/>
      <point x="220" y="2" type="line" smooth="yes"/>
      <point x="213" y="-40"/>
      <point x="198" y="-52"/>
      <point x="179" y="-52" type="curve" smooth="yes"/>
      <point x="176" y="-52"/>
      <point x="171" y="-52"/>
      <point x="168" y="-52" type="curve"/>
      <point x="133" y="-216" type="line"/>
      <point x="147" y="-219"/>
      <point x="160" y="-220"/>
      <point x="172" y="-220" type="curve" smooth="yes"/>
      <point x="303" y="-220"/>
      <point x="357" y="-151"/>
      <point x="381" y="0" type="curve" smooth="yes"/>
      <point x="441" y="379" type="line"/>
      <point x="483" y="379" type="line"/>
      <point x="507" y="529" type="line"/>
      <point x="465" y="529" type="line"/>
      <point x="477" y="597"/>
      <point x="492" y="610"/>
      <point x="520" y="610" type="curve" smooth="yes"/>
      <point x="532" y="610"/>
      <point x="540" y="607"/>
      <point x="550" y="602" type="curve"/>
      <point x="454" y="0" type="line"/>
      <point x="616" y="0" type="line"/>
      <point x="678" y="388" type="line"/>
      <point x="684" y="393"/>
      <point x="689" y="395"/>
      <point x="694" y="395" type="curve" smooth="yes"/>
      <point x="701" y="395"/>
      <point x="704" y="391"/>
      <point x="704" y="385" type="curve" smooth="yes"/>
      <point x="704" y="370"/>
      <point x="658" y="119"/>
      <point x="658" y="81" type="curve" smooth="yes"/>
      <point x="658" y="33"/>
      <point x="692" y="-10"/>
      <point x="752" y="-10" type="curve" smooth="yes"/>
      <point x="780" y="-10"/>
      <point x="808" y="0"/>
      <point x="829" y="15" type="curve"/>
      <point x="851" y="159" type="line"/>
      <point x="848" y="158"/>
      <point x="844" y="158"/>
      <point x="842" y="158" type="curve" smooth="yes"/>
      <point x="835" y="158"/>
      <point x="830" y="160"/>
      <point x="830" y="168" type="curve" smooth="yes"/>
      <point x="830" y="176"/>
      <point x="878" y="441"/>
      <point x="878" y="469" type="curve" smooth="yes"/>
      <point x="878" y="528"/>
      <point x="849" y="560"/>
      <point x="795" y="560" type="curve" smooth="yes"/>
      <point x="761" y="560"/>
      <point x="736" y="550"/>
      <point x="698" y="520" type="curve"/>
      <point x="728" y="715" type="line"/>
      <point x="660" y="734"/>
      <point x="587" y="750"/>
      <point x="525" y="750" type="curve" smooth="yes"/>
      <point x="478" y="750"/>
      <point x="438" y="740"/>
      <point x="406" y="720" type="curve"/>
      <point x="366" y="741"/>
      <point x="318" y="750"/>
      <point x="274" y="750" type="curve" smooth="yes"/>
      <point x="170" y="750"/>
      <point x="107" y="676"/>
      <point x="83" y="529" type="curve"/>
      <point x="44" y="522" type="line"/>
      <point x="20" y="379" type="line"/>
      <point x="59" y="379" type="line"/>
      <point x="0" y="2" type="line" smooth="yes"/>
      <point x="-7" y="-40"/>
      <point x="-22" y="-52"/>
      <point x="-41" y="-52" type="curve" smooth="yes"/>
      <point x="-48" y="-52"/>
      <point x="-58" y="-52"/>
      <point x="-72" y="-47" type="curve"/>
      <point x="-119" y="-202" type="line"/>
      <point x="-88" y="-214"/>
      <point x="-59" y="-220"/>
    </contour>
    <contour>
      <point x="245" y="529" type="line"/>
      <point x="253" y="590"/>
      <point x="269" y="607"/>
      <point x="292" y="607" type="curve" smooth="yes"/>
      <point x="303" y="607"/>
      <point x="313" y="605"/>
      <point x="322" y="600" type="curve"/>
      <point x="315" y="576"/>
      <point x="308" y="556"/>
      <point x="305" y="529" type="curve"/>
    </contour>
  </outline>
</glyph>
<glyph name="f_f_j.liga" format="2">
  <advance width="668"/>
  <outline>
    <contour>
      <point x="-31" y="-220" type="curve" smooth="yes"/>
      <point x="83" y="-220"/>
      <point x="137" y="-151"/>
      <point x="161" y="0" type="curve" smooth="yes"/>
      <point x="221" y="379" type="line"/>
      <point x="279" y="379" type="line"/>
      <point x="220" y="2" type="line" smooth="yes"/>
      <point x="213" y="-40"/>
      <point x="198" y="-52"/>
      <point x="179" y="-52" type="curve" smooth="yes"/>
      <point x="176" y="-52"/>
      <point x="171" y="-52"/>
      <point x="168" y="-52" type="curve"/>
      <point x="133" y="-216" type="line"/>
      <point x="147" y="-219"/>
      <point x="160" y="-220"/>
      <point x="172" y="-220" type="curve" smooth="yes"/>
      <point x="303" y="-220"/>
      <point x="357" y="-151"/>
      <point x="381" y="0" type="curve" smooth="yes"/>
      <point x="441" y="379" type="line"/>
      <point x="502" y="379" type="line"/>
      <point x="441" y="2" type="line" smooth="yes"/>
      <point x="434" y="-40"/>
      <point x="419" y="-52"/>
      <point x="400" y="-52" type="curve" smooth="yes"/>
      <point x="397" y="-52"/>
      <point x="391" y="-52"/>
      <point x="388" y="-52" type="curve"/>
      <point x="359" y="-216" type="line"/>
      <point x="371" y="-219"/>
      <point x="383" y="-220"/>
      <point x="393" y="-220" type="curve" smooth="yes"/>
      <point x="524" y="-220"/>
      <point x="578" y="-151"/>
      <point x="602" y="0" type="curve" smooth="yes"/>
      <point x="686" y="529" type="line"/>
      <point x="465" y="529" type="line"/>
      <point x="471" y="567"/>
      <point x="500" y="590"/>
      <point x="551" y="590" type="curve" smooth="yes"/>
      <point x="594" y="590"/>
      <point x="671" y="565"/>
      <point x="671" y="565" type="curve"/>
      <point x="736" y="710" type="line"/>
      <point x="664" y="743"/>
      <point x="587" y="750"/>
      <point x="552" y="750" type="curve" smooth="yes"/>
      <point x="499" y="750"/>
      <point x="453" y="738"/>
      <point x="415" y="715" type="curve"/>
      <point x="373" y="739"/>
      <point x="321" y="750"/>
      <point x="274" y="750" type="curve" smooth="yes"/>
      <point x="170" y="750"/>
      <point x="107" y="676"/>
      <point x="83" y="529" type="curve"/>
      <point x="44" y="522" type="line"/>
      <point x="20" y="379" type="line"/>
      <point x="59" y="379" type="line"/>
      <point x="0" y="2" type="line" smooth="yes"/>
      <point x="-7" y="-40"/>
      <point x="-22" y="-52"/>
      <point x="-41" y="-52" type="curve" smooth="yes"/>
      <point x="-48" y="-52"/>
      <point x="-58" y="-52"/>
      <point x="-72" y="-47" type="curve"/>
      <point x="-119" y="-202" type="line"/>
      <point x="-88" y="-214"/>
      <point x="-59" y="-220"/>
    </contour>
    <contour>
      <point x="245" y="529" type="line"/>
      <point x="253" y="590"/>
      <point x="269" y="607"/>
      <point x="292" y="607" type="curve" smooth="yes"/>
      <point x="303" y="607"/>
      <point x="313" y="605"/>
      <point x="322" y="600" type="curve"/>
      <point x="315" y="576"/>
      <point x="308" y="556"/>
      <point x="305" y="529" type="curve"/>
    </contour>
  </outline>
</glyph>
<glyph name="f_f_k.liga" format="2">
  <advance width="858"/>
  <outline>
    <contour>
      <point x="-31" y="-220" type="curve" smooth="yes"/>
      <point x="83" y="-220"/>
      <point x="137" y="-151"/>
      <point x="161" y="0" type="curve" smooth="yes"/>
      <point x="221" y="379" type="line"/>
      <point x="279" y="379" type="line"/>
      <point x="220" y="2" type="line" smooth="yes"/>
      <point x="213" y="-40"/>
      <point x="198" y="-52"/>
      <point x="179" y="-52" type="curve" smooth="yes"/>
      <point x="176" y="-52"/>
      <point x="171" y="-52"/>
      <point x="168" y="-52" type="curve"/>
      <point x="133" y="-216" type="line"/>
      <point x="147" y="-219"/>
      <point x="160" y="-220"/>
      <point x="172" y="-220" type="curve" smooth="yes"/>
      <point x="303" y="-220"/>
      <point x="357" y="-151"/>
      <point x="381" y="0" type="curve" smooth="yes"/>
      <point x="441" y="379" type="line"/>
      <point x="483" y="379" type="line"/>
      <point x="507" y="529" type="line"/>
      <point x="465" y="529" type="line"/>
      <point x="476" y="597"/>
      <point x="495" y="610"/>
      <point x="520" y="610" type="curve" smooth="yes"/>
      <point x="530" y="610"/>
      <point x="538" y="607"/>
      <point x="550" y="602" type="curve"/>
      <point x="455" y="0" type="line"/>
      <point x="617" y="0" type="line"/>
      <point x="728" y="715" type="line"/>
      <point x="660" y="734"/>
      <point x="587" y="750"/>
      <point x="525" y="750" type="curve" smooth="yes"/>
      <point x="478" y="750"/>
      <point x="438" y="740"/>
      <point x="406" y="720" type="curve"/>
      <point x="366" y="741"/>
      <point x="318" y="750"/>
      <point x="274" y="750" type="curve" smooth="yes"/>
      <point x="170" y="750"/>
      <point x="107" y="676"/>
      <point x="83" y="529" type="curve"/>
      <point x="44" y="522" type="line"/>
      <point x="20" y="379" type="line"/>
      <point x="59" y="379" type="line"/>
      <point x="0" y="2" type="line" smooth="yes"/>
      <point x="-7" y="-40"/>
      <point x="-22" y="-52"/>
      <point x="-41" y="-52" type="curve" smooth="yes"/>
      <point x="-48" y="-52"/>
      <point x="-58" y="-52"/>
      <point x="-72" y="-47" type="curve"/>
      <point x="-119" y="-202" type="line"/>
      <point x="-88" y="-214"/>
      <point x="-59" y="-220"/>
    </contour>
    <contour>
      <point x="245" y="529" type="line"/>
      <point x="253" y="590"/>
      <point x="269" y="607"/>
      <point x="292" y="607" type="curve" smooth="yes"/>
      <point x="303" y="607"/>
      <point x="313" y="605"/>
      <point x="322" y="600" type="curve"/>
      <point x="315" y="576"/>
      <point x="308" y="556"/>
      <point x="305" y="529" type="curve"/>
    </contour>
    <contour>
      <point x="757" y="-10" type="curve" smooth="yes"/>
      <point x="773" y="-10"/>
      <point x="789" y="-8"/>
      <point x="807" y="-1" type="curve"/>
      <point x="835" y="190" type="line"/>
      <point x="828" y="190"/>
      <point x="822" y="191"/>
      <point x="817" y="192" type="curve" smooth="yes"/>
      <point x="795" y="196"/>
      <point x="779" y="209"/>
      <point x="737" y="283" type="curve" smooth="yes"/>
      <point x="669" y="404" type="line"/>
      <point x="627" y="189" type="line"/>
      <point x="664" y="86" type="line" smooth="yes"/>
      <point x="686" y="26"/>
      <point x="714" y="-10"/>
    </contour>
    <contour>
      <point x="734" y="227" type="line"/>
      <point x="811" y="315"/>
      <point x="878" y="441"/>
      <point x="901" y="545" type="curve"/>
      <point x="741" y="560" type="line"/>
      <point x="725" y="458"/>
      <point x="701" y="404"/>
      <point x="663" y="347" type="curve"/>
    </contour>
  </outline>
</glyph>
<glyph name="f_f_t.liga" format="2">
  <advance width="694"/>
  <outline>
    <contour>
      <point x="-31" y="-220" type="curve" smooth="yes"/>
      <point x="83" y="-220"/>
      <point x="137" y="-151"/>
      <point x="161" y="0" type="curve" smooth="yes"/>
      <point x="221" y="379" type="line"/>
      <point x="279" y="379" type="line"/>
      <point x="220" y="2" type="line" smooth="yes"/>
      <point x="213" y="-40"/>
      <point x="198" y="-52"/>
      <point x="179" y="-52" type="curve" smooth="yes"/>
      <point x="176" y="-52"/>
      <point x="171" y="-52"/>
      <point x="168" y="-52" type="curve"/>
      <point x="133" y="-216" type="line"/>
      <point x="147" y="-219"/>
      <point x="160" y="-220"/>
      <point x="172" y="-220" type="curve" smooth="yes"/>
      <point x="303" y="-220"/>
      <point x="357" y="-151"/>
      <point x="381" y="0" type="curve" smooth="yes"/>
      <point x="441" y="380" type="line"/>
      <point x="496" y="380" type="line"/>
      <point x="461" y="175" type="line" smooth="yes"/>
      <point x="456" y="146"/>
      <point x="451" y="104"/>
      <point x="451" y="83" type="curve" smooth="yes"/>
      <point x="451" y="5"/>
      <point x="505" y="-10"/>
      <point x="545" y="-10" type="curve" smooth="yes"/>
      <point x="584" y="-10"/>
      <point x="617" y="-2"/>
      <point x="643" y="14" type="curve"/>
      <point x="663" y="150" type="line"/>
      <point x="655" y="148"/>
      <point x="650" y="147"/>
      <point x="645" y="147" type="curve" smooth="yes"/>
      <point x="626" y="147"/>
      <point x="621" y="157"/>
      <point x="621" y="172" type="curve" smooth="yes"/>
      <point x="621" y="179"/>
      <point x="621" y="186"/>
      <point x="623" y="195" type="curve" smooth="yes"/>
      <point x="655" y="379" type="line"/>
      <point x="703" y="379" type="line"/>
      <point x="728" y="529" type="line"/>
      <point x="678" y="529" type="line"/>
      <point x="708" y="714" type="line"/>
      <point x="635" y="744"/>
      <point x="587" y="750"/>
      <point x="525" y="750" type="curve" smooth="yes"/>
      <point x="478" y="750"/>
      <point x="438" y="740"/>
      <point x="406" y="720" type="curve"/>
      <point x="366" y="741"/>
      <point x="318" y="750"/>
      <point x="274" y="750" type="curve" smooth="yes"/>
      <point x="170" y="750"/>
      <point x="107" y="676"/>
      <point x="83" y="529" type="curve"/>
      <point x="44" y="522" type="line"/>
      <point x="20" y="379" type="line"/>
      <point x="59" y="379" type="line"/>
      <point x="0" y="2" type="line" smooth="yes"/>
      <point x="-7" y="-40"/>
      <point x="-22" y="-52"/>
      <point x="-41" y="-52" type="curve" smooth="yes"/>
      <point x="-48" y="-52"/>
      <point x="-58" y="-52"/>
      <point x="-72" y="-47" type="curve"/>
      <point x="-119" y="-202" type="line"/>
      <point x="-88" y="-214"/>
      <point x="-59" y="-220"/>
    </contour>
    <contour>
      <point x="245" y="529" type="line"/>
      <point x="253" y="590"/>
      <point x="269" y="607"/>
      <point x="292" y="607" type="curve" smooth="yes"/>
      <point x="303" y="607"/>
      <point x="313" y="605"/>
      <point x="322" y="600" type="curve"/>
      <point x="315" y="576"/>
      <point x="308" y="556"/>
      <point x="305" y="529" type="curve"/>
    </contour>
    <contour>
      <point x="465" y="529" type="line"/>
      <point x="478" y="596"/>
      <point x="487" y="610"/>
      <point x="524" y="610" type="curve" smooth="yes"/>
      <point x="533" y="610"/>
      <point x="540" y="609"/>
      <point x="551" y="604" type="curve"/>
      <point x="524" y="529" type="line"/>
    </contour>
  </outline>
</glyph>
<glyph name="f_h.liga" format="2">
  <advance width="653"/>
  <outline>
    <contour>
      <point x="-31" y="-220" type="curve" smooth="yes"/>
      <point x="83" y="-220"/>
      <point x="137" y="-151"/>
      <point x="161" y="0" type="curve" smooth="yes"/>
      <point x="221" y="380" type="line"/>
      <point x="263" y="380" type="line"/>
      <point x="287" y="530" type="line"/>
      <point x="245" y="530" type="line"/>
      <point x="254" y="581"/>
      <point x="268" y="610"/>
      <point x="301" y="610" type="curve" smooth="yes"/>
      <point x="310" y="610"/>
      <point x="318" y="608"/>
      <point x="330" y="602" type="curve"/>
      <point x="234" y="0" type="line"/>
      <point x="396" y="0" type="line"/>
      <point x="458" y="388" type="line"/>
      <point x="464" y="393"/>
      <point x="469" y="395"/>
      <point x="474" y="395" type="curve" smooth="yes"/>
      <point x="481" y="395"/>
      <point x="484" y="391"/>
      <point x="484" y="385" type="curve" smooth="yes"/>
      <point x="484" y="370"/>
      <point x="438" y="119"/>
      <point x="438" y="81" type="curve" smooth="yes"/>
      <point x="438" y="33"/>
      <point x="472" y="-10"/>
      <point x="532" y="-10" type="curve" smooth="yes"/>
      <point x="560" y="-10"/>
      <point x="588" y="0"/>
      <point x="609" y="15" type="curve"/>
      <point x="631" y="159" type="line"/>
      <point x="628" y="158"/>
      <point x="624" y="158"/>
      <point x="622" y="158" type="curve" smooth="yes"/>
      <point x="615" y="158"/>
      <point x="610" y="160"/>
      <point x="610" y="168" type="curve" smooth="yes"/>
      <point x="610" y="176"/>
      <point x="658" y="441"/>
      <point x="658" y="469" type="curve" smooth="yes"/>
      <point x="658" y="528"/>
      <point x="629" y="560"/>
      <point x="575" y="560" type="curve" smooth="yes"/>
      <point x="541" y="560"/>
      <point x="516" y="550"/>
      <point x="478" y="520" type="curve"/>
      <point x="508" y="716" type="line"/>
      <point x="440" y="735"/>
      <point x="367" y="750"/>
      <point x="305" y="750" type="curve" smooth="yes"/>
      <point x="176" y="750"/>
      <point x="106" y="677"/>
      <point x="83" y="530" type="curve"/>
      <point x="44" y="523" type="line"/>
      <point x="20" y="380" type="line"/>
      <point x="59" y="380" type="line"/>
      <point x="0" y="2" type="line" smooth="yes"/>
      <point x="-7" y="-40"/>
      <point x="-22" y="-52"/>
      <point x="-41" y="-52" type="curve" smooth="yes"/>
      <point x="-48" y="-52"/>
      <point x="-58" y="-52"/>
      <point x="-72" y="-47" type="curve"/>
      <point x="-119" y="-202" type="line"/>
      <point x="-88" y="-214"/>
      <point x="-59" y="-220"/>
    </contour>
  </outline>
</glyph>
<glyph name="f_k.liga" format="2">
  <advance width="639"/>
  <outline>
    <contour>
      <point x="-31" y="-220" type="curve" smooth="yes"/>
      <point x="83" y="-220"/>
      <point x="137" y="-151"/>
      <point x="161" y="0" type="curve" smooth="yes"/>
      <point x="221" y="380" type="line"/>
      <point x="263" y="380" type="line"/>
      <point x="287" y="530" type="line"/>
      <point x="245" y="530" type="line"/>
      <point x="257" y="597"/>
      <point x="272" y="610"/>
      <point x="300" y="610" type="curve" smooth="yes"/>
      <point x="311" y="610"/>
      <point x="319" y="607"/>
      <point x="330" y="602" type="curve"/>
      <point x="235" y="0" type="line"/>
      <point x="397" y="0" type="line"/>
      <point x="508" y="716" type="line"/>
      <point x="440" y="735"/>
      <point x="367" y="750"/>
      <point x="305" y="750" type="curve" smooth="yes"/>
      <point x="176" y="750"/>
      <point x="106" y="677"/>
      <point x="83" y="530" type="curve"/>
      <point x="44" y="523" type="line"/>
      <point x="20" y="380" type="line"/>
      <point x="59" y="380" type="line"/>
      <point x="0" y="2" type="line" smooth="yes"/>
      <point x="-7" y="-40"/>
      <point x="-22" y="-52"/>
      <point x="-41" y="-52" type="curve" smooth="yes"/>
      <point x="-48" y="-52"/>
      <point x="-58" y="-52"/>
      <point x="-72" y="-47" type="curve"/>
      <point x="-119" y="-202" type="line"/>
      <point x="-88" y="-214"/>
      <point x="-59" y="-220"/>
    </contour>
    <contour>
      <point x="538" y="-10" type="curve" smooth="yes"/>
      <point x="554" y="-10"/>
      <point x="570" y="-8"/>
      <point x="588" y="-1" type="curve"/>
      <point x="616" y="190" type="line"/>
      <point x="609" y="190"/>
      <point x="603" y="191"/>
      <point x="598" y="192" type="curve" smooth="yes"/>
      <point x="576" y="196"/>
      <point x="560" y="209"/>
      <point x="518" y="283" type="curve" smooth="yes"/>
      <point x="450" y="404" type="line"/>
      <point x="408" y="189" type="line"/>
      <point x="445" y="86" type="line" smooth="yes"/>
      <point x="467" y="26"/>
      <point x="495" y="-10"/>
    </contour>
    <contour>
      <point x="515" y="227" type="line"/>
      <point x="592" y="315"/>
      <point x="659" y="441"/>
      <point x="682" y="545" type="curve"/>
      <point x="522" y="560" type="line"/>
      <point x="506" y="458"/>
      <point x="482" y="404"/>
      <point x="444" y="347" type="curve"/>
    </contour>
  </outline>
</glyph>
<glyph name="g.sc" format="2">
  <advance width="382"/>
  <anchor x="274" y="625" name="top"/>
  <anchor x="183" y="0" name="bottom"/>
  <outline>
    <contour>
      <point x="13" y="190" type="curve" smooth="yes"/>
      <point x="13" y="64"/>
      <point x="75" y="-10"/>
      <point x="180" y="-10" type="curve" smooth="yes"/>
      <point x="235" y="-10"/>
      <point x="277" y="2"/>
      <point x="320" y="30" type="curve"/>
      <point x="376" y="369" type="line"/>
      <point x="214" y="369" type="line"/>
      <point x="196" y="244" type="line"/>
      <point x="222" y="244" type="line"/>
      <point x="205" y="149" type="line"/>
      <point x="202" y="145"/>
      <point x="193" y="142"/>
      <point x="182" y="142" type="curve" smooth="yes"/>
      <point x="169" y="142"/>
      <point x="158" y="150"/>
      <point x="158" y="206" type="curve" smooth="yes"/>
      <point x="158" y="347"/>
      <point x="207" y="475"/>
      <point x="281" y="475" type="curve" smooth="yes"/>
      <point x="314" y="475"/>
      <point x="333" y="465"/>
      <point x="350" y="458" type="curve"/>
      <point x="398" y="600" type="line"/>
      <point x="355" y="623"/>
      <point x="323" y="632"/>
      <point x="281" y="632" type="curve" smooth="yes"/>
      <point x="124" y="632"/>
      <point x="13" y="440"/>
    </contour>
  </outline>
</glyph>
<glyph name="gravecomb.case" format="2">
  <anchor x="-128" y="939" name="top"/>
  <anchor x="-142" y="700" name="_top"/>
  <outline>
    <contour>
      <point x="-178" y="745" type="line"/>
      <point x="-55" y="745" type="line"/>
      <point x="-70" y="939" type="line"/>
      <point x="-231" y="939" type="line"/>
    </contour>
  </outline>
</glyph>
<glyph name="h.sc" format="2">
  <advance width="409"/>
  <anchor x="159" y="0" name="bottom"/>
  <anchor x="257" y="625" name="top"/>
  <anchor x="64" y="625" name="topleft"/>
  <anchor x="205" y="275" name="center"/>
  <outline>
    <contour>
      <point x="-21" y="0" type="line"/>
      <point x="142" y="0" type="line"/>
      <point x="177" y="216" type="line"/>
      <point x="215" y="216" type="line"/>
      <point x="181" y="0" type="line"/>
      <point x="342" y="0" type="line"/>
      <point x="441" y="625" type="line"/>
      <point x="280" y="625" type="line"/>
      <point x="236" y="354" type="line"/>
      <point x="198" y="354" type="line"/>
      <point x="241" y="625" type="line"/>
      <point x="78" y="625" type="line"/>
    </contour>
  </outline>
</glyph>
<glyph name="j.sc" format="2">
  <advance width="292"/>
  <anchor x="211" y="625" name="top"/>
  <anchor x="82" y="0" name="bottom"/>
  <outline>
    <contour>
      <point x="-39" y="21" type="line"/>
      <point x="-13" y="5"/>
      <point x="25" y="-9"/>
      <point x="82" y="-9" type="curve" smooth="yes"/>
      <point x="168" y="-9"/>
      <point x="236" y="53"/>
      <point x="255" y="174" type="curve" smooth="yes"/>
      <point x="326" y="625" type="line"/>
      <point x="96" y="625" type="line"/>
      <point x="74" y="489" type="line"/>
      <point x="142" y="489" type="line"/>
      <point x="108" y="258" type="line" smooth="yes"/>
      <point x="97" y="180"/>
      <point x="80" y="167"/>
      <point x="50" y="167" type="curve" smooth="yes"/>
      <point x="41" y="167"/>
      <point x="26" y="172"/>
      <point x="15" y="176" type="curve"/>
    </contour>
  </outline>
</glyph>
<glyph name="k.superior" format="2">
  <advance width="252"/>
  <outline>
    <contour>
      <point x="32" y="370" type="line"/>
      <point x="138" y="370" type="line"/>
      <point x="205" y="792" type="line"/>
      <point x="99" y="792" type="line"/>
    </contour>
    <contour>
      <point x="232" y="364" type="curve" smooth="yes"/>
      <point x="242" y="364"/>
      <point x="257" y="367"/>
      <point x="264" y="371" type="curve"/>
      <point x="281" y="483" type="line"/>
      <point x="277" y="483"/>
      <point x="273" y="483"/>
      <point x="270" y="484" type="curve" smooth="yes"/>
      <point x="254" y="489"/>
      <point x="234" y="520"/>
      <point x="202" y="561" type="curve" smooth="yes"/>
      <point x="162" y="611" type="line"/>
      <point x="140" y="484" type="line"/>
      <point x="157" y="440" type="line" smooth="yes"/>
      <point x="178" y="386"/>
      <point x="204" y="364"/>
    </contour>
    <contour>
      <point x="214" y="515" type="line"/>
      <point x="275" y="558"/>
      <point x="312" y="623"/>
      <point x="322" y="680" type="curve"/>
      <point x="221" y="690" type="line"/>
      <point x="215" y="654"/>
      <point x="197" y="617"/>
      <point x="171" y="584" type="curve"/>
    </contour>
  </outline>
</glyph>
<glyph name="l.superior" format="2">
  <advance width="146"/>
  <outline>
    <contour>
      <point x="206" y="792" type="line"/>
      <point x="99" y="792" type="line"/>
      <point x="43" y="438" type="line" smooth="yes"/>
      <point x="42" y="432"/>
      <point x="41" y="426"/>
      <point x="41" y="418" type="curve" smooth="yes"/>
      <point x="41" y="393"/>
      <point x="56" y="364"/>
      <point x="95" y="364" type="curve" smooth="yes"/>
      <point x="109" y="364"/>
      <point x="146" y="370"/>
      <point x="156" y="378" type="curve"/>
      <point x="168" y="460" type="line"/>
      <point x="164" y="459"/>
      <point x="163" y="459"/>
      <point x="161" y="459" type="curve" smooth="yes"/>
      <point x="156" y="459"/>
      <point x="155" y="463"/>
      <point x="155" y="467" type="curve" smooth="yes"/>
      <point x="155" y="471"/>
      <point x="155" y="472"/>
      <point x="156" y="480" type="curve" smooth="yes"/>
    </contour>
  </outline>
</glyph>
<glyph name="m.superior" format="2">
  <advance width="393"/>
  <outline>
    <contour>
      <point x="342" y="364" type="curve" smooth="yes"/>
      <point x="358" y="364"/>
      <point x="389" y="370"/>
      <point x="400" y="378" type="curve"/>
      <point x="413" y="460" type="line"/>
      <point x="411" y="460"/>
      <point x="410" y="460"/>
      <point x="408" y="460" type="curve" smooth="yes"/>
      <point x="404" y="460"/>
      <point x="401" y="462"/>
      <point x="401" y="469" type="curve" smooth="yes"/>
      <point x="401" y="484"/>
      <point x="428" y="625"/>
      <point x="428" y="643" type="curve" smooth="yes"/>
      <point x="428" y="669"/>
      <point x="411" y="690"/>
      <point x="379" y="690" type="curve" smooth="yes"/>
      <point x="361" y="690"/>
      <point x="325" y="686"/>
      <point x="298" y="661" type="curve"/>
      <point x="292" y="679"/>
      <point x="273" y="690"/>
      <point x="251" y="690" type="curve" smooth="yes"/>
      <point x="232" y="690"/>
      <point x="201" y="684"/>
      <point x="176" y="663" type="curve"/>
      <point x="180" y="683" type="line"/>
      <point x="81" y="683" type="line"/>
      <point x="31" y="370" type="line"/>
      <point x="138" y="370" type="line"/>
      <point x="171" y="578" type="line"/>
      <point x="173" y="580"/>
      <point x="178" y="582"/>
      <point x="182" y="582" type="curve" smooth="yes"/>
      <point x="186" y="582"/>
      <point x="187" y="579"/>
      <point x="187" y="576" type="curve" smooth="yes"/>
      <point x="187" y="571"/>
      <point x="153" y="370"/>
      <point x="153" y="370" type="curve"/>
      <point x="261" y="370" type="line"/>
      <point x="272" y="436"/>
      <point x="282" y="502"/>
      <point x="293" y="568" type="curve"/>
      <point x="294" y="573"/>
      <point x="294" y="574"/>
      <point x="295" y="578" type="curve"/>
      <point x="298" y="580"/>
      <point x="303" y="582"/>
      <point x="305" y="582" type="curve" smooth="yes"/>
      <point x="309" y="582"/>
      <point x="311" y="579"/>
      <point x="311" y="576" type="curve" smooth="yes"/>
      <point x="311" y="567"/>
      <point x="286" y="433"/>
      <point x="286" y="417" type="curve" smooth="yes"/>
      <point x="286" y="385"/>
      <point x="308" y="364"/>
    </contour>
  </outline>
</glyph>
<glyph name="multiplysuperior" format="2">
  <advance width="244"/>
  <outline>
    <contour>
      <point x="118" y="462" type="line"/>
      <point x="157" y="500" type="line"/>
      <point x="185" y="462" type="line"/>
      <point x="253" y="527" type="line"/>
      <point x="226" y="564" type="line"/>
      <point x="265" y="602" type="line"/>
      <point x="217" y="666" type="line"/>
      <point x="178" y="629" type="line"/>
      <point x="150" y="666" type="line"/>
      <point x="82" y="602" type="line"/>
      <point x="110" y="564" type="line"/>
      <point x="70" y="527" type="line"/>
    </contour>
  </outline>
</glyph>
<glyph name="o.superior" format="2">
  <advance width="231"/>
  <outline>
    <contour>
      <point x="176" y="689" type="curve" smooth="yes"/>
      <point x="92" y="689"/>
      <point x="44" y="579"/>
      <point x="44" y="447" type="curve" smooth="yes"/>
      <point x="44" y="387"/>
      <point x="81" y="364"/>
      <point x="135" y="364" type="curve" smooth="yes"/>
      <point x="219" y="364"/>
      <point x="267" y="474"/>
      <point x="267" y="606" type="curve" smooth="yes"/>
      <point x="267" y="666"/>
      <point x="230" y="689"/>
    </contour>
    <contour>
      <point x="171" y="596" type="curve" smooth="yes"/>
      <point x="174" y="596"/>
      <point x="176" y="595"/>
      <point x="176" y="590" type="curve" smooth="yes"/>
      <point x="176" y="551"/>
      <point x="152" y="457"/>
      <point x="142" y="457" type="curve" smooth="yes"/>
      <point x="139" y="457"/>
      <point x="137" y="458"/>
      <point x="137" y="463" type="curve" smooth="yes"/>
      <point x="137" y="502"/>
      <point x="161" y="596"/>
    </contour>
  </outline>
</glyph>
<glyph name="one.tosf" format="2">
  <advance width="420"/>
  <outline>
    <contour>
      <point x="25" y="0" type="line"/>
      <point x="309" y="0" type="line"/>
      <point x="334" y="160" type="line"/>
      <point x="271" y="160" type="line"/>
      <point x="307" y="390" type="line"/>
      <point x="370" y="390" type="line"/>
      <point x="396" y="550" type="line"/>
      <point x="112" y="550" type="line"/>
      <point x="86" y="390" type="line"/>
      <point x="159" y="390" type="line"/>
      <point x="123" y="160" type="line"/>
      <point x="50" y="160" type="line"/>
    </contour>
  </outline>
</glyph>
<glyph name="p.sc" format="2">
  <advance width="408"/>
  <outline>
    <contour>
      <point x="-21" y="0" type="line"/>
      <point x="141" y="0" type="line"/>
      <point x="165" y="142" type="line"/>
      <point x="191" y="138"/>
      <point x="195" y="136"/>
      <point x="215" y="136" type="curve" smooth="yes"/>
      <point x="377" y="136"/>
      <point x="421" y="369"/>
      <point x="421" y="466" type="curve" smooth="yes"/>
      <point x="421" y="581"/>
      <point x="368" y="632"/>
      <point x="261" y="632" type="curve" smooth="yes"/>
      <point x="239" y="632"/>
      <point x="171" y="631"/>
      <point x="78" y="625" type="curve"/>
    </contour>
    <contour>
      <point x="220" y="491" type="line"/>
      <point x="226" y="493"/>
      <point x="232" y="494"/>
      <point x="237" y="494" type="curve" smooth="yes"/>
      <point x="253" y="494"/>
      <point x="262" y="484"/>
      <point x="262" y="452" type="curve" smooth="yes"/>
      <point x="262" y="381"/>
      <point x="237" y="287"/>
      <point x="203" y="287" type="curve" smooth="yes"/>
      <point x="198" y="287"/>
      <point x="194" y="287"/>
      <point x="188" y="289" type="curve"/>
    </contour>
  </outline>
</glyph>
<glyph name="q.sc" format="2">
  <advance width="415"/>
  <outline>
    <contour>
      <point x="252" y="22" type="curve"/>
      <point x="126" y="18" type="line"/>
      <point x="121" y="-123"/>
      <point x="213" y="-161"/>
      <point x="286" y="-161" type="curve" smooth="yes"/>
      <point x="303" y="-161"/>
      <point x="313" y="-161"/>
      <point x="325" y="-157" type="curve"/>
      <point x="345" y="-9" type="line"/>
      <point x="337" y="-11"/>
      <point x="333" y="-12"/>
      <point x="320" y="-12" type="curve" smooth="yes"/>
      <point x="278" y="-12"/>
      <point x="253" y="6"/>
    </contour>
    <component base="o.sc"/>
  </outline>
</glyph>
<glyph name="q.superior" format="2">
  <advance width="253"/>
  <outline>
    <contour>
      <point x="202" y="690" type="curve" smooth="yes"/>
      <point x="69" y="690"/>
      <point x="44" y="542"/>
      <point x="44" y="460" type="curve" smooth="yes"/>
      <point x="44" y="393"/>
      <point x="69" y="364"/>
      <point x="110" y="364" type="curve" smooth="yes"/>
      <point x="120" y="364"/>
      <point x="136" y="368"/>
      <point x="145" y="378" type="curve"/>
      <point x="125" y="250" type="line"/>
      <point x="230" y="250" type="line"/>
      <point x="300" y="670" type="line"/>
      <point x="282" y="678"/>
      <point x="233" y="690"/>
    </contour>
    <contour>
      <point x="158" y="460" type="line"/>
      <point x="156" y="459"/>
      <point x="154" y="458"/>
      <point x="152" y="458" type="curve" smooth="yes"/>
      <point x="148" y="458"/>
      <point x="145" y="460"/>
      <point x="145" y="470" type="curve" smooth="yes"/>
      <point x="145" y="478"/>
      <point x="158" y="600"/>
      <point x="175" y="600" type="curve" smooth="yes"/>
      <point x="176" y="600"/>
      <point x="178" y="600"/>
      <point x="180" y="598" type="curve"/>
    </contour>
  </outline>
</glyph>
<glyph name="r.sc" format="2">
  <advance width="408"/>
  <anchor x="248" y="625" name="top"/>
  <anchor x="169" y="0" name="bottom"/>
  <outline>
    <contour>
      <point x="-21" y="0" type="line"/>
      <point x="142" y="0" type="line"/>
      <point x="170" y="182" type="line"/>
      <point x="177" y="182"/>
      <point x="183" y="182"/>
      <point x="190" y="182" type="curve"/>
      <point x="288" y="233" type="line"/>
      <point x="363" y="260"/>
      <point x="417" y="346"/>
      <point x="417" y="467" type="curve" smooth="yes"/>
      <point x="417" y="563"/>
      <point x="358" y="632"/>
      <point x="242" y="632" type="curve" smooth="yes"/>
      <point x="190" y="632"/>
      <point x="154" y="629"/>
      <point x="78" y="622" type="curve"/>
    </contour>
    <contour>
      <point x="306" y="-10" type="curve" smooth="yes"/>
      <point x="322" y="-10"/>
      <point x="349" y="-4"/>
      <point x="360" y="1" type="curve"/>
      <point x="377" y="163" type="line"/>
      <point x="374" y="163"/>
      <point x="371" y="163"/>
      <point x="368" y="163" type="curve" smooth="yes"/>
      <point x="325" y="163"/>
      <point x="301" y="196"/>
      <point x="298" y="261" type="curve"/>
      <point x="169" y="212" type="line"/>
      <point x="197" y="31"/>
      <point x="220" y="-10"/>
    </contour>
    <contour>
      <point x="204" y="304" type="curve" smooth="yes"/>
      <point x="202" y="304"/>
      <point x="198" y="305"/>
      <point x="191" y="306" type="curve"/>
      <point x="218" y="481" type="line"/>
      <point x="225" y="483"/>
      <point x="232" y="484"/>
      <point x="237" y="484" type="curve" smooth="yes"/>
      <point x="252" y="484"/>
      <point x="261" y="474"/>
      <point x="261" y="436" type="curve" smooth="yes"/>
      <point x="261" y="375"/>
      <point x="233" y="304"/>
    </contour>
  </outline>
</glyph>
<glyph name="r.superior" format="2">
  <advance width="182"/>
  <outline>
    <contour>
      <point x="181" y="683" type="line"/>
      <point x="81" y="683" type="line"/>
      <point x="31" y="370" type="line"/>
      <point x="139" y="370" type="line"/>
      <point x="168" y="549" type="line"/>
      <point x="177" y="554"/>
      <point x="183" y="555"/>
      <point x="191" y="555" type="curve" smooth="yes"/>
      <point x="194" y="555"/>
      <point x="203" y="555"/>
      <point x="210" y="553" type="curve"/>
      <point x="244" y="684" type="line"/>
      <point x="236" y="688"/>
      <point x="230" y="689"/>
      <point x="222" y="689" type="curve" smooth="yes"/>
      <point x="209" y="689"/>
      <point x="195" y="680"/>
      <point x="177" y="657" type="curve"/>
    </contour>
  </outline>
</glyph>
<glyph name="s.sc" format="2">
  <advance width="357"/>
  <anchor x="260" y="625" name="top"/>
  <anchor x="133" y="0" name="bottom"/>
  <outline>
    <contour>
      <point x="386" y="600" type="line"/>
      <point x="354" y="621"/>
      <point x="298" y="632"/>
      <point x="248" y="632" type="curve" smooth="yes"/>
      <point x="117" y="632"/>
      <point x="33" y="545"/>
      <point x="33" y="421" type="curve" smooth="yes"/>
      <point x="33" y="271"/>
      <point x="180" y="229"/>
      <point x="180" y="179" type="curve" smooth="yes"/>
      <point x="180" y="152"/>
      <point x="161" y="141"/>
      <point x="127" y="141" type="curve" smooth="yes"/>
      <point x="93" y="141"/>
      <point x="62" y="152"/>
      <point x="18" y="170" type="curve"/>
      <point x="-34" y="28" type="line"/>
      <point x="15" y="0"/>
      <point x="73" y="-9"/>
      <point x="127" y="-9" type="curve" smooth="yes"/>
      <point x="270" y="-9"/>
      <point x="339" y="91"/>
      <point x="339" y="193" type="curve" smooth="yes"/>
      <point x="339" y="348"/>
      <point x="194" y="368"/>
      <point x="194" y="438" type="curve" smooth="yes"/>
      <point x="194" y="468"/>
      <point x="215" y="484"/>
      <point x="250" y="484" type="curve" smooth="yes"/>
      <point x="283" y="484"/>
      <point x="304" y="476"/>
      <point x="333" y="463" type="curve"/>
    </contour>
  </outline>
</glyph>
<glyph name="s.superior" format="2">
  <advance width="209"/>
  <outline>
    <contour>
      <point x="26" y="381" type="line"/>
      <point x="48" y="369"/>
      <point x="73" y="364"/>
      <point x="114" y="364" type="curve" smooth="yes"/>
      <point x="178" y="364"/>
      <point x="232" y="400"/>
      <point x="232" y="484" type="curve" smooth="yes"/>
      <point x="232" y="577"/>
      <point x="142" y="562"/>
      <point x="141" y="587" type="curve" smooth="yes"/>
      <point x="141" y="593"/>
      <point x="148" y="596"/>
      <point x="166" y="596" type="curve" smooth="yes"/>
      <point x="182" y="596"/>
      <point x="204" y="593"/>
      <point x="223" y="585" type="curve"/>
      <point x="250" y="674" type="line"/>
      <point x="234" y="683"/>
      <point x="202" y="690"/>
      <point x="170" y="690" type="curve" smooth="yes"/>
      <point x="90" y="690"/>
      <point x="52" y="631"/>
      <point x="52" y="568" type="curve" smooth="yes"/>
      <point x="52" y="470"/>
      <point x="136" y="489"/>
      <point x="136" y="468" type="curve" smooth="yes"/>
      <point x="136" y="461"/>
      <point x="130" y="457"/>
      <point x="115" y="457" type="curve" smooth="yes"/>
      <point x="96" y="457"/>
      <point x="69" y="466"/>
      <point x="53" y="472" type="curve"/>
    </contour>
  </outline>
</glyph>
<glyph name="t.superior" format="2">
  <advance width="153"/>
  <outline>
    <contour>
      <point x="175" y="598" type="line"/>
      <point x="195" y="598" type="line"/>
      <point x="210" y="683" type="line"/>
      <point x="189" y="683" type="line"/>
      <point x="199" y="740" type="line"/>
      <point x="104" y="740" type="line"/>
      <point x="83" y="683" type="line"/>
      <point x="64" y="680" type="line"/>
      <point x="50" y="598" type="line"/>
      <point x="69" y="598" type="line"/>
      <point x="49" y="476" type="line" smooth="yes"/>
      <point x="46" y="458"/>
      <point x="43" y="433"/>
      <point x="43" y="420" type="curve" smooth="yes"/>
      <point x="43" y="373"/>
      <point x="73" y="364"/>
      <point x="106" y="364" type="curve" smooth="yes"/>
      <point x="118" y="364"/>
      <point x="154" y="370"/>
      <point x="168" y="380" type="curve"/>
      <point x="180" y="460" type="line"/>
      <point x="175" y="459"/>
      <point x="172" y="458"/>
      <point x="170" y="458" type="curve" smooth="yes"/>
      <point x="159" y="458"/>
      <point x="156" y="465"/>
      <point x="156" y="474" type="curve" smooth="yes"/>
      <point x="156" y="478"/>
      <point x="156" y="482"/>
      <point x="157" y="488" type="curve" smooth="yes"/>
    </contour>
  </outline>
</glyph>
<glyph name="thorn.sc" format="2">
  <advance width="408"/>
  <outline>
    <contour>
      <point x="-21" y="0" type="line"/>
      <point x="141" y="0" type="line"/>
      <point x="155" y="70" type="line"/>
      <point x="181" y="66"/>
      <point x="185" y="64"/>
      <point x="205" y="64" type="curve" smooth="yes"/>
      <point x="367" y="64"/>
      <point x="411" y="297"/>
      <point x="411" y="394" type="curve" smooth="yes"/>
      <point x="411" y="509"/>
      <point x="358" y="560"/>
      <point x="251" y="560" type="curve" smooth="yes"/>
      <point x="244" y="560"/>
      <point x="238" y="560"/>
      <point x="231" y="560" type="curve"/>
      <point x="243" y="625" type="line"/>
      <point x="79" y="625" type="line"/>
    </contour>
    <contour>
      <point x="193" y="215" type="curve" smooth="yes"/>
      <point x="188" y="215"/>
      <point x="184" y="215"/>
      <point x="178" y="217" type="curve"/>
      <point x="210" y="419" type="line"/>
      <point x="216" y="421"/>
      <point x="222" y="422"/>
      <point x="227" y="422" type="curve" smooth="yes"/>
      <point x="243" y="422"/>
      <point x="252" y="412"/>
      <point x="252" y="380" type="curve" smooth="yes"/>
      <point x="252" y="309"/>
      <point x="227" y="215"/>
    </contour>
  </outline>
</glyph>
<glyph name="two.tosf" format="2">
  <advance width="420"/>
  <outline>
    <contour>
      <point x="43" y="149" type="curve"/>
      <point x="21" y="0" type="line"/>
      <point x="310" y="0" type="line"/>
      <point x="335" y="158" type="line"/>
      <point x="231" y="158" type="line"/>
      <point x="316" y="241"/>
      <point x="377" y="325"/>
      <point x="377" y="424" type="curve" smooth="yes"/>
      <point x="377" y="514"/>
      <point x="322" y="560"/>
      <point x="245" y="560" type="curve" smooth="yes"/>
      <point x="199" y="560"/>
      <point x="123" y="547"/>
      <point x="75" y="511" type="curve"/>
      <point x="111" y="367" type="line"/>
      <point x="129" y="377"/>
      <point x="149" y="385"/>
      <point x="170" y="385" type="curve" smooth="yes"/>
      <point x="190" y="385"/>
      <point x="196" y="370"/>
      <point x="196" y="353" type="curve" smooth="yes"/>
      <point x="196" y="298"/>
      <point x="105" y="208"/>
    </contour>
  </outline>
</glyph>
<glyph name="uni0237.short" format="2">
  <advance width="205"/>
  <note>
idem /i
12
</note>
  <anchor x="146.556" y="550" name="top"/>
  <anchor x="-23" y="-210" name="bottom"/>
  <outline>
    <contour>
      <point x="230" y="550" type="line"/>
      <point x="67" y="550" type="line"/>
      <point x="-22" y="-2" type="line" smooth="yes"/>
      <point x="-29" y="-45"/>
      <point x="-38" y="-54"/>
      <point x="-55" y="-54" type="curve" smooth="yes"/>
      <point x="-58" y="-54"/>
      <point x="-62" y="-53"/>
      <point x="-64" y="-52" type="curve"/>
      <point x="-100" y="-214" type="line"/>
      <point x="-71" y="-219"/>
      <point x="-55" y="-220"/>
      <point x="-43" y="-220" type="curve" smooth="yes"/>
      <point x="71" y="-220"/>
      <point x="117" y="-152"/>
      <point x="142" y="5" type="curve" smooth="yes"/>
    </contour>
  </outline>
</glyph>
<glyph name="uni0302.case" format="2">
  <anchor x="-106" y="929" name="top"/>
  <anchor x="75" y="806" name="top_viet"/>
  <anchor x="-142" y="700" name="_top"/>
  <outline>
    <contour>
      <point x="-278" y="745" type="line"/>
      <point x="-145" y="745" type="line"/>
      <point x="-117" y="859" type="line"/>
      <point x="-125" y="745" type="line"/>
      <point x="8" y="745" type="line"/>
      <point x="-14" y="939" type="line"/>
      <point x="-192" y="939" type="line"/>
    </contour>
  </outline>
</glyph>
<glyph name="uni0304.case" format="2">
  <anchor x="-109" y="909" name="top"/>
  <anchor x="-142" y="700" name="_top"/>
  <outline>
    <contour>
      <point x="-252" y="745" type="line"/>
      <point x="-17" y="745" type="line"/>
      <point x="5" y="889" type="line"/>
      <point x="-229" y="889" type="line"/>
    </contour>
  </outline>
</glyph>
<glyph name="uni030C.alt" format="2">
  <anchor x="68" y="740" name="_topright"/>
  <outline>
    <contour>
      <point x="24" y="545" type="curve"/>
      <point x="123" y="545" type="line"/>
      <point x="177" y="593"/>
      <point x="213" y="672"/>
      <point x="199" y="740" type="curve"/>
      <point x="68" y="740" type="line"/>
      <point x="83" y="691"/>
      <point x="64" y="599"/>
    </contour>
  </outline>
</glyph>
<glyph name="v.superior" format="2">
  <advance width="247"/>
  <outline>
    <contour>
      <point x="201" y="683" type="line"/>
      <point x="201" y="603"/>
      <point x="176" y="535"/>
      <point x="153" y="464" type="curve"/>
      <point x="171" y="683" type="line"/>
      <point x="69" y="683" type="line"/>
      <point x="69" y="370" type="line"/>
      <point x="209" y="370" type="line"/>
      <point x="254" y="474"/>
      <point x="301" y="580"/>
      <point x="304" y="683" type="curve"/>
    </contour>
  </outline>
</glyph>
<glyph name="w.sc" format="2">
  <advance width="621"/>
  <anchor x="355" y="625" name="top"/>
  <anchor x="274" y="0" name="bottom"/>
  <outline>
    <contour>
      <point x="500" y="0" type="line"/>
      <point x="640" y="395"/>
      <point x="657" y="499"/>
      <point x="664" y="608" type="curve" smooth="yes"/>
      <point x="664" y="613"/>
      <point x="665" y="620"/>
      <point x="665" y="625" type="curve"/>
      <point x="489" y="625" type="line"/>
      <point x="489" y="620"/>
      <point x="489" y="615"/>
      <point x="489" y="610" type="curve" smooth="yes"/>
      <point x="489" y="475"/>
      <point x="473" y="408"/>
      <point x="419" y="179" type="curve"/>
      <point x="439" y="582" type="line"/>
      <point x="278" y="582" type="line"/>
      <point x="262" y="471"/>
      <point x="218" y="294"/>
      <point x="179" y="178" type="curve"/>
      <point x="224" y="625" type="line"/>
      <point x="49" y="625" type="line"/>
      <point x="49" y="0" type="line"/>
      <point x="234" y="0" type="line"/>
      <point x="266" y="92"/>
      <point x="288" y="183"/>
      <point x="325" y="325" type="curve"/>
      <point x="307" y="0" type="line"/>
    </contour>
  </outline>
</glyph>
